<svg xmlns:xlink="http://www.w3.org/1999/xlink" preserveAspectRatio="xMidYMin slice" xmlns="http://www.w3.org/2000/svg" viewBox="0 -1.9 2001 50" width="4000"  height="1577.5075987841944" ><g fill="#27222A"><circle cx="60.3" cy="17.6" r="2.8"/><path d="M20 19a2 2 0 10-2-2 2 2 0 002 2zM51 8a2 2 0 10-2-2 2 2 0 002 2zM62 28a3 3 0 103-3 3 3 0 00-3 3zM97 34a3 3 0 10-3-3 3 3 0 003 3zM9 0a4 4 0 104 4 4 4 0 00-4-4zm0 7a3 3 0 114-3 3 3 0 01-4 3zM72 12a3 3 0 10-4-1 3 3 0 004 1zM33 9a1 1 0 10-2-1 1 1 0 002 1zM46 30a2 2 0 102 1 2 2 0 00-2-1zM81 33a2 2 0 100-3 2 2 0 000 3zM168 18a3 3 0 10-3-3 3 3 0 003 3zM125 19a2 2 0 10-2-2 2 2 0 002 2z" fill-rule="evenodd"/><circle cx="156.6" cy="6.2" r="2"/><path d="M167 28a3 3 0 103-3 3 3 0 00-3 3zM115 0a4 4 0 104 4 4 4 0 00-4-4zm0 7a3 3 0 113-3 3 3 0 01-3 3zM177 12a3 3 0 10-3-1 3 3 0 003 1zM139 9a1 1 0 10-2-1 1 1 0 002 1zM151 30a2 2 0 103 1 2 2 0 00-3-1zM186 33a2 2 0 101-3 2 2 0 00-1 3z" fill-rule="evenodd"/><circle cx="201.1" cy="17.6" r="2.8"/><path d="M203 28a3 3 0 103-3 3 3 0 00-3 3zM238 34a3 3 0 10-3-3 3 3 0 003 3zM213 12a3 3 0 10-4-1 3 3 0 004 1zM221 33a2 2 0 101-3 2 2 0 00-1 3zM308 18a3 3 0 10-2-3 3 3 0 002 3zM266 19a2 2 0 10-2-2 2 2 0 002 2z" fill-rule="evenodd"/><circle cx="297.4" cy="6.2" r="2"/><path d="M308 28a3 3 0 103-3 3 3 0 00-3 3zM256 0a4 4 0 104 4 4 4 0 00-4-4zm0 7a3 3 0 113-3 3 3 0 01-3 3zM318 12a3 3 0 10-4-1 3 3 0 004 1zM279 9a1 1 0 10-2-1 1 1 0 002 1zM292 30a2 2 0 103 1 2 2 0 00-3-1zM327 33a2 2 0 100-3 2 2 0 000 3zM342 20a3 3 0 10-3-2 3 3 0 003 2zM343 28a3 3 0 103-3 3 3 0 00-3 3zM379 34a3 3 0 10-3-3 3 3 0 003 3zM354 12a3 3 0 10-4-1 3 3 0 004 1zM362 33a2 2 0 101-3 2 2 0 00-1 3zM449 18a3 3 0 10-3-3 3 3 0 003 3zM407 19a2 2 0 10-2-2 2 2 0 002 2zM438 8a2 2 0 10-2-2 2 2 0 002 2zM449 28a3 3 0 103-3 3 3 0 00-3 3zM396 0a4 4 0 104 4 4 4 0 00-4-4zm0 7a3 3 0 114-3 3 3 0 01-4 3zM459 12a3 3 0 10-4-1 3 3 0 004 1zM420 9a1 1 0 10-2-1 1 1 0 002 1zM433 30a2 2 0 103 1 2 2 0 00-3-1zM468 33a2 2 0 100-3 2 2 0 000 3zM483 20a3 3 0 10-3-2 3 3 0 003 2zM484 28a3 3 0 103-3 3 3 0 00-3 3zM519 34a3 3 0 10-3-3 3 3 0 003 3zM494 12a3 3 0 10-3-1 3 3 0 003 1zM503 33a2 2 0 101-3 2 2 0 00-1 3z" fill-rule="evenodd"/><circle cx="590" cy="15.1" r="2.8"/><path d="M548 19a2 2 0 10-3-2 2 2 0 003 2zM579 8a2 2 0 10-2-2 2 2 0 002 2zM590 28a3 3 0 103-3 3 3 0 00-3 3zM537 0a4 4 0 104 4 4 4 0 00-4-4zm0 7a3 3 0 113-3 3 3 0 01-3 3zM600 12a3 3 0 10-4-1 3 3 0 004 1zM561 9a1 1 0 000-2 1 1 0 00-2 1 1 1 0 002 1zM574 30a2 2 0 102 1 2 2 0 00-2-1zM608 33a2 2 0 101-3 2 2 0 00-1 3zM623 20a3 3 0 10-2-2 3 3 0 002 2zM625 28a3 3 0 103-3 3 3 0 00-3 3zM660 34a3 3 0 10-3-3 3 3 0 003 3zM635 12a3 3 0 10-4-1 3 3 0 004 1zM644 33a2 2 0 100-3 2 2 0 000 3z" fill-rule="evenodd"/><circle cx="730.8" cy="15.1" r="2.8"/><path d="M689 19a2 2 0 10-3-2 2 2 0 003 2zM720 8a2 2 0 10-2-2 2 2 0 002 2zM730 28a3 3 0 103-3 3 3 0 00-3 3zM678 0a4 4 0 104 4 4 4 0 00-4-4zm0 7a3 3 0 113-3 3 3 0 01-3 3zM741 12a3 3 0 10-4-1 3 3 0 004 1zM702 9a1 1 0 10-2-1 1 1 0 002 1zM714 30a2 2 0 103 1 2 2 0 00-3-1zM749 33a2 2 0 101-3 2 2 0 00-1 3zM764 20a3 3 0 10-3-2 3 3 0 003 2zM766 28a3 3 0 103-3 3 3 0 00-3 3zM801 34a3 3 0 10-3-3 3 3 0 003 3zM776 12a3 3 0 10-4-1 3 3 0 004 1zM784 33a2 2 0 101-3 2 2 0 00-1 3z" fill-rule="evenodd"/><circle cx="871.6" cy="15.1" r="2.8"/><path d="M829 19a2 2 0 10-2-2 2 2 0 002 2zM861 8a2 2 0 10-2-2 2 2 0 002 2zM871 28a3 3 0 103-3 3 3 0 00-3 3zM819 0a4 4 0 104 4 4 4 0 00-4-4zm0 7a3 3 0 113-3 3 3 0 01-3 3zM881 12a3 3 0 10-3-1 3 3 0 003 1zM842 9a1 1 0 10-1-1 1 1 0 001 1zM855 30a2 2 0 103 1 2 2 0 00-3-1zM890 33a2 2 0 101-3 2 2 0 00-1 3z" fill-rule="evenodd"/><circle cx="905" cy="17.6" r="2.8"/><path d="M906 28a3 3 0 103-3 3 3 0 00-3 3zM942 34a3 3 0 10-3-3 3 3 0 003 3zM917 12a3 3 0 10-4-1 3 3 0 004 1zM925 33a2 2 0 101-3 2 2 0 00-1 3zM1012 18a3 3 0 10-2-3 3 3 0 002 3zM970 19a2 2 0 10-2-2 2 2 0 002 2zM1001 8a2 2 0 10-2-2 2 2 0 002 2zM1012 28a3 3 0 103-3 3 3 0 00-3 3zM959 0a4 4 0 105 4 4 4 0 00-5-4zm0 7a3 3 0 114-3 3 3 0 01-4 3zM1022 12a3 3 0 10-4-1 3 3 0 004 1zM983 9a1 1 0 10-2-1 1 1 0 002 1zM996 30a2 2 0 103 1 2 2 0 00-3-1zM1031 33a2 2 0 100-3 2 2 0 000 3z" fill-rule="evenodd"/><circle cx="1045.8" cy="17.6" r="2.8"/><path d="M1047 28a3 3 0 103-3 3 3 0 00-3 3zM1082 34a3 3 0 10-3-3 3 3 0 003 3zM1057 12a3 3 0 10-3-1 3 3 0 003 1zM1066 33a2 2 0 101-3 2 2 0 00-1 3zM1153 18a3 3 0 10-3-3 3 3 0 003 3zM1111 19a2 2 0 10-2-2 2 2 0 002 2zM1142 8a2 2 0 10-2-2 2 2 0 002 2zM1153 28a3 3 0 103-3 3 3 0 00-3 3zM1100 0a4 4 0 104 4 4 4 0 00-4-4zm0 7a3 3 0 113-3 3 3 0 01-3 3zM1163 12a3 3 0 10-4-1 3 3 0 004 1zM1124 9a1 1 0 10-2-1 1 1 0 002 1zM1137 30a2 2 0 102 1 2 2 0 00-2-1zM1171 33a2 2 0 101-3 2 2 0 00-1 3zM1187 20a3 3 0 10-3-2 3 3 0 003 2zM1188 28a3 3 0 103-3 3 3 0 00-3 3zM1223 34a3 3 0 10-3-3 3 3 0 003 3zM1198 12a3 3 0 10-4-1 3 3 0 004 1zM1207 33a2 2 0 100-3 2 2 0 000 3z" fill-rule="evenodd"/><circle cx="1294" cy="15.1" r="2.8"/><path d="M1252 19a2 2 0 10-3-2 2 2 0 003 2z" fill-rule="evenodd"/><circle cx="1282.9" cy="6.2" r="2"/><path d="M1293 28a3 3 0 103-3 3 3 0 00-3 3zM1241 0a4 4 0 104 4 4 4 0 00-4-4zm0 7a3 3 0 113-3 3 3 0 01-3 3zM1304 12a3 3 0 10-4-1 3 3 0 004 1zM1265 9a1 1 0 10-2-1 1 1 0 002 1zM1278 30a2 2 0 102 1 2 2 0 00-2-1zM1312 33a2 2 0 101-3 2 2 0 00-1 3zM1327 20a3 3 0 10-2-2 3 3 0 002 2zM1329 28a3 3 0 103-3 3 3 0 00-3 3zM1364 34a3 3 0 10-3-3 3 3 0 003 3zM1339 12a3 3 0 10-4-1 3 3 0 004 1zM1348 33a2 2 0 100-3 2 2 0 000 3zM1435 18a3 3 0 10-3-3 3 3 0 003 3zM1392 19a2 2 0 10-2-2 2 2 0 002 2zM1424 8a2 2 0 10-2-2 2 2 0 002 2zM1434 28a3 3 0 103-3 3 3 0 00-3 3zM1382 0a4 4 0 104 4 4 4 0 00-4-4zm0 7a3 3 0 113-3 3 3 0 01-3 3zM1444 12a3 3 0 10-3-1 3 3 0 003 1zM1406 9a1 1 0 10-2-1 1 1 0 002 1zM1418 30a2 2 0 103 1 2 2 0 00-3-1zM1453 33a2 2 0 101-3 2 2 0 00-1 3zM1468 20a3 3 0 10-3-2 3 3 0 003 2zM1470 28a3 3 0 103-3 3 3 0 00-3 3zM1505 34a3 3 0 10-3-3 3 3 0 003 3zM1480 12a3 3 0 10-4-1 3 3 0 004 1zM1488 33a2 2 0 101-3 2 2 0 00-1 3zM1576 18a3 3 0 10-3-3 3 3 0 003 3zM1533 19a2 2 0 10-2-2 2 2 0 002 2z" fill-rule="evenodd"/><circle cx="1564.5" cy="6.2" r="2"/><path d="M1575 28a3 3 0 103-3 3 3 0 00-3 3zM1523 0a4 4 0 104 4 4 4 0 00-4-4zm0 7a3 3 0 113-3 3 3 0 01-3 3zM1585 12a3 3 0 10-4-1 3 3 0 004 1zM1546 9a1 1 0 10-2-1 1 1 0 002 1zM1559 30a2 2 0 103 1 2 2 0 00-3-1zM1594 33a2 2 0 100-3 2 2 0 000 3z" fill-rule="evenodd"/><circle cx="1609" cy="17.6" r="2.8"/><path d="M1610 28a3 3 0 103-3 3 3 0 00-3 3zM1646 34a3 3 0 10-3-3 3 3 0 003 3zM1621 12a3 3 0 10-4-1 3 3 0 004 1zM1629 33a2 2 0 101-3 2 2 0 00-1 3z" fill-rule="evenodd"/><circle cx="1716.3" cy="15.1" r="2.8"/><path d="M1674 19a2 2 0 10-2-2 2 2 0 002 2zM1705 8a2 2 0 10-2-2 2 2 0 002 2zM1716 28a3 3 0 103-3 3 3 0 00-3 3zM1663 0a4 4 0 105 4 4 4 0 00-5-4zm0 7a3 3 0 114-3 3 3 0 01-4 3zM1726 12a3 3 0 10-4-1 3 3 0 004 1zM1687 9a1 1 0 10-2-1 1 1 0 002 1zM1700 30a2 2 0 103 1 2 2 0 00-3-1zM1735 33a2 2 0 100-3 2 2 0 000 3zM1750 20a3 3 0 10-3-2 3 3 0 003 2zM1751 28a3 3 0 103-3 3 3 0 00-3 3zM1786 34a3 3 0 10-3-3 3 3 0 003 3zM1761 12a3 3 0 10-3-1 3 3 0 003 1zM1770 33a2 2 0 101-3 2 2 0 00-1 3zM1857 18a3 3 0 10-3-3 3 3 0 003 3zM1815 19a2 2 0 10-3-2 2 2 0 003 2zM1846 8a2 2 0 10-2-2 2 2 0 002 2zM1857 28a3 3 0 103-3 3 3 0 00-3 3zM1804 0a4 4 0 104 4 4 4 0 00-4-4zm0 7a3 3 0 113-3 3 3 0 01-3 3zM1867 12a3 3 0 10-4-1 3 3 0 004 1zM1828 9a1 1 0 10-2-1 1 1 0 002 1zM1841 30a2 2 0 102 1 2 2 0 00-2-1zM1875 33a2 2 0 101-3 2 2 0 00-1 3zM1891 20a3 3 0 10-3-2 3 3 0 003 2zM1892 28a3 3 0 103-3 3 3 0 00-3 3zM1927 34a3 3 0 10-3-3 3 3 0 003 3zM1902 12a3 3 0 10-4-1 3 3 0 004 1zM1911 33a2 2 0 100-3 2 2 0 000 3zM1998 18a3 3 0 10-3-3 3 3 0 003 3zM1956 19a2 2 0 10-3-2 2 2 0 003 2z" fill-rule="evenodd"/><circle cx="1986.8" cy="6.2" r="2"/><path d="M2000 25v6a3 3 0 110-6zM1945 0a4 4 0 104 4 4 4 0 00-4-4zm0 7a3 3 0 113-3 3 3 0 01-3 3zM1969 9a1 1 0 10-2-1 1 1 0 002 1zM1981 30a2 2 0 103 1 2 2 0 00-3-1z" fill-rule="evenodd"/><path d="M2000 39v10H0V28l8-14a4 4 0 017 4L9 28a4 4 0 007 4l11-19a4 4 0 016 4 4 4 0 107 4l3-6a4 4 0 117 4L38 39a4 4 0 006 5l2-3 5-10a4 4 0 017 4l-2 5a4 4 0 002 5 4 4 0 005-2l11-21a4 4 0 015-1 4 4 0 011 5l-3 6a4 4 0 004 5 4 4 0 003-1 4 4 0 016-2 4 4 0 011 5 3 3 0 003 5 3 3 0 003-2l8-14 9-14a4 4 0 016 4l-6 10a4 4 0 007 4l11-19a4 4 0 017 4 4 4 0 106 4l4-6a4 4 0 116 4l-11 20a4 4 0 006 5l1-3 6-10a4 4 0 017 4l-3 5a4 4 0 007 3l11-21a4 4 0 117 4l-3 6a4 4 0 107 3l2-4a4 4 0 117 4l-3 5a4 4 0 003 5 4 4 0 005-2l11-21a4 4 0 015-1 4 4 0 011 5l-3 6a4 4 0 004 6 4 4 0 003-2 4 4 0 016-2 4 4 0 011 5 3 3 0 003 5 3 3 0 002-2l9-14 8-14a4 4 0 017 4l-6 10a4 4 0 107 4l11-19a4 4 0 016 4 4 4 0 007 4l3-6a4 4 0 017 4l-12 20a4 4 0 006 5l2-3 6-10a4 4 0 016 4l-2 5a4 4 0 007 3l11-21a4 4 0 017 4l-3 6a4 4 0 107 3l2-4a4 4 0 017 4l-3 5a4 4 0 003 5 4 4 0 004-2l11-21a4 4 0 016-1 4 4 0 011 5l-3 6a4 4 0 004 6 4 4 0 003-2 4 4 0 015-2 4 4 0 012 5 3 3 0 002 5h1a3 3 0 002-2l9-14 8-14a4 4 0 017 4l-6 10a4 4 0 007 4l11-19a4 4 0 016 4 4 4 0 007 4l3-6a4 4 0 117 4l-12 20a4 4 0 006 5l2-3 5-10a4 4 0 017 4l-2 5a4 4 0 007 3l11-21a4 4 0 017 4l-4 6a4 4 0 107 3 4 4 0 011 0l2-4a4 4 0 017 4l-3 5a4 4 0 002 5 4 4 0 005-2l11-21a4 4 0 016-1 4 4 0 011 5l-3 6a4 4 0 003 6 4 4 0 004-2 4 4 0 015-2 4 4 0 011 5 3 3 0 003 5 3 3 0 003-2l9-14 8-14a4 4 0 017 4l-6 10a4 4 0 006 4l11-19a4 4 0 017 4 4 4 0 007 4l3-6a4 4 0 117 4l-12 20a4 4 0 006 5l2-3 5-10a4 4 0 117 4l-3 5a4 4 0 007 3l12-21a4 4 0 016 4l-3 6a4 4 0 107 3 4 4 0 011 0l2-4a4 4 0 016 4l-2 5a4 4 0 002 5 4 4 0 005-2l11-21a4 4 0 015-1 4 4 0 012 5l-3 6a4 4 0 003 6 4 4 0 003-2 4 4 0 016-2 4 4 0 011 5 3 3 0 003 5 3 3 0 003-2l9-14 8-14a4 4 0 017 4l-6 10a4 4 0 106 4l11-19a4 4 0 017 4 4 4 0 107 4l3-6a4 4 0 116 4l-11 20a4 4 0 006 5l1-3 6-10a4 4 0 117 4l-3 5a4 4 0 007 3l11-21a4 4 0 017 4l-3 6a4 4 0 107 3l2-4a4 4 0 017 4l-3 5a4 4 0 003 5 4 4 0 005-2l11-21a4 4 0 015-1 4 4 0 011 5l-3 6a4 4 0 004 6 4 4 0 003-2 4 4 0 016-2 4 4 0 011 5 3 3 0 003 5 3 3 0 003-2l8-14 9-14a4 4 0 016 4l-6 10a4 4 0 007 4l11-19a4 4 0 017 4 4 4 0 006 4l4-6a4 4 0 116 4l-11 20a4 4 0 006 5l1-3 6-10a4 4 0 017 4l-3 5a4 4 0 007 3l11-21a4 4 0 017 4l-3 6a4 4 0 107 3l2-4a4 4 0 117 4l-3 5a4 4 0 003 5 4 4 0 004-2l11-21a4 4 0 016-1 4 4 0 011 5l-3 6a4 4 0 004 6 4 4 0 003-2 4 4 0 016-2 4 4 0 011 5 3 3 0 003 5 3 3 0 002-2l9-14 8-14a4 4 0 017 4l-6 10a4 4 0 107 4l11-19a4 4 0 016 4 4 4 0 107 4l3-6a4 4 0 117 4l-12 20a4 4 0 006 5l2-3 6-10a4 4 0 116 4l-2 5a4 4 0 007 3l11-21a4 4 0 017 4l-3 6a4 4 0 106 3 4 4 0 011 0l2-4a4 4 0 017 4l-3 5a4 4 0 003 5 4 4 0 004-2l11-21a4 4 0 016-1 4 4 0 011 5l-3 6a4 4 0 004 6 4 4 0 003-2 4 4 0 015-2 4 4 0 012 5 3 3 0 002 5h1a3 3 0 002-2l9-14 8-14a4 4 0 017 4l-6 10a4 4 0 007 4l10-19a4 4 0 017 4 4 4 0 107 4l3-6a4 4 0 117 4l-12 20a4 4 0 006 5l2-3 5-10a4 4 0 017 4l-3 5a4 4 0 008 3l11-21a4 4 0 116 4l-3 6a4 4 0 107 3 4 4 0 011 0l2-4a4 4 0 117 4l-3 5a4 4 0 002 5 4 4 0 005-2l11-21a4 4 0 015-1 4 4 0 012 5l-3 6a4 4 0 003 6 4 4 0 004-2 4 4 0 015-2 4 4 0 011 5 3 3 0 003 5 3 3 0 003-2l9-14 8-14a4 4 0 017 4l-6 10a4 4 0 106 4l11-19a4 4 0 017 4 4 4 0 007 4l3-6a4 4 0 117 4l-12 20a4 4 0 006 5l2-3 5-10a4 4 0 017 4l-3 5a4 4 0 007 3l11-21a4 4 0 017 4l-3 6a4 4 0 107 3 4 4 0 011 0l2-4a4 4 0 016 4l-2 5a4 4 0 002 5 4 4 0 005-2l11-21a4 4 0 015-1 4 4 0 012 5l-3 6a4 4 0 003 6 4 4 0 003-2 4 4 0 016-2 4 4 0 011 5 3 3 0 003 5 3 3 0 003-2l8-14 9-14a4 4 0 016 4l-6 10a4 4 0 007 4l11-19a4 4 0 017 4 4 4 0 106 4l4-6a4 4 0 116 4l-11 20a4 4 0 006 5l1-3 6-10a4 4 0 017 4l-3 5a4 4 0 007 3l11-21a4 4 0 017 4l-3 6a4 4 0 107 3l2-4a4 4 0 017 4l-3 5a4 4 0 003 5 4 4 0 005-2l11-21a4 4 0 015-1 4 4 0 011 5l-3 6a4 4 0 004 6 4 4 0 003-2 4 4 0 016-2 4 4 0 011 5 3 3 0 003 5 3 3 0 002-2l9-14 8-14a4 4 0 017 4l-6 10a4 4 0 107 4l11-19a4 4 0 016 4 4 4 0 007 4l3-6a4 4 0 117 4l-12 20a4 4 0 006 5l2-3 6-10a4 4 0 116 4l-2 5a4 4 0 007 3l11-21a4 4 0 017 4l-3 6a4 4 0 107 3l2-4a4 4 0 017 4l-3 5a4 4 0 003 5 4 4 0 004-2l11-21a4 4 0 016-1 4 4 0 011 5l-3 6a4 4 0 004 6 4 4 0 003-2 4 4 0 015-2 4 4 0 012 5 3 3 0 003 5 3 3 0 002-2l9-14 8-14a4 4 0 017 4l-6 10a4 4 0 107 4l11-19a4 4 0 016 4 4 4 0 107 4l3-6a4 4 0 117 4l-12 20a4 4 0 006 5l2-3 6-10a4 4 0 016 4l-2 5a4 4 0 007 3l11-21a4 4 0 017 4l-3 6a4 4 0 106 3 4 4 0 011 0l2-4a4 4 0 017 4l-3 5a4 4 0 003 5 4 4 0 004-2l11-21a4 4 0 016-1 4 4 0 011 5l-3 6a4 4 0 004 6 4 4 0 003-2 4 4 0 015-2 4 4 0 011 5 3 3 0 003 5 3 3 0 003-2l9-14 8-14a4 4 0 017 4l-6 10a4 4 0 007 4l10-19a4 4 0 017 4 4 4 0 007 4l3-6a4 4 0 117 4l-12 20a4 4 0 006 5l2-3 5-10a4 4 0 017 4l-3 5a4 4 0 008 3l11-21a4 4 0 016 4l-3 6a4 4 0 107 3 4 4 0 011 0l2-4a4 4 0 016 4l-2 5a4 4 0 002 5 4 4 0 005-2l11-21a4 4 0 015-1 4 4 0 012 5l-3 6a4 4 0 003 6 4 4 0 003-2 4 4 0 016-2 4 4 0 011 5 3 3 0 003 5 3 3 0 003-2l9-14 8-14a4 4 0 017 4l-6 10a4 4 0 106 4l11-19a4 4 0 015-2 4 4 0 010 1 4 4 0 012 5 4 4 0 107 4l3-6a4 4 0 116 4l-11 20a4 4 0 006 5l1-3 6-10a4 4 0 017 4l-3 5a4 4 0 007 3z" fill-rule="evenodd"/></g></svg>