<svg xmlns:xlink="http://www.w3.org/1999/xlink" preserveAspectRatio="none" xmlns="http://www.w3.org/2000/svg" viewBox="0 0 2000.4 69.7" width="4000.4"  height="139.3860627874425" ><g fill="#AEC7D6"><path d="M1935 9V0h65v9a2 2 0 01-1 2h-62a2 2 0 01-2-2zM1869 9V0h66v9a2 2 0 01-2 2h-62a2 2 0 01-2-2z"/><path d="M1806 9V0h66v9a2 2 0 01-1 2 1 1 0 01-1 0h-62a2 2 0 01-2-2z"/><path d="M1743 9V0h66v9a2 2 0 01-1 2 1 1 0 01-1 0h-62a2 2 0 01-2-2z"/><path d="M1681 9V0h65v9a2 2 0 01-1 2 1 1 0 01-1 0h-62a2 2 0 01-1-2z"/><path d="M1618 9V0h65v9a2 2 0 01-1 2 1 1 0 01-1 0h-62a2 2 0 01-1-2z"/><path d="M1555 9V0h65v9a2 2 0 01-1 2 1 1 0 01-1 0h-62a2 2 0 01-1-2z"/><path d="M1492 9V0h65v9a2 2 0 01-1 2 1 1 0 01-1 0h-62a2 2 0 01-1-2z"/><path d="M1429 9V0h65v9a2 2 0 01-1 2 1 1 0 01-1 0h-62a2 2 0 01-1-2z"/><path d="M1366 9V0h65v9a2 2 0 01-1 2h-62a1 1 0 01-1 0 2 2 0 01-1-2z"/><path d="M1303 9V0h65v9a2 2 0 01-1 2h-62a1 1 0 01-1 0 2 2 0 01-1-2z"/><path d="M1240 9V0h65v9a2 2 0 01-1 2h-62a1 1 0 01-1 0 2 2 0 01-1-2z"/><path d="M1177 9V0h65v9a2 2 0 01-1 2h-62a1 1 0 01-1 0 2 2 0 01-1-2z"/><path d="M1114 9V0h66v9a2 2 0 01-2 2h-62a1 1 0 01-1 0 2 2 0 01-1-2z"/><path d="M1051 9V0h66v9a2 2 0 01-2 2h-62a1 1 0 01-1 0 2 2 0 01-1-2z"/><path d="M988 9V0h66v9a2 2 0 01-2 2h-62a1 1 0 01-1 0 2 2 0 01-1-2z"/><path d="M925 9V0h66v9a2 2 0 01-2 2h-62a1 1 0 01-1 0 2 2 0 01-1-2z"/><path d="M862 9V0h66v9a2 2 0 01-2 2h-62a1 1 0 01-1 0 2 2 0 01-1-2z"/><path d="M799 9V0h66v9a2 2 0 01-2 2h-62a2 2 0 01-2-2z"/><path d="M736 9V0h66v9a2 2 0 01-2 2h-62a2 2 0 01-2-2z"/><path d="M673 9V0h66v9a2 2 0 01-1 2 1 1 0 01-1 0h-62a2 2 0 01-2-2z"/><path d="M610 9V0h66v9a2 2 0 01-1 2 1 1 0 01-1 0h-62a2 2 0 01-2-2z"/><path d="M547 9V0h66v9a2 2 0 01-1 2 1 1 0 01-1 0h-62a2 2 0 01-2-2z"/><path d="M484 9V0h66v9a2 2 0 01-1 2 1 1 0 01-1 0h-62a2 2 0 01-2-2z"/><path d="M421 9V0h66v9a2 2 0 01-1 2 1 1 0 01-1 0h-62a2 2 0 01-2-2z"/><path d="M359 9V0h65v9a2 2 0 01-1 2 1 1 0 01-1 0h-62a2 2 0 01-1-2z"/><path d="M296 9V0h65v9a2 2 0 01-1 2 1 1 0 01-1 0h-62a2 2 0 01-1-2z"/><path d="M233 9V0h65v9a2 2 0 01-1 2 1 1 0 01-1 0h-62a2 2 0 01-1-2z"/><path d="M170 9V0h65v9a2 2 0 01-1 2 1 1 0 01-1 0h-62a2 2 0 01-1-2z"/><path d="M107 9V0h65v9a2 2 0 01-1 2h-62a1 1 0 01-1 0 2 2 0 01-1-2z"/><path d="M44 9V0h65v9a2 2 0 01-1 2H46a1 1 0 01-1 0 2 2 0 01-1-2z"/><path d="M0 11V0h46v9a2 2 0 01-1 2zM1960 70h-30a2 2 0 01-2-2V31a2 2 0 012-2h30a2 2 0 012 2v37a2 2 0 01-2 2z"/><path d="M1960 29h-30a2 2 0 00-2 2v37a2 2 0 002 2h30a2 2 0 002-2V31a2 2 0 00-2-2zm2 39a2 2 0 01-2 1h-30a2 2 0 01-2-1V31a2 2 0 012-2h30a2 2 0 012 2zM1976 26V8a1 1 0 011-1h15a1 1 0 011 1v18a1 1 0 01-1 2h-15a1 1 0 01-1-2z"/><path d="M1945 48h-7a2 2 0 01-1-1v-9a2 2 0 011-2h7a2 2 0 012 2v9a2 2 0 01-2 1z"/><path d="M1945 36h-7a2 2 0 00-1 2v9a2 2 0 001 1h7a2 2 0 002-1v-9a2 2 0 00-2-2zm2 11a2 2 0 01-2 1h-7a2 2 0 01-1-1v-9a2 2 0 011-2h7a2 2 0 012 2zM1988 58h-11a2 2 0 01-2-2V43a2 2 0 012-2h11a2 2 0 011 2v13a2 2 0 01-1 2z"/><path d="M1988 41h-11a2 2 0 00-2 2v13a2 2 0 002 2h11a2 2 0 001-2V43a2 2 0 00-1-2zm1 15a2 2 0 01-1 2h-11a2 2 0 01-1-2V43a2 2 0 011-2h11a2 2 0 011 2zM1946 23v-6a2 2 0 011-2h5a2 2 0 012 2v6a2 2 0 01-2 2h-5a2 2 0 01-1-2z"/><path d="M1952 15h-5a2 2 0 00-1 2v6a2 2 0 001 2h5a2 2 0 002-2v-6a2 2 0 00-2-2zm2 8a2 2 0 01-2 2h-5a2 2 0 01-1-2v-6a2 2 0 011-2h5a2 2 0 012 2zM1886 70h31a2 2 0 001-2V31a2 2 0 00-1-2h-31a2 2 0 00-1 2v37a2 2 0 001 2z"/><path d="M1885 31v37a2 2 0 001 2h31a2 2 0 001-2V31a2 2 0 00-1-2h-31a2 2 0 00-1 2zm0 0a2 2 0 011-2h31a2 2 0 011 2v37a2 2 0 01-1 1h-31a2 2 0 01-1-1zM1811 46h9a2 2 0 002-2V33a2 2 0 00-2-2h-9a2 2 0 00-1 2v11a2 2 0 001 2z"/><path d="M1810 33v11a2 2 0 001 2h9a2 2 0 002-2V33a2 2 0 00-2-2h-9a2 2 0 00-1 2zm0 0a2 2 0 011-1h9a2 2 0 011 1v11a2 2 0 01-1 2h-9a2 2 0 01-1-2zM1838 10h-2a2 2 0 00-2 2v3a2 2 0 002 2h2a2 2 0 002-2v-3a2 2 0 00-2-2z"/><path d="M1840 15v-3a2 2 0 00-2-2h-2a2 2 0 00-2 2v3a2 2 0 002 2h2a2 2 0 002-2zm0 0a2 2 0 01-2 2h-2a2 2 0 01-2-2v-3a2 2 0 012-1h2a2 2 0 012 1zM1870 26V8a1 1 0 00-1-1h-14a1 1 0 00-2 1v18a1 1 0 002 2h14a1 1 0 001-2zM1901 48h7a2 2 0 002-1v-9a2 2 0 00-2-2h-7a2 2 0 00-1 2v9a2 2 0 001 1z"/><path d="M1900 38v9a2 2 0 001 1h7a2 2 0 002-1v-9a2 2 0 00-2-2h-7a2 2 0 00-1 2zm0 0a2 2 0 011-2h7a2 2 0 011 2v9a2 2 0 01-1 1h-7a2 2 0 01-1-1zM1859 58h10a2 2 0 002-2V43a2 2 0 00-2-2h-10a2 2 0 00-2 2v13a2 2 0 002 2z"/><path d="M1857 43v13a2 2 0 002 2h10a2 2 0 002-2V43a2 2 0 00-2-2h-10a2 2 0 00-2 2zm0 0a2 2 0 012-2h10a2 2 0 012 2v13a2 2 0 01-2 2h-10a2 2 0 01-2-2zM1901 23v-6a2 2 0 00-2-2h-5a2 2 0 00-2 2v6a2 2 0 002 2h5a2 2 0 002-2z"/><path d="M1892 17v6a2 2 0 002 2h5a2 2 0 002-2v-6a2 2 0 00-2-2h-5a2 2 0 00-2 2zm1 0a2 2 0 011-2h5a2 2 0 011 2v6a2 2 0 01-1 2h-5a2 2 0 01-1-2zM1814 16v-6a2 2 0 00-1-2h-5a2 2 0 00-2 2v6a2 2 0 002 2h5a2 2 0 001-2z"/><path d="M1806 10v6a2 2 0 002 2h5a2 2 0 001-2v-6a2 2 0 00-1-2h-5a2 2 0 00-2 2zm0 0a2 2 0 012-2h5a2 2 0 011 2v6a2 2 0 01-1 2h-5a2 2 0 01-2-2zM1507 64h-2a2 2 0 01-2-2v-2a2 2 0 012-2h2a2 2 0 012 2v2a2 2 0 01-2 2z"/><path d="M1507 58h-2a2 2 0 00-2 2v2a2 2 0 002 2h2a2 2 0 002-2v-2a2 2 0 00-2-2zm2 4a1 1 0 01-2 2h-2a1 1 0 01-1-2v-2a1 1 0 011-2h2a1 1 0 012 2zM1647 6h30a2 2 0 012 2v36a2 2 0 01-2 2h-30a2 2 0 01-1-2V8a2 2 0 011-2z"/><path d="M1647 46h30a2 2 0 002-2V8a2 2 0 00-2-2h-30a2 2 0 00-1 2v36a2 2 0 001 2zm-1-38a1 1 0 011-2h30a1 1 0 012 2v36a1 1 0 01-2 2h-30a1 1 0 01-1-2zM1574 29h9a2 2 0 011 2v10a2 2 0 01-1 2h-9a2 2 0 01-2-2V31a2 2 0 012-2z"/><path d="M1574 43h9a2 2 0 001-2V31a2 2 0 00-1-2h-9a2 2 0 00-2 2v10a2 2 0 002 2zm-1-12a1 1 0 011-2h9a2 2 0 011 2v10a1 1 0 01-1 2h-9a1 1 0 01-1-2zM1600 64h-2a2 2 0 01-2-2v-3a2 2 0 012-2h2a2 2 0 012 2v3a2 2 0 01-2 2z"/><path d="M1600 57h-2a2 2 0 00-2 2v3a2 2 0 002 2h2a2 2 0 002-2v-3a2 2 0 00-2-2zm2 5a1 1 0 01-2 2h-2a1 1 0 01-1-2v-3a1 1 0 011-1h2a1 1 0 012 1zM1632 48v18a1 1 0 01-1 1h-15a1 1 0 01-1-1V48a1 1 0 011-1h15a1 1 0 011 1zM1662 27h7a2 2 0 012 2v8a2 2 0 01-2 2h-7a2 2 0 01-1-2v-8a2 2 0 011-2z"/><path d="M1662 39h7a2 2 0 002-2v-8a2 2 0 00-2-2h-7a2 2 0 00-1 2v8a2 2 0 001 2zm-1-10a1 1 0 011-2h7a1 1 0 011 2v8a1 1 0 01-1 2h-7a1 1 0 01-1-2zM1620 17h11a2 2 0 012 2v13a2 2 0 01-2 2h-11a2 2 0 01-1-2V19a2 2 0 011-2z"/><path d="M1620 34h11a2 2 0 002-2V19a2 2 0 00-2-2h-11a2 2 0 00-1 2v13a2 2 0 001 2zm-1-15a1 1 0 011-2h11a1 1 0 011 2v13a1 1 0 01-1 2h-11a1 1 0 01-1-2zM1662 51v6a2 2 0 01-2 2h-5a2 2 0 01-2-2v-6a2 2 0 012-2h5a2 2 0 012 2z"/><path d="M1655 59h5a2 2 0 002-2v-6a2 2 0 00-2-2h-5a2 2 0 00-2 2v6a2 2 0 002 2zm-1-8a1 1 0 011-1h5a1 1 0 011 1v6a1 1 0 01-1 2h-5a1 1 0 01-1-2zM1577 58v7a2 2 0 01-2 1h-5a2 2 0 01-1-1v-7a2 2 0 011-1h5a2 2 0 012 1z"/><path d="M1570 66h5a2 2 0 002-1v-7a2 2 0 00-2-1h-5a2 2 0 00-1 1v7a2 2 0 001 1zm-1-8a1 1 0 011-1h5a1 1 0 012 1v7a1 1 0 01-2 1h-5a1 1 0 01-1-1zM1720 6h-30a2 2 0 00-1 2v36a2 2 0 001 2h30a2 2 0 002-2V8a2 2 0 00-2-2z"/><path d="M1722 44V8a2 2 0 00-2-2h-30a2 2 0 00-1 2v36a2 2 0 001 2h30a2 2 0 002-2zm0 0a1 1 0 01-2 2h-30a1 1 0 01-1-2V8a1 1 0 011-2h30a1 1 0 011 2zM1794 29h-9a2 2 0 00-2 2v10a2 2 0 002 2h9a2 2 0 001-2V31a2 2 0 00-1-2z"/><path d="M1795 41V31a2 2 0 00-1-2h-9a2 2 0 00-2 2v10a2 2 0 002 2h9a2 2 0 001-2zm0 0a1 1 0 01-1 2h-9a1 1 0 01-1-2V31a1 1 0 011-2h9a1 1 0 011 2zM1767 64h3a2 2 0 001-2v-3a2 2 0 00-1-2h-3a2 2 0 00-1 2v3a2 2 0 001 2z"/><path d="M1766 59v3a2 2 0 001 2h3a2 2 0 001-2v-3a2 2 0 00-1-2h-3a2 2 0 00-1 2zm0 0a1 1 0 011-1h3a1 1 0 011 1v3a1 1 0 01-1 2h-3a1 1 0 01-1-2zM1736 48v18a1 1 0 001 1h14a1 1 0 001-1V48a1 1 0 00-1-1h-14a1 1 0 00-1 1zM1705 27h-7a2 2 0 00-1 2v8a2 2 0 001 2h7a2 2 0 002-2v-8a2 2 0 00-2-2z"/><path d="M1707 37v-8a2 2 0 00-2-2h-7a2 2 0 00-1 2v8a2 2 0 001 2h7a2 2 0 002-2zm0 0a1 1 0 01-2 2h-7a1 1 0 01-1-2v-8a1 1 0 011-2h7a1 1 0 012 2zM1747 17h-11a2 2 0 00-1 2v13a2 2 0 001 2h11a2 2 0 002-2V19a2 2 0 00-2-2z"/><path d="M1749 32V19a2 2 0 00-2-2h-11a2 2 0 00-1 2v13a2 2 0 001 2h11a2 2 0 002-2zm-1 0a1 1 0 01-1 2h-11a1 1 0 01-1-2V19a1 1 0 011-2h11a1 1 0 011 2zM1706 51v6a2 2 0 002 2h5a2 2 0 001-2v-6a2 2 0 00-1-2h-5a2 2 0 00-2 2z"/><path d="M1714 57v-6a2 2 0 00-1-2h-5a2 2 0 00-2 2v6a2 2 0 002 2h5a2 2 0 001-2zm0 0a1 1 0 01-1 2h-5a1 1 0 01-2-2v-6a1 1 0 012-1h5a1 1 0 011 1zM1791 58v7a2 2 0 001 1h5a2 2 0 002-1v-7a2 2 0 00-2-1h-5a2 2 0 00-1 1z"/><path d="M1799 65v-7a2 2 0 00-2-1h-5a2 2 0 00-1 1v7a2 2 0 001 1h5a2 2 0 002-1zm-1 0a1 1 0 01-1 1h-5a1 1 0 01-1-1v-7a1 1 0 011-1h5a1 1 0 011 1zM1574 10h3a2 2 0 011 2v3a2 2 0 01-1 2h-3a2 2 0 01-1-2v-3a2 2 0 011-2z"/><path d="M1574 17h3a2 2 0 001-2v-3a2 2 0 00-1-2h-3a2 2 0 00-1 2v3a2 2 0 001 2zm-1-5a2 2 0 011-2h3a2 2 0 011 2v3a2 2 0 01-1 2h-3a2 2 0 01-1-2zM1432 70h-31a2 2 0 01-1-2V31a2 2 0 011-2h31a2 2 0 011 2v37a2 2 0 01-1 2z"/><path d="M1432 29h-31a2 2 0 00-1 2v37a2 2 0 001 2h31a2 2 0 001-2V31a2 2 0 00-1-2zm1 39a2 2 0 01-1 1h-31a2 2 0 01-1-1V31a2 2 0 011-2h31a2 2 0 011 2zM1507 46h-9a2 2 0 01-2-2V33a2 2 0 012-2h9a2 2 0 011 2v11a2 2 0 01-1 2z"/><path d="M1507 31h-9a2 2 0 00-2 2v11a2 2 0 002 2h9a2 2 0 001-2V33a2 2 0 00-1-2zm1 13a2 2 0 01-2 2h-8a2 2 0 01-2-2V33a2 2 0 012-1h9a2 2 0 011 1zM1480 10h2a2 2 0 011 2v3a2 2 0 01-1 2h-2a2 2 0 01-2-2v-3a2 2 0 012-2z"/><path d="M1480 17h2a2 2 0 001-2v-3a2 2 0 00-1-2h-2a2 2 0 00-2 2v3a2 2 0 002 2zm-2-5a2 2 0 012-1h2a2 2 0 011 1v3a2 2 0 01-1 2h-2a2 2 0 01-2-2zM1447 26V8a1 1 0 012-1h14a1 1 0 011 1v18a1 1 0 01-1 2h-14a1 1 0 01-2-2zM1417 48h-7a2 2 0 01-2-1v-9a2 2 0 012-2h7a2 2 0 011 2v9a2 2 0 01-1 1z"/><path d="M1417 36h-7a2 2 0 00-2 2v9a2 2 0 002 1h7a2 2 0 001-1v-9a2 2 0 00-1-2zm1 11a2 2 0 01-1 1h-7a2 2 0 01-2-1v-9a2 2 0 012-2h7a2 2 0 011 2zM1459 58h-11a2 2 0 01-1-2V43a2 2 0 011-2h11a2 2 0 012 2v13a2 2 0 01-2 2z"/><path d="M1459 41h-11a2 2 0 00-1 2v13a2 2 0 001 2h11a2 2 0 002-2V43a2 2 0 00-2-2zm2 15a2 2 0 01-2 2h-11a2 2 0 01-1-2V43a2 2 0 011-2h11a2 2 0 012 2zM1417 23v-6a2 2 0 012-2h5a2 2 0 011 2v6a2 2 0 01-1 2h-5a2 2 0 01-2-2z"/><path d="M1424 15h-5a2 2 0 00-2 2v6a2 2 0 002 2h5a2 2 0 001-2v-6a2 2 0 00-1-2zm1 8a2 2 0 01-1 2h-5a2 2 0 01-2-2v-6a2 2 0 012-2h5a2 2 0 011 2zM1503 16v-6a2 2 0 012-2h5a2 2 0 012 2v6a2 2 0 01-2 2h-5a2 2 0 01-2-2z"/><path d="M1510 8h-5a2 2 0 00-2 2v6a2 2 0 002 2h5a2 2 0 002-2v-6a2 2 0 00-2-2zm1 8a2 2 0 01-1 2h-5a2 2 0 01-1-2v-6a2 2 0 011-2h5a2 2 0 011 2zM1358 70h30a2 2 0 002-2V31a2 2 0 00-2-2h-30a2 2 0 00-2 2v37a2 2 0 002 2z"/><path d="M1356 31v37a2 2 0 002 2h30a2 2 0 002-2V31a2 2 0 00-2-2h-30a2 2 0 00-2 2zm0 0a2 2 0 012-2h30a2 2 0 011 2v37a2 2 0 01-1 1h-30a2 2 0 01-2-1zM1283 46h9a2 2 0 001-2V33a2 2 0 00-1-2h-9a2 2 0 00-2 2v11a2 2 0 002 2z"/><path d="M1281 33v11a2 2 0 002 2h9a2 2 0 001-2V33a2 2 0 00-1-2h-9a2 2 0 00-2 2zm0 0a2 2 0 012-1h9a2 2 0 011 1v11a2 2 0 01-1 2h-9a2 2 0 01-2-2zM1310 10h-3a2 2 0 00-1 2v3a2 2 0 001 2h3a2 2 0 001-2v-3a2 2 0 00-1-2z"/><path d="M1311 15v-3a2 2 0 00-1-2h-3a2 2 0 00-1 2v3a2 2 0 001 2h3a2 2 0 001-2zm0 0a2 2 0 01-1 2h-3a2 2 0 01-1-2v-3a2 2 0 011-1h3a2 2 0 011 1zM1342 26V8a1 1 0 00-1-1h-15a1 1 0 00-1 1v18a1 1 0 001 2h15a1 1 0 001-2zM1373 48h7a2 2 0 001-1v-9a2 2 0 00-1-2h-7a2 2 0 00-2 2v9a2 2 0 002 1z"/><path d="M1371 38v9a2 2 0 002 1h7a2 2 0 001-1v-9a2 2 0 00-1-2h-7a2 2 0 00-2 2zm0 0a2 2 0 012-2h7a2 2 0 011 2v9a2 2 0 01-1 1h-7a2 2 0 01-2-1zM1330 58h11a2 2 0 001-2V43a2 2 0 00-1-2h-11a2 2 0 00-1 2v13a2 2 0 001 2z"/><path d="M1329 43v13a2 2 0 001 2h11a2 2 0 001-2V43a2 2 0 00-1-2h-11a2 2 0 00-1 2zm0 0a2 2 0 011-2h11a2 2 0 011 2v13a2 2 0 01-1 2h-11a2 2 0 01-1-2zM1372 23v-6a2 2 0 00-2-2h-5a2 2 0 00-1 2v6a2 2 0 001 2h5a2 2 0 002-2z"/><path d="M1364 17v6a2 2 0 001 2h5a2 2 0 002-2v-6a2 2 0 00-2-2h-5a2 2 0 00-1 2zm0 0a2 2 0 011-2h5a2 2 0 012 2v6a2 2 0 01-2 2h-5a2 2 0 01-1-2zM1286 16v-6a2 2 0 00-2-2h-5a2 2 0 00-1 2v6a2 2 0 001 2h5a2 2 0 002-2z"/><path d="M1278 10v6a2 2 0 001 2h5a2 2 0 002-2v-6a2 2 0 00-2-2h-5a2 2 0 00-1 2zm0 0a2 2 0 011-2h5a2 2 0 012 2v6a2 2 0 01-2 2h-5a2 2 0 01-1-2zM979 64h-3a2 2 0 01-1-2v-2a2 2 0 011-2h3a2 2 0 011 2v2a2 2 0 01-1 2z"/><path d="M979 58h-3a2 2 0 00-1 2v2a2 2 0 001 2h3a2 2 0 001-2v-2a2 2 0 00-1-2zm1 4a1 1 0 01-1 2h-3a1 1 0 01-1-2v-2a1 1 0 011-2h3a1 1 0 011 2zM1119 6h30a2 2 0 011 2v36a2 2 0 01-1 2h-30a2 2 0 01-2-2V8a2 2 0 012-2z"/><path d="M1119 46h30a2 2 0 001-2V8a2 2 0 00-1-2h-30a2 2 0 00-2 2v36a2 2 0 002 2zm-2-38a1 1 0 012-2h30a1 1 0 011 2v36a1 1 0 01-1 2h-30a1 1 0 01-2-2zM1045 29h9a2 2 0 012 2v10a2 2 0 01-2 2h-9a2 2 0 01-1-2V31a2 2 0 011-2z"/><path d="M1045 43h9a2 2 0 002-2V31a2 2 0 00-2-2h-9a2 2 0 00-1 2v10a2 2 0 001 2zm-1-12a2 2 0 011-2h9a1 1 0 011 2v10a1 1 0 01-1 2h-9a1 1 0 01-1-2zM1072 64h-3a2 2 0 01-1-2v-3a2 2 0 011-2h3a2 2 0 011 2v3a2 2 0 01-1 2z"/><path d="M1072 57h-3a2 2 0 00-1 2v3a2 2 0 001 2h3a2 2 0 001-2v-3a2 2 0 00-1-2zm1 5a1 1 0 01-1 2h-3a1 1 0 01-1-2v-3a1 1 0 011-1h3a1 1 0 011 1zM1103 48v18a1 1 0 01-1 1h-14a1 1 0 01-1-1V48a1 1 0 011-1h14a1 1 0 011 1zM1134 27h7a2 2 0 011 2v8a2 2 0 01-1 2h-7a2 2 0 01-2-2v-8a2 2 0 012-2z"/><path d="M1134 39h7a2 2 0 001-2v-8a2 2 0 00-2-2h-6a2 2 0 00-2 2v8a2 2 0 002 2zm-2-10a1 1 0 012-2h7a1 1 0 011 2v8a1 1 0 01-1 2h-7a1 1 0 01-2-2zM1092 17h10a2 2 0 012 2v13a2 2 0 01-2 2h-10a2 2 0 01-2-2V19a2 2 0 012-2z"/><path d="M1092 34h10a2 2 0 002-2V19a2 2 0 00-2-2h-10a2 2 0 00-2 2v13a2 2 0 002 2zm-1-15a1 1 0 011-2h10a1 1 0 012 2v13a1 1 0 01-2 2h-10a1 1 0 01-1-2zM1133 51v6a2 2 0 01-2 2h-5a2 2 0 01-1-2v-6a2 2 0 011-2h5a2 2 0 012 2z"/><path d="M1126 59h5a2 2 0 002-2v-6a2 2 0 00-2-2h-5a2 2 0 00-1 2v6a2 2 0 001 2zm-1-8a1 1 0 011-1h5a1 1 0 012 1v6a1 1 0 01-2 2h-5a1 1 0 01-1-2zM1048 58v7a2 2 0 01-1 1h-5a2 2 0 01-2-1v-7a2 2 0 012-1h5a2 2 0 011 1z"/><path d="M1042 66h5a2 2 0 001-1v-7a2 2 0 00-1-1h-5a2 2 0 00-2 1v7a2 2 0 002 1zm-2-8a1 1 0 012-1h5a1 1 0 011 1v7a1 1 0 01-1 1h-5a1 1 0 01-2-1zM1192 6h-30a2 2 0 00-2 2v36a2 2 0 002 2h30a2 2 0 001-2V8a2 2 0 00-1-2zM1011 19h-22a1 1 0 00-1 1v27a1 1 0 001 1h22a1 1 0 001-1V20a1 1 0 00-1-1zM483 19h-22a1 1 0 00-1 1v27a1 1 0 001 1h22a1 1 0 001-1V20a1 1 0 00-1-1zM1554 19h-22a1 1 0 00-2 1v27a1 1 0 002 1h22a1 1 0 001-1V20a1 1 0 00-1-1z"/><path d="M1193 44V8a2 2 0 00-1-2h-30a2 2 0 00-2 2v36a2 2 0 002 2h30a2 2 0 001-2zm0 0a1 1 0 01-1 2h-30a1 1 0 01-2-2V8a1 1 0 012-2h30a1 1 0 011 2zM1265 29h-9a2 2 0 00-1 2v10a2 2 0 001 2h9a2 2 0 002-2V31a2 2 0 00-2-2z"/><path d="M1267 41V31a2 2 0 00-2-2h-9a2 2 0 00-1 2v10a2 2 0 001 2h9a2 2 0 002-2zm-1 0a1 1 0 01-1 2h-9a1 1 0 01-1-2V31a1 1 0 011-2h9a1 1 0 011 2zM1239 64h2a2 2 0 002-2v-3a2 2 0 00-2-2h-2a2 2 0 00-2 2v3a2 2 0 002 2z"/><path d="M1237 59v3a2 2 0 002 2h2a2 2 0 002-2v-3a2 2 0 00-2-2h-2a2 2 0 00-2 2zm0 0a1 1 0 012-1h2a1 1 0 011 1v3a1 1 0 01-1 2h-2a1 1 0 01-2-2zM1207 48v18a1 1 0 001 1h15a1 1 0 001-1V48a1 1 0 00-1-1h-15a1 1 0 00-1 1zM1177 27h-7a2 2 0 00-2 2v8a2 2 0 002 2h7a2 2 0 001-2v-8a2 2 0 00-1-2z"/><path d="M1178 37v-8a2 2 0 00-1-2h-7a2 2 0 00-2 2v8a2 2 0 002 2h7a2 2 0 001-2zm0 0a1 1 0 01-1 2h-7a1 1 0 01-1-2v-8a1 1 0 011-2h7a1 1 0 011 2zM1219 17h-11a2 2 0 00-2 2v13a2 2 0 002 2h11a2 2 0 001-2V19a2 2 0 00-1-2z"/><path d="M1220 32V19a2 2 0 00-1-2h-11a2 2 0 00-2 2v13a2 2 0 002 2h11a2 2 0 001-2zm0 0a1 1 0 01-1 2h-11a1 1 0 01-1-2V19a1 1 0 011-2h11a1 1 0 011 2zM1177 51v6a2 2 0 002 2h5a2 2 0 001-2v-6a2 2 0 00-1-2h-5a2 2 0 00-2 2z"/><path d="M1185 57v-6a2 2 0 00-1-2h-5a2 2 0 00-2 2v6a2 2 0 002 2h5a2 2 0 001-2zm0 0a1 1 0 01-1 2h-5a1 1 0 01-1-2v-6a1 1 0 011-1h5a1 1 0 011 1zM1262 58v7a2 2 0 002 1h5a2 2 0 001-1v-7a2 2 0 00-1-1h-5a2 2 0 00-2 1z"/><path d="M1270 65v-7a2 2 0 00-1-1h-5a2 2 0 00-2 1v7a2 2 0 002 1h5a2 2 0 001-1zm0 0a1 1 0 01-1 1h-5a1 1 0 01-2-1v-7a1 1 0 012-1h5a1 1 0 011 1zM1030 10h2a2 2 0 012 2v3a2 2 0 01-2 2h-2a2 2 0 01-2-2v-3a2 2 0 012-2z"/><path d="M1030 17h2a2 2 0 002-2v-3a2 2 0 00-2-2h-2a2 2 0 00-2 2v3a2 2 0 002 2zm-1-5a2 2 0 011-2h2a2 2 0 012 2v3a2 2 0 01-2 2h-2a2 2 0 01-1-2zM887 70h-30a2 2 0 01-2-2V31a2 2 0 012-2h30a2 2 0 012 2v37a2 2 0 01-2 2z"/><path d="M887 29h-30a2 2 0 00-2 2v37a2 2 0 002 2h30a2 2 0 002-2V31a2 2 0 00-2-2zm2 39a2 2 0 01-2 1h-30a2 2 0 01-1-1V31a2 2 0 011-2h30a2 2 0 012 2zM962 46h-9a2 2 0 01-1-2V33a2 2 0 011-2h9a2 2 0 012 2v11a2 2 0 01-2 2z"/><path d="M962 31h-9a2 2 0 00-1 2v11a2 2 0 001 2h9a2 2 0 002-2V33a2 2 0 00-2-2zm2 13a2 2 0 01-2 2h-9a2 2 0 01-1-2V33a2 2 0 011-1h9a2 2 0 011 1zM935 10h3a2 2 0 011 2v3a2 2 0 01-1 2h-3a2 2 0 01-1-2v-3a2 2 0 011-2z"/><path d="M935 17h3a2 2 0 001-2v-3a2 2 0 00-1-2h-3a2 2 0 00-1 2v3a2 2 0 001 2zm-1-5a2 2 0 011-1h3a2 2 0 011 1v3a2 2 0 01-1 2h-3a2 2 0 01-1-2zM903 26V8a1 1 0 011-1h15a1 1 0 011 1v18a1 1 0 01-1 2h-15a1 1 0 01-1-2zM872 48h-7a2 2 0 01-1-1v-9a2 2 0 011-2h7a2 2 0 012 2v9a2 2 0 01-2 1z"/><path d="M872 36h-7a2 2 0 00-1 2v9a2 2 0 001 1h7a2 2 0 002-1v-9a2 2 0 00-2-2zm2 11a2 2 0 01-2 1h-7a2 2 0 01-1-1v-9a2 2 0 011-2h7a2 2 0 012 2zM915 58h-11a2 2 0 01-2-2V43a2 2 0 012-2h11a2 2 0 011 2v13a2 2 0 01-1 2z"/><path d="M915 41h-11a2 2 0 00-2 2v13a2 2 0 002 2h11a2 2 0 001-2V43a2 2 0 00-1-2zm1 15a2 2 0 01-1 2h-11a2 2 0 01-1-2V43a2 2 0 011-2h11a2 2 0 011 2zM873 23v-6a2 2 0 011-2h6a2 2 0 011 2v6a2 2 0 01-1 2h-6a2 2 0 01-1-2z"/><path d="M880 15h-6a2 2 0 00-1 2v6a2 2 0 001 2h6a2 2 0 001-2v-6a2 2 0 00-1-2zm1 8a2 2 0 01-1 2h-6a2 2 0 01-1-2v-6a2 2 0 011-2h6a2 2 0 011 2zM959 16v-6a2 2 0 012-2h5a2 2 0 011 2v6a2 2 0 01-1 2h-5a2 2 0 01-2-2z"/><path d="M966 8h-5a2 2 0 00-2 2v6a2 2 0 002 2h5a2 2 0 001-2v-6a2 2 0 00-1-2zm1 8a2 2 0 01-1 2h-5a2 2 0 01-2-2v-6a2 2 0 012-2h5a2 2 0 011 2zM813 70h31a2 2 0 001-2V31a2 2 0 00-1-2h-31a2 2 0 00-1 2v37a2 2 0 001 2z"/><path d="M812 31v37a2 2 0 001 2h31a2 2 0 001-2V31a2 2 0 00-1-2h-31a2 2 0 00-1 2zm0 0a2 2 0 011-2h31a2 2 0 011 2v37a2 2 0 01-1 1h-31a2 2 0 01-1-1zM738 46h9a2 2 0 002-2V33a2 2 0 00-2-2h-9a2 2 0 00-1 2v11a2 2 0 001 2z"/><path d="M737 33v11a2 2 0 001 2h9a2 2 0 002-2V33a2 2 0 00-2-2h-9a2 2 0 00-1 2zm0 0a2 2 0 011-1h9a2 2 0 012 1v11a2 2 0 01-2 2h-9a2 2 0 01-1-2zM765 10h-2a2 2 0 00-2 2v3a2 2 0 002 2h2a2 2 0 002-2v-3a2 2 0 00-2-2z"/><path d="M767 15v-3a2 2 0 00-2-2h-2a2 2 0 00-2 2v3a2 2 0 002 2h2a2 2 0 002-2zm0 0a2 2 0 01-2 2h-2a2 2 0 01-1-2v-3a2 2 0 011-1h2a2 2 0 012 1zM798 26V8a1 1 0 00-2-1h-14a1 1 0 00-1 1v18a1 1 0 001 2h14a1 1 0 002-2zM828 48h7a2 2 0 002-1v-9a2 2 0 00-2-2h-7a2 2 0 00-1 2v9a2 2 0 001 1z"/><path d="M827 38v9a2 2 0 001 1h7a2 2 0 002-1v-9a2 2 0 00-2-2h-7a2 2 0 00-1 2zm0 0a2 2 0 011-2h7a2 2 0 012 2v9a2 2 0 01-2 1h-7a2 2 0 01-1-1zM786 58h11a2 2 0 001-2V43a2 2 0 00-1-2h-11a2 2 0 00-2 2v13a2 2 0 002 2z"/><path d="M784 43v13a2 2 0 002 2h11a2 2 0 001-2V43a2 2 0 00-1-2h-11a2 2 0 00-2 2zm0 0a2 2 0 012-2h11a2 2 0 011 2v13a2 2 0 01-1 2h-11a2 2 0 01-2-2zM828 23v-6a2 2 0 00-2-2h-5a2 2 0 00-2 2v6a2 2 0 002 2h5a2 2 0 002-2z"/><path d="M819 17v6a2 2 0 002 2h5a2 2 0 002-2v-6a2 2 0 00-2-2h-5a2 2 0 00-2 2zm1 0a2 2 0 011-2h5a2 2 0 011 2v6a2 2 0 01-1 2h-5a2 2 0 01-1-2zM741 16v-6a2 2 0 00-1-2h-5a2 2 0 00-2 2v6a2 2 0 002 2h5a2 2 0 001-2z"/><path d="M733 10v6a2 2 0 002 2h5a2 2 0 001-2v-6a2 2 0 00-1-2h-5a2 2 0 00-2 2zm0 0a2 2 0 012-2h5a2 2 0 011 2v6a2 2 0 01-1 2h-5a2 2 0 01-2-2zM434 64h-2a2 2 0 01-1-2v-2a2 2 0 011-2h2a2 2 0 012 2v2a2 2 0 01-2 2z"/><path d="M434 58h-2a2 2 0 00-1 2v2a2 2 0 001 2h2a2 2 0 002-2v-2a2 2 0 00-2-2zm2 4a1 1 0 01-2 2h-2a1 1 0 01-1-2v-2a1 1 0 011-2h2a1 1 0 012 2zM574 6h30a2 2 0 012 2v36a2 2 0 01-2 2h-30a2 2 0 01-1-2V8a2 2 0 011-2z"/><path d="M574 46h30a2 2 0 002-2V8a2 2 0 00-2-2h-30a2 2 0 00-1 2v36a2 2 0 001 2zm-1-38a1 1 0 011-2h30a1 1 0 012 2v36a1 1 0 01-2 2h-30a1 1 0 01-1-2zM501 29h9a2 2 0 011 2v10a2 2 0 01-1 2h-9a2 2 0 01-2-2V31a2 2 0 012-2z"/><path d="M501 43h9a2 2 0 001-2V31a2 2 0 00-1-2h-9a2 2 0 00-2 2v10a2 2 0 002 2zm-1-12a2 2 0 011-2h9a1 1 0 011 2v10a1 1 0 01-1 2h-9a1 1 0 01-1-2zM527 64h-2a2 2 0 01-1-2v-3a2 2 0 011-2h2a2 2 0 012 2v3a2 2 0 01-2 2z"/><path d="M527 57h-2a2 2 0 00-1 2v3a2 2 0 001 2h2a2 2 0 002-2v-3a2 2 0 00-2-2zm2 5a1 1 0 01-2 2h-2a1 1 0 01-1-2v-3a1 1 0 011-1h2a1 1 0 012 1zM559 48v18a1 1 0 01-1 1h-14a1 1 0 01-2-1V48a1 1 0 012-1h14a1 1 0 011 1zM589 27h7a2 2 0 012 2v8a2 2 0 01-2 2h-7a2 2 0 01-1-2v-8a2 2 0 011-2z"/><path d="M589 39h7a2 2 0 002-2v-8a2 2 0 00-2-2h-7a2 2 0 00-1 2v8a2 2 0 001 2zm-1-10a1 1 0 011-2h7a1 1 0 012 2v8a1 1 0 01-2 2h-7a1 1 0 01-1-2zM548 17h10a2 2 0 012 2v13a2 2 0 01-2 2h-10a2 2 0 01-2-2V19a2 2 0 012-2z"/><path d="M548 34h10a2 2 0 002-2V19a2 2 0 00-2-2h-10a2 2 0 00-2 2v13a2 2 0 002 2zm-2-15a1 1 0 012-2h10a1 1 0 012 2v13a1 1 0 01-2 2h-10a1 1 0 01-2-2zM589 51v6a2 2 0 01-2 2h-5a2 2 0 01-1-2v-6a2 2 0 011-2h5a2 2 0 012 2z"/><path d="M582 59h5a2 2 0 002-2v-6a2 2 0 00-2-2h-5a2 2 0 00-1 2v6a2 2 0 001 2zm-1-8a1 1 0 011-1h5a1 1 0 012 1v6a1 1 0 01-2 2h-5a1 1 0 01-1-2zM504 58v7a2 2 0 01-1 1h-5a2 2 0 01-2-1v-7a2 2 0 012-1h5a2 2 0 011 1z"/><path d="M498 66h5a2 2 0 001-1v-7a2 2 0 00-1-1h-5a2 2 0 00-2 1v7a2 2 0 002 1zm-2-8a1 1 0 012-1h5a1 1 0 011 1v7a1 1 0 01-1 1h-5a1 1 0 01-2-1zM647 6h-30a2 2 0 00-1 2v36a2 2 0 001 2h30a2 2 0 002-2V8a2 2 0 00-2-2z"/><path d="M649 44V8a2 2 0 00-2-2h-30a2 2 0 00-1 2v36a2 2 0 001 2h30a2 2 0 002-2zm0 0a1 1 0 01-2 2h-30a1 1 0 01-1-2V8a1 1 0 011-2h30a1 1 0 012 2zM721 29h-9a2 2 0 00-1 2v10a2 2 0 001 2h9a2 2 0 001-2V31a2 2 0 00-1-2z"/><path d="M722 41V31a2 2 0 00-1-2h-9a2 2 0 00-1 2v10a2 2 0 001 2h9a2 2 0 001-2zm0 0a1 1 0 01-1 2h-9a1 1 0 01-1-2V31a1 1 0 011-2h9a2 2 0 011 2zM694 64h3a2 2 0 001-2v-3a2 2 0 00-1-2h-3a2 2 0 00-1 2v3a2 2 0 001 2z"/><path d="M693 59v3a2 2 0 001 2h3a2 2 0 001-2v-3a2 2 0 00-1-2h-3a2 2 0 00-1 2zm0 0a1 1 0 011-1h3a1 1 0 011 1v3a1 1 0 01-1 2h-3a1 1 0 01-1-2zM663 48v18a1 1 0 001 1h14a1 1 0 001-1V48a1 1 0 00-1-1h-14a1 1 0 00-1 1zM633 27h-7a2 2 0 00-2 2v8a2 2 0 002 2h7a2 2 0 001-2v-8a2 2 0 00-1-2z"/><path d="M634 37v-8a2 2 0 00-2-2h-6a2 2 0 00-2 2v8a2 2 0 002 2h6a2 2 0 002-2zm0 0a1 1 0 01-2 2h-6a1 1 0 01-2-2v-8a1 1 0 012-2h7a1 1 0 011 2zM674 17h-10a2 2 0 00-2 2v13a2 2 0 002 2h10a2 2 0 002-2V19a2 2 0 00-2-2z"/><path d="M676 32V19a2 2 0 00-2-2h-10a2 2 0 00-2 2v13a2 2 0 002 2h10a2 2 0 002-2zm0 0a1 1 0 01-2 2h-10a1 1 0 01-2-2V19a1 1 0 012-2h10a1 1 0 012 2zM633 51v6a2 2 0 002 2h5a2 2 0 001-2v-6a2 2 0 00-1-2h-5a2 2 0 00-2 2z"/><path d="M641 57v-6a2 2 0 00-1-2h-5a2 2 0 00-2 2v6a2 2 0 002 2h5a2 2 0 001-2zm0 0a1 1 0 01-1 2h-5a1 1 0 01-2-2v-6a1 1 0 012-1h5a1 1 0 011 1zM718 58v7a2 2 0 001 1h5a2 2 0 002-1v-7a2 2 0 00-2-1h-5a2 2 0 00-1 1z"/><path d="M726 65v-7a2 2 0 00-2-1h-5a2 2 0 00-1 1v7a2 2 0 001 1h5a2 2 0 002-1zm0 0a1 1 0 01-2 1h-5a1 1 0 01-1-1v-7a1 1 0 011-1h5a1 1 0 012 1zM501 10h3a2 2 0 011 2v3a2 2 0 01-1 2h-3a2 2 0 01-1-2v-3a2 2 0 011-2z"/><path d="M501 17h3a2 2 0 001-2v-3a2 2 0 00-1-2h-3a2 2 0 00-1 2v3a2 2 0 001 2zm-1-5a2 2 0 011-2h3a2 2 0 011 2v3a2 2 0 01-1 2h-3a2 2 0 01-1-2zM359 70h-31a2 2 0 01-1-2V31a2 2 0 011-2h31a2 2 0 011 2v37a2 2 0 01-1 2z"/><path d="M359 29h-31a2 2 0 00-1 2v37a2 2 0 001 2h31a2 2 0 001-2V31a2 2 0 00-1-2zm1 39a2 2 0 01-1 1h-31a2 2 0 01-1-1V31a2 2 0 011-2h31a2 2 0 011 2zM434 46h-9a2 2 0 01-2-2V33a2 2 0 012-2h9a2 2 0 011 2v11a2 2 0 01-1 2z"/><path d="M434 31h-9a2 2 0 00-2 2v11a2 2 0 002 2h9a2 2 0 001-2V33a2 2 0 00-1-2zm1 13a2 2 0 01-1 2h-9a2 2 0 01-1-2V33a2 2 0 011-1h9a2 2 0 011 1zM407 10h2a2 2 0 012 2v3a2 2 0 01-2 2h-2a2 2 0 01-2-2v-3a2 2 0 012-2z"/><path d="M407 17h2a2 2 0 002-2v-3a2 2 0 00-2-2h-2a2 2 0 00-2 2v3a2 2 0 002 2zm-2-5a2 2 0 012-1h2a2 2 0 011 1v3a2 2 0 01-1 2h-2a2 2 0 01-2-2zM375 26V8a1 1 0 011-1h14a1 1 0 011 1v18a1 1 0 01-1 2h-14a1 1 0 01-1-2zM344 48h-7a2 2 0 01-2-1v-9a2 2 0 012-2h7a2 2 0 011 2v9a2 2 0 01-1 1z"/><path d="M344 36h-7a2 2 0 00-2 2v9a2 2 0 002 1h7a2 2 0 001-1v-9a2 2 0 00-1-2zm1 11a2 2 0 01-1 1h-7a2 2 0 01-2-1v-9a2 2 0 012-2h7a2 2 0 011 2zM386 58h-11a2 2 0 01-1-2V43a2 2 0 011-2h11a2 2 0 012 2v13a2 2 0 01-2 2z"/><path d="M386 41h-11a2 2 0 00-1 2v13a2 2 0 001 2h11a2 2 0 002-2V43a2 2 0 00-2-2zm2 15a2 2 0 01-2 2h-11a2 2 0 01-1-2V43a2 2 0 011-2h11a2 2 0 012 2zM344 23v-6a2 2 0 012-2h5a2 2 0 012 2v6a2 2 0 01-2 2h-5a2 2 0 01-2-2z"/><path d="M351 15h-5a2 2 0 00-2 2v6a2 2 0 002 2h5a2 2 0 002-2v-6a2 2 0 00-2-2zm1 8a2 2 0 01-1 2h-5a2 2 0 01-1-2v-6a2 2 0 011-2h5a2 2 0 011 2zM431 16v-6a2 2 0 011-2h5a2 2 0 012 2v6a2 2 0 01-2 2h-5a2 2 0 01-1-2z"/><path d="M437 8h-5a2 2 0 00-1 2v6a2 2 0 001 2h5a2 2 0 002-2v-6a2 2 0 00-2-2zm2 8a2 2 0 01-2 2h-5a2 2 0 01-1-2v-6a2 2 0 011-2h5a2 2 0 012 2zM285 70h30a2 2 0 002-2V31a2 2 0 00-2-2h-30a2 2 0 00-2 2v37a2 2 0 002 2z"/><path d="M283 31v37a2 2 0 002 2h30a2 2 0 002-2V31a2 2 0 00-2-2h-30a2 2 0 00-2 2zm0 0a2 2 0 012-2h30a2 2 0 011 2v37a2 2 0 01-1 1h-30a2 2 0 01-2-1zM210 46h9a2 2 0 001-2V33a2 2 0 00-1-2h-9a2 2 0 00-2 2v11a2 2 0 002 2z"/><path d="M208 33v11a2 2 0 002 2h9a2 2 0 001-2V33a2 2 0 00-1-2h-9a2 2 0 00-2 2zm0 0a2 2 0 012-1h9a2 2 0 011 1v11a2 2 0 01-1 2h-9a2 2 0 01-1-2zM237 10h-3a2 2 0 00-1 2v3a2 2 0 001 2h3a2 2 0 001-2v-3a2 2 0 00-1-2z"/><path d="M238 15v-3a2 2 0 00-1-2h-3a2 2 0 00-1 2v3a2 2 0 001 2h3a2 2 0 001-2zm0 0a2 2 0 01-1 2h-3a2 2 0 01-1-2v-3a2 2 0 011-1h3a2 2 0 011 1zM269 26V8a1 1 0 00-1-1h-15a1 1 0 00-1 1v18a1 1 0 001 2h15a1 1 0 001-2zM300 48h7a2 2 0 001-1v-9a2 2 0 00-1-2h-7a2 2 0 00-2 2v9a2 2 0 002 1z"/><path d="M298 38v9a2 2 0 002 1h7a2 2 0 001-1v-9a2 2 0 00-1-2h-7a2 2 0 00-2 2zm0 0a2 2 0 012-2h7a2 2 0 011 2v9a2 2 0 01-1 1h-7a2 2 0 01-2-1zM257 58h11a2 2 0 002-2V43a2 2 0 00-2-2h-11a2 2 0 00-1 2v13a2 2 0 001 2z"/><path d="M256 43v13a2 2 0 001 2h11a2 2 0 002-2V43a2 2 0 00-2-2h-11a2 2 0 00-1 2zm0 0a2 2 0 011-2h11a2 2 0 011 2v13a2 2 0 01-1 2h-11a2 2 0 01-1-2zM299 23v-6a2 2 0 00-1-2h-6a2 2 0 00-1 2v6a2 2 0 001 2h6a2 2 0 001-2z"/><path d="M291 17v6a2 2 0 001 2h6a2 2 0 001-2v-6a2 2 0 00-1-2h-6a2 2 0 00-1 2zm0 0a2 2 0 011-2h6a2 2 0 011 2v6a2 2 0 01-1 2h-6a2 2 0 01-1-2zM213 16v-6a2 2 0 00-2-2h-5a2 2 0 00-1 2v6a2 2 0 001 2h5a2 2 0 002-2z"/><path d="M205 10v6a2 2 0 001 2h5a2 2 0 002-2v-6a2 2 0 00-2-2h-5a2 2 0 00-1 2zm0 0a2 2 0 011-2h5a2 2 0 012 2v6a2 2 0 01-2 2h-5a2 2 0 01-1-2zM46 6h30a2 2 0 011 2v36a2 2 0 01-1 2H46a2 2 0 01-2-2V8a2 2 0 012-2z"/><path d="M46 46h30a2 2 0 001-2V8a2 2 0 00-1-2H46a2 2 0 00-2 2v36a2 2 0 002 2zM45 8a1 1 0 011-2h30a1 1 0 011 2v36a1 1 0 01-1 2H46a1 1 0 01-1-2zM31 48v18a1 1 0 01-2 1H15a1 1 0 01-1-1V48a1 1 0 011-1h14a1 1 0 012 1z"/><path d="M61 27h7a2 2 0 011 2v8a2 2 0 01-1 2h-7a2 2 0 01-2-2v-8a2 2 0 012-2z"/><path d="M61 39h7a2 2 0 001-2v-8a2 2 0 00-1-2h-7a2 2 0 00-2 2v8a2 2 0 002 2zm-2-10a1 1 0 012-2h7a1 1 0 011 2v8a1 1 0 01-1 2h-7a1 1 0 01-2-2zM19 17h11a2 2 0 011 2v13a2 2 0 01-1 2H19a2 2 0 01-2-2V19a2 2 0 012-2z"/><path d="M19 34h11a2 2 0 001-2V19a2 2 0 00-1-2H19a2 2 0 00-2 2v13a2 2 0 002 2zm-1-15a1 1 0 011-2h11a1 1 0 011 2v13a1 1 0 01-1 2H19a1 1 0 01-1-2zM60 51v6a2 2 0 01-1 2h-5a2 2 0 01-2-2v-6a2 2 0 012-2h5a2 2 0 011 2z"/><path d="M54 59h5a2 2 0 001-2v-6a2 2 0 00-1-2h-5a2 2 0 00-2 2v6a2 2 0 002 2zm-2-8a1 1 0 012-1h5a1 1 0 011 1v6a1 1 0 01-1 2h-5a1 1 0 01-2-2zM119 6H89a2 2 0 00-2 2v36a2 2 0 002 2h30a2 2 0 001-2V8a2 2 0 00-1-2z"/><path d="M120 44V8a2 2 0 00-1-2H89a2 2 0 00-2 2v36a2 2 0 002 2h30a2 2 0 001-2zm0 0a2 2 0 01-1 2H89a1 1 0 01-1-2V8a1 1 0 011-2h30a1 1 0 011 2zM192 29h-8a2 2 0 00-2 2v10a2 2 0 002 2h8a2 2 0 002-2V31a2 2 0 00-2-2z"/><path d="M194 41V31a2 2 0 00-2-2h-8a2 2 0 00-2 2v10a2 2 0 002 2h8a2 2 0 002-2zm0 0a1 1 0 01-2 2h-8a1 1 0 01-2-2V31a2 2 0 012-2h8a1 1 0 012 2zM166 64h2a2 2 0 002-2v-3a2 2 0 00-2-2h-2a2 2 0 00-2 2v3a2 2 0 002 2z"/><path d="M164 59v3a2 2 0 002 2h2a2 2 0 002-2v-3a2 2 0 00-2-2h-2a2 2 0 00-2 2zm0 0a1 1 0 012-1h2a1 1 0 011 1v3a1 1 0 01-1 2h-2a1 1 0 01-2-2zM134 48v18a1 1 0 001 1h15a1 1 0 001-1V48a1 1 0 00-1-1h-15a1 1 0 00-1 1zM104 27h-7a2 2 0 00-2 2v8a2 2 0 002 2h7a2 2 0 001-2v-8a2 2 0 00-1-2z"/><path d="M105 37v-8a2 2 0 00-1-2h-7a2 2 0 00-2 2v8a2 2 0 002 2h7a2 2 0 001-2zm0 0a1 1 0 01-1 2h-7a1 1 0 01-1-2v-8a1 1 0 011-2h7a1 1 0 011 2zM146 17h-11a2 2 0 00-1 2v13a2 2 0 001 2h11a2 2 0 001-2V19a2 2 0 00-1-2z"/><path d="M147 32V19a2 2 0 00-1-2h-11a2 2 0 00-1 2v13a2 2 0 001 2h11a2 2 0 001-2zm0 0a1 1 0 01-1 2h-11a1 1 0 01-1-2V19a1 1 0 011-2h11a1 1 0 011 2zM105 51v6a2 2 0 001 2h5a2 2 0 002-2v-6a2 2 0 00-2-2h-5a2 2 0 00-1 2z"/><path d="M113 57v-6a2 2 0 00-2-2h-5a2 2 0 00-2 2v6a2 2 0 002 2h5a2 2 0 002-2zm-1 0a1 1 0 01-1 2h-5a1 1 0 01-1-2v-6a1 1 0 011-1h5a1 1 0 011 1zM189 58v7a2 2 0 002 1h5a2 2 0 001-1v-7a2 2 0 00-1-1h-5a2 2 0 00-2 1z"/><path d="M197 65v-7a2 2 0 00-1-1h-5a2 2 0 00-2 1v7a2 2 0 002 1h5a2 2 0 001-1zm0 0a1 1 0 01-1 1h-5a1 1 0 01-2-1v-7a1 1 0 012-1h5a1 1 0 011 1zM4 6h2a2 2 0 012 2v2a2 2 0 01-2 2H4a2 2 0 01-2-2V8a2 2 0 012-2z"/><path d="M4 12h2a2 2 0 002-2V8a2 2 0 00-2-2H4a2 2 0 00-2 2v2a2 2 0 002 2zM2 8a1 1 0 012-2h2a1 1 0 011 2v2a1 1 0 01-1 2H4a1 1 0 01-2-2zM1938 30h-28V2h28zM1790 30h-28V2h28z"/></g></svg>