<svg xmlns:xlink="http://www.w3.org/1999/xlink" preserveAspectRatio="xMidYMax slice" xmlns="http://www.w3.org/2000/svg" viewBox="0 0 2001 50" width="4001"  height="99.97501249375311" ><g fill="#27222A"><circle cx="1940.3" cy="31.8" r="2.8"/><path d="M1981 31a2 2 0 102 2 2 2 0 00-2-2zM1950 41a2 2 0 102 2 2 2 0 00-2-2zM1939 21a3 3 0 10-3 3 3 3 0 003-3zM1904 15a3 3 0 103 3 3 3 0 00-3-3zM1991 49a4 4 0 10-4-4 4 4 0 004 4zm0-7a3 3 0 11-3 3 3 3 0 013-3zM1929 37a3 3 0 104 1 3 3 0 00-4-1zM1968 41a1 1 0 102 0 1 1 0 00-2 0zM1955 20a2 2 0 10-3-1 2 2 0 003 1zM1920 17a2 2 0 100 2 2 2 0 000-2zM1833 32a3 3 0 103 2 3 3 0 00-3-2zM1875 31a2 2 0 103 2 2 2 0 00-3-2z" fill-rule="evenodd"/><circle cx="1844.1" cy="43.2" r="2"/><path d="M1833 21a3 3 0 10-2 3 3 3 0 002-3zM1886 49a4 4 0 10-4-4 4 4 0 004 4zm0-7a3 3 0 11-3 3 3 3 0 013-3zM1823 37a3 3 0 104 1 3 3 0 00-4-1zM1862 41a1 1 0 102 0 1 1 0 00-2 0zM1849 20a2 2 0 10-2-1 2 2 0 002 1zM1815 17a2 2 0 10-1 2 2 2 0 001-2z" fill-rule="evenodd"/><circle cx="1799.6" cy="31.8" r="2.8"/><path d="M1798 21a3 3 0 10-3 3 3 3 0 003-3zM1763 15a3 3 0 103 3 3 3 0 00-3-3zM1788 37a3 3 0 104 1 3 3 0 00-4-1zM1779 17a2 2 0 100 2 2 2 0 000-2zM1692 32a3 3 0 103 2 3 3 0 00-3-2zM1734 31a2 2 0 103 2 2 2 0 00-3-2z" fill-rule="evenodd"/><circle cx="1703.3" cy="43.2" r="2"/><path d="M1693 21a3 3 0 10-3 3 3 3 0 003-3zM1745 49a4 4 0 10-4-4 4 4 0 004 4zm0-7a3 3 0 11-3 3 3 3 0 013-3zM1682 37a3 3 0 104 1 3 3 0 00-4-1zM1721 41a1 1 0 102 0 1 1 0 00-2 0zM1709 20a2 2 0 10-3-1 2 2 0 003 1zM1674 17a2 2 0 10-1 2 2 2 0 001-2zM1659 29a3 3 0 103 3 3 3 0 00-3-3zM1657 21a3 3 0 10-3 3 3 3 0 003-3zM1622 15a3 3 0 103 3 3 3 0 00-3-3zM1647 37a3 3 0 104 1 3 3 0 00-4-1zM1639 17a2 2 0 10-1 2 2 2 0 001-2zM1551 32a3 3 0 103 2 3 3 0 00-3-2zM1594 31a2 2 0 102 2 2 2 0 00-2-2zM1563 41a2 2 0 102 2 2 2 0 00-2-2zM1552 21a3 3 0 10-3 3 3 3 0 003-3zM1604 49a4 4 0 10-4-4 4 4 0 004 4zm0-7a3 3 0 11-3 3 3 3 0 013-3zM1542 37a3 3 0 104 1 3 3 0 00-4-1zM1581 41a1 1 0 102 0 1 1 0 00-2 0zM1568 20a2 2 0 10-3-1 2 2 0 003 1zM1533 17a2 2 0 100 2 2 2 0 000-2zM1518 29a3 3 0 103 3 3 3 0 00-3-3zM1517 21a3 3 0 10-3 3 3 3 0 003-3zM1481 15a3 3 0 103 3 3 3 0 00-3-3zM1506 37a3 3 0 104 1 3 3 0 00-4-1zM1498 17a2 2 0 10-1 2 2 2 0 001-2z" fill-rule="evenodd"/><circle cx="1410.6" cy="34.4" r="2.8"/><path d="M1453 31a2 2 0 102 2 2 2 0 00-2-2zM1422 41a2 2 0 102 2 2 2 0 00-2-2zM1411 21a3 3 0 10-3 3 3 3 0 003-3zM1464 49a4 4 0 10-5-4 4 4 0 005 4zm0-7a3 3 0 11-4 3 3 3 0 014-3zM1401 37a3 3 0 104 1 3 3 0 00-4-1zM1440 41a1 1 0 00-1 2 1 1 0 003-2 1 1 0 00-2 0zM1427 20a2 2 0 10-3-1 2 2 0 003 1zM1392 17a2 2 0 100 2 2 2 0 000-2zM1377 29a3 3 0 103 3 3 3 0 00-3-3zM1376 21a3 3 0 10-3 3 3 3 0 003-3zM1341 15a3 3 0 103 3 3 3 0 00-3-3zM1366 37a3 3 0 103 1 3 3 0 00-3-1zM1357 17a2 2 0 10-1 2 2 2 0 001-2z" fill-rule="evenodd"/><circle cx="1269.8" cy="34.4" r="2.8"/><path d="M1312 31a2 2 0 102 2 2 2 0 00-2-2zM1281 41a2 2 0 102 2 2 2 0 00-2-2zM1270 21a3 3 0 10-3 3 3 3 0 003-3zM1323 49a4 4 0 10-4-4 4 4 0 004 4zm0-7a3 3 0 11-3 3 3 3 0 013-3zM1260 37a3 3 0 104 1 3 3 0 00-4-1zM1299 41a1 1 0 102 0 1 1 0 00-2 0zM1286 20a2 2 0 10-2-1 2 2 0 002 1zM1252 17a2 2 0 10-1 2 2 2 0 001-2zM1236 29a3 3 0 103 3 3 3 0 00-3-3zM1235 21a3 3 0 10-3 3 3 3 0 003-3zM1200 15a3 3 0 103 3 3 3 0 00-3-3zM1225 37a3 3 0 104 1 3 3 0 00-4-1zM1216 17a2 2 0 100 2 2 2 0 000-2z" fill-rule="evenodd"/><circle cx="1129.1" cy="34.4" r="2.8"/><path d="M1171 31a2 2 0 103 2 2 2 0 00-3-2zM1140 41a2 2 0 102 2 2 2 0 00-2-2zM1130 21a3 3 0 10-3 3 3 3 0 003-3zM1182 49a4 4 0 10-4-4 4 4 0 004 4zm0-7a3 3 0 11-3 3 3 3 0 013-3zM1119 37a3 3 0 104 1 3 3 0 00-4-1zM1158 41a1 1 0 102 0 1 1 0 00-2 0zM1146 20a2 2 0 10-3-1 2 2 0 003 1zM1111 17a2 2 0 10-1 2 2 2 0 001-2z" fill-rule="evenodd"/><circle cx="1095.6" cy="31.8" r="2.8"/><path d="M1094 21a3 3 0 10-3 3 3 3 0 003-3zM1059 15a3 3 0 103 3 3 3 0 00-3-3zM1084 37a3 3 0 104 1 3 3 0 00-4-1zM1075 17a2 2 0 100 2 2 2 0 000-2zM988 32a3 3 0 103 2 3 3 0 00-3-2zM1031 31a2 2 0 102 2 2 2 0 00-2-2zM999 41a2 2 0 102 2 2 2 0 00-2-2zM989 21a3 3 0 10-3 3 3 3 0 003-3zM1041 49a4 4 0 10-4-4 4 4 0 004 4zm0-7a3 3 0 11-3 3 3 3 0 013-3zM979 37a3 3 0 103 1 3 3 0 00-3-1zM1017 41a1 1 0 102 0 1 1 0 00-2 0zM1005 20a2 2 0 10-3-1 2 2 0 003 1zM970 17a2 2 0 10-1 2 2 2 0 001-2z" fill-rule="evenodd"/><circle cx="954.9" cy="31.8" r="2.8"/><path d="M953 21a3 3 0 10-3 3 3 3 0 003-3zM918 15a3 3 0 103 3 3 3 0 00-3-3zM943 37a3 3 0 104 1 3 3 0 00-4-1zM935 17a2 2 0 10-1 2 2 2 0 001-2zM847 32a3 3 0 103 2 3 3 0 00-3-2zM890 31a2 2 0 102 2 2 2 0 00-2-2zM859 41a2 2 0 102 2 2 2 0 00-2-2zM848 21a3 3 0 10-3 3 3 3 0 003-3zM900 49a4 4 0 10-4-4 4 4 0 004 4zm0-7a3 3 0 11-3 3 3 3 0 013-3zM838 37a3 3 0 104 1 3 3 0 00-4-1zM877 41a1 1 0 102 0 1 1 0 00-2 0zM864 20a2 2 0 10-3-1 2 2 0 003 1zM829 17a2 2 0 100 2 2 2 0 000-2zM814 29a3 3 0 103 3 3 3 0 00-3-3zM813 21a3 3 0 10-3 3 3 3 0 003-3zM777 15a3 3 0 103 3 3 3 0 00-3-3zM802 37a3 3 0 104 1 3 3 0 00-4-1zM794 17a2 2 0 10-1 2 2 2 0 001-2z" fill-rule="evenodd"/><circle cx="706.7" cy="34.4" r="2.8"/><path d="M749 31a2 2 0 102 2 2 2 0 00-2-2z" fill-rule="evenodd"/><circle cx="717.8" cy="43.2" r="2"/><path d="M707 21a3 3 0 10-3 3 3 3 0 003-3zM760 49a4 4 0 10-5-4 4 4 0 005 4zm0-7a3 3 0 11-4 3 3 3 0 014-3zM697 37a3 3 0 104 1 3 3 0 00-4-1zM736 41a1 1 0 102 0 1 1 0 00-2 0zM723 20a2 2 0 10-3-1 2 2 0 003 1zM688 17a2 2 0 100 2 2 2 0 000-2zM673 29a3 3 0 103 3 3 3 0 00-3-3zM672 21a3 3 0 10-3 3 3 3 0 003-3zM637 15a3 3 0 103 3 3 3 0 00-3-3zM662 37a3 3 0 103 1 3 3 0 00-3-1zM653 17a2 2 0 10-1 2 2 2 0 001-2zM566 32a3 3 0 103 2 3 3 0 00-3-2zM608 31a2 2 0 102 2 2 2 0 00-2-2zM577 41a2 2 0 102 2 2 2 0 00-2-2zM566 21a3 3 0 10-3 3 3 3 0 003-3zM619 49a4 4 0 10-4-4 4 4 0 004 4zm0-7a3 3 0 11-3 3 3 3 0 013-3zM556 37a3 3 0 104 1 3 3 0 00-4-1zM595 41a1 1 0 102 0 1 1 0 00-2 0zM582 20a2 2 0 10-2-1 2 2 0 002 1zM548 17a2 2 0 10-1 2 2 2 0 001-2zM532 29a3 3 0 103 3 3 3 0 00-3-3zM531 21a3 3 0 10-3 3 3 3 0 003-3zM496 15a3 3 0 103 3 3 3 0 00-3-3zM521 37a3 3 0 104 1 3 3 0 00-4-1zM512 17a2 2 0 100 2 2 2 0 000-2zM425 32a3 3 0 103 2 3 3 0 00-3-2zM467 31a2 2 0 103 2 2 2 0 00-3-2z" fill-rule="evenodd"/><circle cx="436.2" cy="43.2" r="2"/><path d="M426 21a3 3 0 10-3 3 3 3 0 003-3zM478 49a4 4 0 10-4-4 4 4 0 004 4zm0-7a3 3 0 11-3 3 3 3 0 013-3zM415 37a3 3 0 104 1 3 3 0 00-4-1zM454 41a1 1 0 000 2 1 1 0 002-2 1 1 0 00-2 0zM442 20a2 2 0 10-3-1 2 2 0 003 1zM407 17a2 2 0 10-1 2 2 2 0 001-2z" fill-rule="evenodd"/><circle cx="391.7" cy="31.8" r="2.8"/><path d="M390 21a3 3 0 10-3 3 3 3 0 003-3zM355 15a3 3 0 103 3 3 3 0 00-3-3zM380 37a3 3 0 104 1 3 3 0 00-4-1zM372 17a2 2 0 10-1 2 2 2 0 001-2z" fill-rule="evenodd"/><circle cx="284.4" cy="34.4" r="2.8"/><path d="M327 31a2 2 0 102 2 2 2 0 00-2-2zM295 41a2 2 0 102 2 2 2 0 00-2-2zM285 21a3 3 0 10-3 3 3 3 0 003-3zM337 49a4 4 0 10-4-4 4 4 0 004 4zm0-7a3 3 0 11-3 3 3 3 0 013-3zM275 37a3 3 0 103 1 3 3 0 00-3-1zM314 41a1 1 0 101 0 1 1 0 00-1 0zM301 20a2 2 0 10-3-1 2 2 0 003 1zM266 17a2 2 0 10-1 2 2 2 0 001-2zM251 29a3 3 0 103 3 3 3 0 00-3-3zM249 21a3 3 0 10-3 3 3 3 0 003-3zM214 15a3 3 0 103 3 3 3 0 00-3-3zM239 37a3 3 0 104 1 3 3 0 00-4-1zM231 17a2 2 0 10-1 2 2 2 0 001-2zM144 32a3 3 0 102 2 3 3 0 00-2-2zM186 31a2 2 0 102 2 2 2 0 00-2-2zM155 41a2 2 0 102 2 2 2 0 00-2-2zM144 21a3 3 0 10-3 3 3 3 0 003-3zM196 49a4 4 0 10-4-4 4 4 0 004 4zm0-7a3 3 0 11-3 3 3 3 0 013-3zM134 37a3 3 0 104 1 3 3 0 00-4-1zM173 41a1 1 0 102 0 1 1 0 00-2 0zM160 20a2 2 0 10-3-1 2 2 0 003 1zM125 17a2 2 0 100 2 2 2 0 000-2zM110 29a3 3 0 103 3 3 3 0 00-3-3zM109 21a3 3 0 10-3 3 3 3 0 003-3zM73 15a3 3 0 103 3 3 3 0 00-3-3zM98 37a3 3 0 104 1 3 3 0 00-4-1zM90 17a2 2 0 10-1 2 2 2 0 001-2zM3 32a3 3 0 103 2 3 3 0 00-3-2zM45 31a2 2 0 102 2 2 2 0 00-2-2z" fill-rule="evenodd"/><circle cx="13.9" cy="43.2" r="2"/><path d="M0 24v-6a3 3 0 013 3 3 3 0 01-3 3zM56 49a4 4 0 10-4-4 4 4 0 004 4zm0-7a3 3 0 11-4 3 3 3 0 014-3zM32 41a1 1 0 102 0 1 1 0 00-2 0zM19 20a2 2 0 10-2-1 2 2 0 002 1z" fill-rule="evenodd"/><path d="M0 10V0h2001v21l-9 15a4 4 0 01-6-4l6-10a4 4 0 00-7-4l-11 19a4 4 0 01-7-4 4 4 0 00-6-4l-3 5a4 4 0 11-7-3l11-21a4 4 0 00-6-4l-1 2-6 10a4 4 0 01-7-4l3-5a4 4 0 00-2-4 4 4 0 00-5 2l-11 20a4 4 0 01-6 1 4 4 0 01-1-5l3-5a4 4 0 00-3-6 4 4 0 00-4 2 4 4 0 01-5 1 4 4 0 01-1-5 3 3 0 00-3-5 3 3 0 00-3 2l-9 14-8 15a4 4 0 01-7-4l6-10a4 4 0 00-6-4l-11 19a4 4 0 01-7-4 4 4 0 00-7-4l-3 5a4 4 0 11-7-3l12-21a4 4 0 00-6-4l-2 2-5 10a4 4 0 01-7-3l3-6a4 4 0 00-7-2l-12 20a4 4 0 11-6-4l3-5a4 4 0 10-7-4 4 4 0 01-1 1l-2 3a4 4 0 11-6-4l2-5a4 4 0 00-2-4 4 4 0 00-5 2l-11 20a4 4 0 01-5 1 4 4 0 01-2-5l3-5a4 4 0 00-3-6 4 4 0 00-3 2 4 4 0 01-6 1 4 4 0 01-1-5 3 3 0 00-3-5 3 3 0 00-3 2l-9 14-8 15a4 4 0 01-7-4l6-10a4 4 0 10-6-4l-11 19a4 4 0 01-7-4 4 4 0 00-7-4l-3 5a4 4 0 01-6-3l11-21a4 4 0 00-6-4l-1 2-6 10a4 4 0 11-7-3l3-6a4 4 0 00-7-2l-11 20a4 4 0 01-7-4l3-5a4 4 0 10-7-4 4 4 0 010 1l-2 3a4 4 0 11-7-3l3-6a4 4 0 00-3-4 4 4 0 00-5 2l-11 20a4 4 0 01-5 1 4 4 0 01-1-5l3-5a4 4 0 00-4-6 4 4 0 00-3 2 4 4 0 01-6 1 4 4 0 01-1-5 3 3 0 00-3-5 3 3 0 00-3 2l-8 14-9 15a4 4 0 01-6-4l6-10a4 4 0 00-7-4l-11 19a4 4 0 01-7-4 4 4 0 00-6-4l-3 5a4 4 0 11-7-3l11-21a4 4 0 00-6-4l-1 2-6 10a4 4 0 01-7-4l3-5a4 4 0 00-7-2l-11 20a4 4 0 01-7-4l3-5a4 4 0 10-7-4 4 4 0 010 1l-2 3a4 4 0 01-7-4l3-5a4 4 0 00-3-4 4 4 0 00-4 2l-11 20a4 4 0 01-6 1 4 4 0 01-1-5l3-5a4 4 0 00-4-6 4 4 0 00-3 2 4 4 0 01-6 1 4 4 0 01-1-5 3 3 0 00-3-5 3 3 0 00-2 2l-9 14-8 15a4 4 0 01-7-4l6-10a4 4 0 00-7-4l-11 19a4 4 0 01-6-4 4 4 0 00-7-4l-3 5a4 4 0 11-7-3l12-21a4 4 0 00-6-4l-2 2-6 10a4 4 0 11-6-4l2-5a4 4 0 00-7-2l-11 20a4 4 0 01-7-4l3-5a4 4 0 10-6-4 4 4 0 01-1 1l-2 3a4 4 0 11-7-4l3-5a4 4 0 00-2-4 4 4 0 00-5 2l-11 20a4 4 0 01-6 1 4 4 0 01-1-5l3-5a4 4 0 00-4-6 4 4 0 00-3 2 4 4 0 01-5 1 4 4 0 01-1-5 3 3 0 00-3-5 3 3 0 00-3 2l-9 14-8 15a4 4 0 01-7-4l6-10a4 4 0 00-7-4l-10 19a4 4 0 01-7-4 4 4 0 00-7-4l-3 5a4 4 0 11-7-3l12-21a4 4 0 00-6-4l-2 2-5 10a4 4 0 11-7-4l3-5a4 4 0 00-8-2l-11 20a4 4 0 01-6-4l3-5a4 4 0 10-7-4 4 4 0 01-1 1l-2 3a4 4 0 01-6-4l2-5a4 4 0 00-2-4 4 4 0 00-5 2l-11 20a4 4 0 01-5 1 4 4 0 01-2-5l3-5a4 4 0 00-3-6 4 4 0 00-4 2 4 4 0 01-5 1 4 4 0 01-1-5 3 3 0 00-3-5 3 3 0 00-3 2l-9 14-8 15a4 4 0 01-7-4l6-10a4 4 0 00-6-4l-11 19a4 4 0 01-7-4 4 4 0 00-7-4l-3 5a4 4 0 11-7-3l12-21a4 4 0 00-6-4l-2 2-5 10a4 4 0 01-7-3l3-6a4 4 0 00-7-2l-11 20a4 4 0 01-7-4l3-5a4 4 0 10-7-4 4 4 0 01-1 1l-1 3a4 4 0 11-7-4l2-5a4 4 0 00-2-4 4 4 0 00-5 2l-11 20a4 4 0 01-5 1 4 4 0 01-2-5l3-5a4 4 0 00-3-6 4 4 0 00-3 2 4 4 0 01-6 1 4 4 0 01-1-5 3 3 0 00-3-5 3 3 0 00-3 2l-8 14-9 15a4 4 0 01-6-4l5-10a4 4 0 00-6-4l-11 19a4 4 0 01-7-4 4 4 0 00-6-4l-4 5a4 4 0 11-6-3l11-21a4 4 0 00-6-4l-1 2-6 10a4 4 0 11-7-4l3-5a4 4 0 00-7-2l-11 20a4 4 0 01-7-4l3-5a4 4 0 10-7-4 4 4 0 010 1l-2 3a4 4 0 01-7-4l3-5a4 4 0 00-3-4 4 4 0 00-5 2l-11 20a4 4 0 01-5 1 4 4 0 01-1-5l3-5a4 4 0 00-4-6 4 4 0 00-3 2 4 4 0 01-6 1 4 4 0 01-1-5 3 3 0 00-3-5 3 3 0 00-3 2l-8 14-8 15a4 4 0 01-7-4l6-10a4 4 0 00-7-4l-11 19a4 4 0 01-7-4 4 4 0 00-6-4l-3 5a4 4 0 11-7-3l12-21a4 4 0 00-6-4l-2 2-6 10a4 4 0 01-6-4l2-5a4 4 0 00-7-2l-11 20a4 4 0 01-7-4l3-5a4 4 0 10-7-4 4 4 0 010 1l-2 3a4 4 0 11-7-3l3-6a4 4 0 00-3-4 4 4 0 00-4 2l-11 20a4 4 0 01-6 1 4 4 0 01-1-5l3-5a4 4 0 00-4-6 4 4 0 00-3 2 4 4 0 01-5 1 4 4 0 01-2-5 3 3 0 00-2-4h-1a3 3 0 00-2 1l-9 14-8 15a4 4 0 01-7-4l6-10a4 4 0 00-7-4l-11 19a4 4 0 01-6-4 4 4 0 00-7-4l-3 5a4 4 0 11-7-3l12-21a4 4 0 00-6-4l-2 2-5 10a4 4 0 11-7-3l2-6a4 4 0 00-7-2l-11 20a4 4 0 01-7-4l3-5a4 4 0 10-6-4 4 4 0 01-1 1l-2 3a4 4 0 11-7-4l3-5a4 4 0 00-2-4 4 4 0 00-5 2l-11 20a4 4 0 01-6 1 4 4 0 01-1-5l3-5a4 4 0 00-3-6 4 4 0 00-4 2 4 4 0 01-5 1 4 4 0 01-1-5 3 3 0 00-3-4 3 3 0 00-3 1l-9 14-8 15a4 4 0 01-7-4l6-10a4 4 0 00-7-4l-10 19a4 4 0 01-7-4 4 4 0 00-7-4l-3 5a4 4 0 11-7-3l12-21a4 4 0 00-6-4l-2 2-5 10a4 4 0 01-7-4l3-5a4 4 0 00-8-2l-11 20a4 4 0 01-6-4l3-5a4 4 0 10-7-4 4 4 0 01-1 1l-2 3a4 4 0 01-6-4l2-5a4 4 0 00-2-4 4 4 0 00-5 2l-11 20a4 4 0 01-5 1 4 4 0 01-2-5l3-5a4 4 0 00-3-6 4 4 0 00-3 2 4 4 0 01-6 1 4 4 0 01-1-5 3 3 0 00-3-4 3 3 0 00-3 1l-9 14-8 15a4 4 0 01-7-4l6-10a4 4 0 10-6-4l-11 19a4 4 0 01-7-4 4 4 0 00-7-4l-3 5a4 4 0 11-6-3l11-21a4 4 0 00-6-4l-1 2-6 10a4 4 0 11-7-3l3-6a4 4 0 00-7-2l-11 20a4 4 0 01-7-4l3-5a4 4 0 10-7-4 4 4 0 010 1l-2 3a4 4 0 11-7-4l2-5a4 4 0 00-2-4 4 4 0 00-5 2l-11 20a4 4 0 01-5 1 4 4 0 01-1-5l3-5a4 4 0 00-4-6 4 4 0 00-3 2 4 4 0 01-6 1 4 4 0 01-1-5 3 3 0 00-3-5 3 3 0 00-3 2l-8 14-9 15a4 4 0 01-6-4l6-10a4 4 0 10-7-4l-11 19a4 4 0 01-7-4 4 4 0 10-6-4l-4 5a4 4 0 11-6-3l11-21a4 4 0 00-6-4l-1 2-6 10a4 4 0 01-7-4l3-5a4 4 0 00-7-2l-11 20a4 4 0 01-7-4l3-5a4 4 0 10-7-4 4 4 0 010 1l-2 3a4 4 0 01-7-3l3-6a4 4 0 00-3-4 4 4 0 00-5 2l-11 20a4 4 0 01-5 1 4 4 0 01-1-5l3-5a4 4 0 00-4-6 4 4 0 00-3 2 4 4 0 01-6 1 4 4 0 01-1-5 3 3 0 00-3-4 3 3 0 00-2 1l-9 14-8 15a4 4 0 01-7-4l6-10a4 4 0 00-7-4l-11 19a4 4 0 01-6-4 4 4 0 00-7-4l-3 5a4 4 0 11-7-3l12-21a4 4 0 00-6-4l-2 2-6 10a4 4 0 01-6-4l2-5a4 4 0 00-7-2l-11 20a4 4 0 01-7-4l3-5a4 4 0 10-6-4 4 4 0 01-1 1l-2 3a4 4 0 11-7-4l3-5a4 4 0 00-3-4 4 4 0 00-4 2L97 27a4 4 0 01-6 1 4 4 0 01-1-5l3-5a4 4 0 00-4-6 4 4 0 00-3 2 4 4 0 01-5 1 4 4 0 01-2-5 3 3 0 00-2-4h-1a3 3 0 00-2 1l-9 14-8 15a4 4 0 01-7-4l6-10a4 4 0 00-7-4L38 37a4 4 0 01-4 1 4 4 0 01-1 0 4 4 0 01-1-5 4 4 0 00-7-4l-3 5a4 4 0 11-7-3l12-21a4 4 0 00-6-4l-2 2-5 10a4 4 0 11-7-4l2-5a4 4 0 00-7-2z" fill-rule="evenodd"/></g></svg>