<svg xmlns:xlink="http://www.w3.org/1999/xlink" xmlns="http://www.w3.org/2000/svg" viewBox="0 0 381 76.2" preserveAspectRatio="none" width="4000"  height="800" ><g fill="#27222A"><path d="M381 76.2l-12.7-8.47c-12.7-8.46-38.1-25.4-63.5-28.23-25.4-2.72-50.8 8.39-76.2 5.66-25.4-2.83-50.8-19.76-76.2-18.36-25.4 1.51-50.8 21.09-76.2 28.23-25.4 7.15-50.8 1.33-63.5-1.4L0 50.8V0h381z"/><path d="M381 67.73l-12.7-4.23c-12.7-4.23-38.1-12.7-63.5-12.7s-50.8 8.47-76.2 7.06c-25.4-1.5-50.8-12.62-76.2-11.3-25.4 1.33-50.8 15.62-76.2 21.17-25.4 5.56-50.8 2.91-63.5 1.4L0 67.74V0h381z" opacity=".66"/></g></svg>