<svg xmlns:xlink="http://www.w3.org/1999/xlink" preserveAspectRatio="none" xmlns="http://www.w3.org/2000/svg" viewBox="0 0 2000.4 69.7" width="4000.4"  height="139.3860627874425" ><g fill="#27222A"><path d="M66 61v9H0v-9a2 2 0 012-2h62a2 2 0 012 2z"/><path d="M131 61v9H66v-9a2 2 0 011-2h62a1 1 0 011 0 2 2 0 011 2z"/><path d="M194 61v9h-65v-9a2 2 0 011-2h62a1 1 0 011 0 2 2 0 011 2z"/><path d="M257 61v9h-66v-9a2 2 0 012-2h62a1 1 0 011 0 2 2 0 011 2z"/><path d="M320 61v9h-66v-9a2 2 0 012-2h62a1 1 0 011 0 2 2 0 011 2z"/><path d="M383 61v9h-66v-9a2 2 0 012-2h62a1 1 0 011 0 2 2 0 011 2z"/><path d="M446 61v9h-66v-9a2 2 0 012-2h62a2 2 0 012 2z"/><path d="M509 61v9h-66v-9a2 2 0 011-2 1 1 0 011 0h62a2 2 0 012 2z"/><path d="M572 61v9h-66v-9a2 2 0 011-2 1 1 0 011 0h62a2 2 0 012 2z"/><path d="M635 61v9h-66v-9a2 2 0 011-2 1 1 0 011 0h62a2 2 0 012 2z"/><path d="M698 61v9h-66v-9a2 2 0 011-2 1 1 0 011 0h62a2 2 0 012 2z"/><path d="M761 61v9h-66v-9a2 2 0 011-2 1 1 0 011 0h62a2 2 0 012 2z"/><path d="M823 61v9h-65v-9a2 2 0 011-2 1 1 0 011 0h62a2 2 0 011 2z"/><path d="M886 61v9h-65v-9a2 2 0 011-2 1 1 0 011 0h62a2 2 0 011 2z"/><path d="M949 61v9h-65v-9a2 2 0 011-2 1 1 0 011 0h62a2 2 0 011 2z"/><path d="M1012 61v9h-65v-9a2 2 0 011-2 1 1 0 011 0h62a2 2 0 011 2z"/><path d="M1075 61v9h-65v-9a2 2 0 011-2 1 1 0 011 0h62a2 2 0 011 2z"/><path d="M1138 61v9h-65v-9a2 2 0 011-2h62a1 1 0 011 0 2 2 0 011 2z"/><path d="M1201 61v9h-65v-9a2 2 0 011-2h62a1 1 0 011 0 2 2 0 011 2z"/><path d="M1264 61v9h-65v-9a2 2 0 011-2h62a1 1 0 011 0 2 2 0 011 2z"/><path d="M1327 61v9h-65v-9a2 2 0 011-2h62a1 1 0 011 0 2 2 0 011 2z"/><path d="M1390 61v9h-65v-9a2 2 0 011-2h62a1 1 0 011 0 2 2 0 011 2z"/><path d="M1453 61v9h-65v-9a2 2 0 011-2h62a1 1 0 011 0 2 2 0 011 2z"/><path d="M1516 61v9h-66v-9a2 2 0 012-2h62a1 1 0 011 0 2 2 0 011 2z"/><path d="M1579 61v9h-66v-9a2 2 0 012-2h62a1 1 0 011 0 2 2 0 011 2z"/><path d="M1642 61v9h-66v-9a2 2 0 012-2h62a1 1 0 011 0 2 2 0 011 2z"/><path d="M1705 61v9h-66v-9a2 2 0 012-2h62a1 1 0 011 0 2 2 0 011 2z"/><path d="M1768 61v9h-66v-9a2 2 0 012-2h62a2 2 0 012 2z"/><path d="M1831 61v9h-66v-9a2 2 0 011-2 1 1 0 011 0h62a2 2 0 012 2z"/><path d="M1894 61v9h-66v-9a2 2 0 011-2 1 1 0 011 0h62a2 2 0 012 2z"/><path d="M1957 61v9h-66v-9a2 2 0 011-2 1 1 0 011 0h62a2 2 0 012 2z"/><path d="M2000 59v11h-46v-9a2 2 0 011-2 1 1 0 011 0zM40 0h31a2 2 0 011 2v37a2 2 0 01-1 2H40a2 2 0 01-1-2V2a2 2 0 011-2z"/><path d="M40 41h31a2 2 0 001-2V2a2 2 0 00-1-2H40a2 2 0 00-1 2v37a2 2 0 001 2zM39 2a2 2 0 011-2h31a2 2 0 011 2v37a2 2 0 01-1 2H40a2 2 0 01-1-2zM24 43v18a1 1 0 01-1 2H9a1 1 0 01-2-2V43a1 1 0 012-1h14a1 1 0 011 1z"/><path d="M55 21h7a2 2 0 012 2v9a2 2 0 01-2 2h-7a2 2 0 01-1-2v-9a2 2 0 011-2z"/><path d="M55 34h7a2 2 0 002-2v-9a2 2 0 00-2-2h-7a2 2 0 00-1 2v9a2 2 0 001 2zm-1-11a2 2 0 011-1h7a2 2 0 012 1v9a2 2 0 01-2 1h-7a2 2 0 01-1-1zM13 12h11a2 2 0 011 2v13a2 2 0 01-1 2H13a2 2 0 01-2-2V14a2 2 0 012-2z"/><path d="M13 29h11a2 2 0 001-2V14a2 2 0 00-1-2H13a2 2 0 00-2 2v13a2 2 0 002 2zm-2-15a2 2 0 012-2h11a2 2 0 011 2v13a2 2 0 01-1 1H13a2 2 0 01-2-1zM55 46v7a2 2 0 01-2 2h-5a2 2 0 01-2-2v-7a2 2 0 012-2h5a2 2 0 012 2z"/><path d="M48 55h5a2 2 0 002-2v-7a2 2 0 00-2-2h-5a2 2 0 00-2 2v7a2 2 0 002 2zm-1-9a2 2 0 011-1h5a2 2 0 011 1v7a2 2 0 01-1 1h-5a2 2 0 01-1-1zM114 0H84a2 2 0 00-2 2v37a2 2 0 002 2h30a2 2 0 002-2V2a2 2 0 00-2-2z"/><path d="M116 39V2a2 2 0 00-2-2H84a2 2 0 00-2 2v37a2 2 0 002 2h30a2 2 0 002-2zm0 0a2 2 0 01-2 2H84a2 2 0 01-1-2V2a2 2 0 011-2h30a2 2 0 012 2zM189 24h-9a2 2 0 00-1 2v10a2 2 0 001 2h9a2 2 0 002-2V26a2 2 0 00-2-2z"/><path d="M191 36V26a2 2 0 00-2-2h-9a2 2 0 00-1 2v10a2 2 0 001 2h9a2 2 0 002-2zm-1 0a2 2 0 01-1 2h-9a2 2 0 01-1-2V26a2 2 0 011-2h9a2 2 0 011 2zM162 59h3a2 2 0 001-2v-3a2 2 0 00-1-1h-3a2 2 0 00-1 1v3a2 2 0 001 2z"/><path d="M161 54v3a2 2 0 001 2h3a2 2 0 001-2v-3a2 2 0 00-1-1h-3a2 2 0 00-1 1zm0 0a2 2 0 011-1h3a2 2 0 011 1v3a2 2 0 01-1 2h-3a2 2 0 01-1-2zM130 43v18a1 1 0 001 2h15a1 1 0 001-2V43a1 1 0 00-1-1h-15a1 1 0 00-1 1zM99 21h-7a2 2 0 00-1 2v9a2 2 0 001 2h7a2 2 0 002-2v-9a2 2 0 00-2-2z"/><path d="M101 32v-9a2 2 0 00-2-2h-7a2 2 0 00-1 2v9a2 2 0 001 2h7a2 2 0 002-2zm0 0a2 2 0 01-2 1h-7a2 2 0 01-1-1v-9a2 2 0 011-1h7a2 2 0 012 1zM142 12h-11a2 2 0 00-2 2v13a2 2 0 002 2h11a2 2 0 001-2V14a2 2 0 00-1-2z"/><path d="M143 27V14a2 2 0 00-1-2h-11a2 2 0 00-2 2v13a2 2 0 002 2h11a2 2 0 001-2zm0 0a2 2 0 01-1 1h-11a2 2 0 01-1-1V14a2 2 0 011-2h11a2 2 0 011 2zM100 46v7a2 2 0 001 2h5a2 2 0 002-2v-7a2 2 0 00-2-2h-5a2 2 0 00-1 2z"/><path d="M108 53v-7a2 2 0 00-2-2h-5a2 2 0 00-1 2v7a2 2 0 001 2h5a2 2 0 002-2zm0 0a2 2 0 01-2 1h-5a2 2 0 01-1-1v-7a2 2 0 011-1h5a2 2 0 012 1zM186 54v6a2 2 0 002 2h5a2 2 0 001-2v-6a2 2 0 00-1-2h-5a2 2 0 00-2 2z"/><path d="M194 60v-6a2 2 0 00-1-2h-5a2 2 0 00-2 2v6a2 2 0 002 2h5a2 2 0 001-2zm0 0a2 2 0 01-1 2h-5a2 2 0 01-2-2v-6a2 2 0 012-2h5a2 2 0 011 2zM493 5h2a2 2 0 012 2v3a2 2 0 01-2 2h-2a2 2 0 01-2-2V7a2 2 0 012-2z"/><path d="M493 12h2a2 2 0 002-2V7a2 2 0 00-2-2h-2a2 2 0 00-2 2v3a2 2 0 002 2zm-1-5a1 1 0 011-1h2a1 1 0 012 1v3a1 1 0 01-2 2h-2a1 1 0 01-1-2zM353 64h-30a2 2 0 01-1-2V26a2 2 0 011-2h30a2 2 0 012 2v36a2 2 0 01-2 2z"/><path d="M353 24h-30a2 2 0 00-1 2v36a2 2 0 001 2h30a2 2 0 002-2V26a2 2 0 00-2-2zm1 38a1 1 0 01-1 2h-30a1 1 0 01-1-2V26a1 1 0 011-2h30a1 1 0 011 2zM426 41h-8a2 2 0 01-2-2V28a2 2 0 012-2h8a2 2 0 012 2v11a2 2 0 01-2 2z"/><path d="M426 26h-8a2 2 0 00-2 2v11a2 2 0 002 2h8a2 2 0 002-2V28a2 2 0 00-2-2zm2 13a1 1 0 01-2 1h-8a2 2 0 01-2-1V28a1 1 0 012-1h8a1 1 0 012 1zM400 6h2a2 2 0 012 2v2a2 2 0 01-2 2h-2a2 2 0 01-2-2V8a2 2 0 012-2z"/><path d="M400 12h2a2 2 0 002-2V8a2 2 0 00-2-2h-2a2 2 0 00-2 2v2a2 2 0 002 2zm-1-4a1 1 0 011-2h2a1 1 0 012 2v2a1 1 0 01-2 2h-2a1 1 0 01-1-2zM368 21V4a1 1 0 012-2h14a1 1 0 011 2v17a1 1 0 01-1 2h-14a1 1 0 01-2-2zM338 43h-7a2 2 0 01-1-2v-8a2 2 0 011-2h7a2 2 0 012 2v8a2 2 0 01-2 2z"/><path d="M338 31h-7a2 2 0 00-1 2v8a2 2 0 001 2h7a2 2 0 002-2v-8a2 2 0 00-2-2zm2 10a1 1 0 01-2 2h-7a1 1 0 01-1-2v-8a1 1 0 011-2h7a1 1 0 012 2zM380 52h-11a2 2 0 01-1-1V38a2 2 0 011-2h11a2 2 0 012 2v13a2 2 0 01-2 1z"/><path d="M380 36h-11a2 2 0 00-1 2v13a2 2 0 001 1h11a2 2 0 002-1V38a2 2 0 00-2-2zm1 15a1 1 0 01-1 1h-11a1 1 0 01-1-1V38a1 1 0 011-2h11a1 1 0 011 2zM339 18v-6a2 2 0 011-2h5a2 2 0 012 2v6a2 2 0 01-2 2h-5a2 2 0 01-1-2z"/><path d="M345 10h-5a2 2 0 00-1 2v6a2 2 0 001 2h5a2 2 0 002-2v-6a2 2 0 00-2-2zm2 8a1 1 0 01-2 2h-5a1 1 0 01-1-2v-6a1 1 0 011-1h5a1 1 0 012 1zM423 11V5a2 2 0 012-2h5a2 2 0 012 2v6a2 2 0 01-2 2h-5a2 2 0 01-2-2z"/><path d="M430 3h-5a2 2 0 00-2 2v6a2 2 0 002 2h5a2 2 0 002-2V5a2 2 0 00-2-2zm1 8a1 1 0 01-1 2h-5a1 1 0 01-1-2V5a1 1 0 011-2h5a1 1 0 011 2zM280 64h30a2 2 0 002-2V26a2 2 0 00-2-2h-30a2 2 0 00-1 2v36a2 2 0 001 2z"/><path d="M279 26v36a2 2 0 001 2h30a2 2 0 002-2V26a2 2 0 00-2-2h-30a2 2 0 00-1 2zm0 0a1 1 0 011-2h30a1 1 0 011 2v36a1 1 0 01-1 2h-30a1 1 0 01-1-2zM207 41h8a2 2 0 002-2V28a2 2 0 00-2-2h-8a2 2 0 00-2 2v11a2 2 0 002 2z"/><path d="M205 28v11a2 2 0 002 2h8a2 2 0 002-2V28a2 2 0 00-2-2h-8a2 2 0 00-2 2zm0 0a1 1 0 012-1h8a1 1 0 012 1v11a1 1 0 01-2 1h-8a1 1 0 01-2-1zM233 6h-2a2 2 0 00-2 2v2a2 2 0 002 2h2a2 2 0 002-2V8a2 2 0 00-2-2z"/><path d="M235 10V8a2 2 0 00-2-2h-2a2 2 0 00-2 2v2a2 2 0 002 2h2a2 2 0 002-2zm0 0a1 1 0 01-2 2h-2a1 1 0 01-1-2V8a1 1 0 011-2h2a1 1 0 012 2zM265 21V4a1 1 0 00-1-2h-15a1 1 0 00-1 2v17a1 1 0 001 2h15a1 1 0 001-2zM295 43h7a2 2 0 001-2v-8a2 2 0 00-1-2h-7a2 2 0 00-2 2v8a2 2 0 002 2z"/><path d="M293 33v8a2 2 0 002 2h7a2 2 0 001-2v-8a2 2 0 00-1-2h-7a2 2 0 00-2 2zm1 0a1 1 0 011-2h7a1 1 0 011 2v8a1 1 0 01-1 2h-7a1 1 0 01-1-2zM253 52h11a2 2 0 001-1V38a2 2 0 00-1-2h-11a2 2 0 00-1 2v13a2 2 0 001 1z"/><path d="M252 38v13a2 2 0 001 1h11a2 2 0 001-1V38a2 2 0 00-1-2h-11a2 2 0 00-1 2zm0 0a1 1 0 011-2h11a1 1 0 011 2v13a1 1 0 01-1 1h-11a1 1 0 01-1-1zM294 18v-6a2 2 0 00-1-2h-5a2 2 0 00-2 2v6a2 2 0 002 2h5a2 2 0 001-2z"/><path d="M286 12v6a2 2 0 002 2h5a2 2 0 001-2v-6a2 2 0 00-1-2h-5a2 2 0 00-2 2zm1 0a1 1 0 011-1h5a1 1 0 011 1v6a1 1 0 01-1 2h-5a1 1 0 01-1-2zM210 11V5a2 2 0 00-2-2h-5a2 2 0 00-1 2v6a2 2 0 001 2h5a2 2 0 002-2z"/><path d="M202 5v6a2 2 0 001 2h5a2 2 0 002-2V5a2 2 0 00-2-2h-5a2 2 0 00-1 2zm0 0a1 1 0 011-2h5a1 1 0 012 2v6a1 1 0 01-2 2h-5a1 1 0 01-1-2zM426 60h-2a2 2 0 01-2-2v-3a2 2 0 012-2h2a2 2 0 012 2v3a2 2 0 01-2 2z"/><path d="M426 53h-2a2 2 0 00-2 2v3a2 2 0 002 2h2a2 2 0 002-2v-3a2 2 0 00-2-2zm1 5a2 2 0 01-1 1h-2a2 2 0 01-2-1v-3a2 2 0 012-2h2a2 2 0 011 2zM569 0h30a2 2 0 012 2v37a2 2 0 01-2 2h-30a2 2 0 01-2-2V2a2 2 0 012-2z"/><path d="M569 41h30a2 2 0 002-2V2a2 2 0 00-2-2h-30a2 2 0 00-2 2v37a2 2 0 002 2zm-2-39a2 2 0 012-2h30a2 2 0 011 2v37a2 2 0 01-1 2h-30a2 2 0 01-2-2zM494 24h9a2 2 0 011 2v10a2 2 0 01-1 2h-9a2 2 0 01-2-2V26a2 2 0 012-2z"/><path d="M494 38h9a2 2 0 001-2V26a2 2 0 00-1-2h-9a2 2 0 00-2 2v10a2 2 0 002 2zm-1-12a2 2 0 011-2h9a2 2 0 011 2v10a2 2 0 01-1 2h-9a2 2 0 01-1-2zM521 59h-3a2 2 0 01-1-2v-3a2 2 0 011-1h3a2 2 0 011 1v3a2 2 0 01-1 2z"/><path d="M521 53h-3a2 2 0 00-1 1v3a2 2 0 001 2h3a2 2 0 001-2v-3a2 2 0 00-1-1zm1 4a2 2 0 01-1 2h-3a2 2 0 01-1-2v-3a2 2 0 011-1h3a2 2 0 011 1zM553 43v18a1 1 0 01-1 2h-15a1 1 0 01-1-2V43a1 1 0 011-1h15a1 1 0 011 1zM584 21h7a2 2 0 011 2v9a2 2 0 01-1 2h-7a2 2 0 01-2-2v-9a2 2 0 012-2z"/><path d="M584 34h7a2 2 0 001-2v-9a2 2 0 00-1-2h-7a2 2 0 00-2 2v9a2 2 0 002 2zm-2-11a2 2 0 012-1h7a2 2 0 011 1v9a2 2 0 01-1 1h-7a2 2 0 01-2-1zM541 12h11a2 2 0 012 2v13a2 2 0 01-2 2h-11a2 2 0 01-1-2V14a2 2 0 011-2z"/><path d="M541 29h11a2 2 0 002-2V14a2 2 0 00-2-2h-11a2 2 0 00-1 2v13a2 2 0 001 2zm-1-15a2 2 0 011-2h11a2 2 0 011 2v13a2 2 0 01-1 1h-11a2 2 0 01-1-1zM583 46v7a2 2 0 01-1 2h-6a2 2 0 01-1-2v-7a2 2 0 011-2h6a2 2 0 011 2z"/><path d="M576 55h6a2 2 0 001-2v-7a2 2 0 00-1-2h-6a2 2 0 00-1 2v7a2 2 0 001 2zm-1-9a2 2 0 011-1h6a2 2 0 011 1v7a2 2 0 01-1 1h-6a2 2 0 01-1-1zM497 54v6a2 2 0 01-2 2h-5a2 2 0 01-1-2v-6a2 2 0 011-2h5a2 2 0 012 2z"/><path d="M490 62h5a2 2 0 002-2v-6a2 2 0 00-2-2h-5a2 2 0 00-1 2v6a2 2 0 001 2zm-1-8a2 2 0 011-2h5a2 2 0 012 2v6a2 2 0 01-2 2h-5a2 2 0 01-1-2zM643 0h-31a2 2 0 00-1 2v37a2 2 0 001 2h31a2 2 0 001-2V2a2 2 0 00-1-2z"/><path d="M644 39V2a2 2 0 00-1-2h-31a2 2 0 00-1 2v37a2 2 0 001 2h31a2 2 0 001-2zm0 0a2 2 0 01-1 2h-31a2 2 0 01-1-2V2a2 2 0 011-2h31a2 2 0 011 2zM718 24h-9a2 2 0 00-2 2v10a2 2 0 002 2h9a2 2 0 001-2V26a2 2 0 00-1-2z"/><path d="M719 36V26a2 2 0 00-1-2h-9a2 2 0 00-2 2v10a2 2 0 002 2h9a2 2 0 001-2zm0 0a2 2 0 01-1 2h-9a2 2 0 01-1-2V26a2 2 0 011-2h9a2 2 0 011 2zM691 59h2a2 2 0 002-2v-3a2 2 0 00-2-1h-2a2 2 0 00-2 1v3a2 2 0 002 2z"/><path d="M689 54v3a2 2 0 002 2h2a2 2 0 002-2v-3a2 2 0 00-2-1h-2a2 2 0 00-2 1zm0 0a2 2 0 012-1h2a2 2 0 011 1v3a2 2 0 01-1 2h-2a2 2 0 01-2-2zM659 43v18a1 1 0 001 2h14a1 1 0 001-2V43a1 1 0 00-1-1h-14a1 1 0 00-1 1zM628 21h-7a2 2 0 00-2 2v9a2 2 0 002 2h7a2 2 0 001-2v-9a2 2 0 00-1-2z"/><path d="M629 32v-9a2 2 0 00-1-2h-7a2 2 0 00-2 2v9a2 2 0 002 2h7a2 2 0 001-2zm0 0a2 2 0 01-1 1h-7a2 2 0 01-2-1v-9a2 2 0 012-1h7a2 2 0 011 1zM670 12h-11a2 2 0 00-1 2v13a2 2 0 001 2h11a2 2 0 002-2V14a2 2 0 00-2-2z"/><path d="M672 27V14a2 2 0 00-2-2h-11a2 2 0 00-1 2v13a2 2 0 001 2h11a2 2 0 002-2zm0 0a2 2 0 01-2 1h-11a2 2 0 01-1-1V14a2 2 0 011-2h11a2 2 0 012 2zM628 46v7a2 2 0 002 2h5a2 2 0 002-2v-7a2 2 0 00-2-2h-5a2 2 0 00-2 2z"/><path d="M637 53v-7a2 2 0 00-2-2h-5a2 2 0 00-2 2v7a2 2 0 002 2h5a2 2 0 002-2zm-1 0a2 2 0 01-1 1h-5a2 2 0 01-1-1v-7a2 2 0 011-1h5a2 2 0 011 1zM715 54v6a2 2 0 001 2h5a2 2 0 002-2v-6a2 2 0 00-2-2h-5a2 2 0 00-1 2z"/><path d="M723 60v-6a2 2 0 00-2-2h-5a2 2 0 00-1 2v6a2 2 0 001 2h5a2 2 0 002-2zm0 0a2 2 0 01-2 2h-5a2 2 0 01-1-2v-6a2 2 0 011-2h5a2 2 0 012 2zM1022 5h2a2 2 0 011 2v3a2 2 0 01-1 2h-2a2 2 0 01-2-2V7a2 2 0 012-2z"/><path d="M1022 12h2a2 2 0 001-2V7a2 2 0 00-1-2h-2a2 2 0 00-2 2v3a2 2 0 002 2zm-2-5a1 1 0 012-1h2a1 1 0 011 1v3a1 1 0 01-1 2h-2a1 1 0 01-2-2zM882 64h-30a2 2 0 01-2-2V26a2 2 0 012-2h30a2 2 0 011 2v36a2 2 0 01-1 2z"/><path d="M882 24h-30a2 2 0 00-2 2v36a2 2 0 002 2h30a2 2 0 001-2V26a2 2 0 00-1-2zm1 38a1 1 0 01-1 2h-30a1 1 0 01-2-2V26a1 1 0 012-2h30a1 1 0 011 2zM955 41h-9a2 2 0 01-1-2V28a2 2 0 011-2h9a2 2 0 012 2v11a2 2 0 01-2 2z"/><path d="M955 26h-9a2 2 0 00-1 2v11a2 2 0 001 2h9a2 2 0 002-2V28a2 2 0 00-2-2zm1 13a2 2 0 01-1 1h-9a1 1 0 01-1-1V28a1 1 0 011-1h9a1 1 0 011 1zM929 6h2a2 2 0 011 2v2a2 2 0 01-1 2h-2a2 2 0 01-2-2V8a2 2 0 012-2z"/><path d="M929 12h2a2 2 0 001-2V8a2 2 0 00-1-2h-2a2 2 0 00-2 2v2a2 2 0 002 2zm-2-4a1 1 0 012-2h2a1 1 0 011 2v2a1 1 0 01-1 2h-2a1 1 0 01-2-2zM897 21V4a1 1 0 011-2h15a1 1 0 011 2v17a1 1 0 01-1 2h-15a1 1 0 01-1-2zM867 43h-7a2 2 0 01-2-2v-8a2 2 0 012-2h7a2 2 0 011 2v8a2 2 0 01-1 2z"/><path d="M867 31h-7a2 2 0 00-2 2v8a2 2 0 002 2h7a2 2 0 001-2v-8a2 2 0 00-1-2zm1 10a1 1 0 01-1 2h-7a1 1 0 01-1-2v-8a1 1 0 011-2h7a1 1 0 011 2zM909 52h-11a2 2 0 01-2-1V38a2 2 0 012-2h11a2 2 0 011 2v13a2 2 0 01-1 1z"/><path d="M909 36h-11a2 2 0 00-2 2v13a2 2 0 002 1h11a2 2 0 001-1V38a2 2 0 00-1-2zm1 15a1 1 0 01-1 1h-11a1 1 0 01-1-1V38a1 1 0 011-2h11a1 1 0 011 2zM867 18v-6a2 2 0 012-2h5a2 2 0 011 2v6a2 2 0 01-1 2h-5a2 2 0 01-2-2z"/><path d="M874 10h-5a2 2 0 00-2 2v6a2 2 0 002 2h5a2 2 0 001-2v-6a2 2 0 00-1-2zm1 8a1 1 0 01-1 2h-5a1 1 0 01-1-2v-6a1 1 0 011-1h5a1 1 0 011 1zM952 11V5a2 2 0 012-2h5a2 2 0 011 2v6a2 2 0 01-1 2h-5a2 2 0 01-2-2z"/><path d="M959 3h-6a2 2 0 00-1 2v6a2 2 0 002 2h5a2 2 0 001-2V5a2 2 0 00-1-2zm1 8a1 1 0 01-1 2h-6a1 1 0 01-1-2V5a1 1 0 011-2h6a1 1 0 011 2zM809 64h30a2 2 0 001-2V26a2 2 0 00-1-2h-30a2 2 0 00-2 2v36a2 2 0 002 2zM989 51h22a1 1 0 001-2V23a1 1 0 00-1-2h-22a1 1 0 00-1 2v26a1 1 0 001 2zM1517 51h22a1 1 0 001-2V23a1 1 0 00-1-2h-22a1 1 0 00-1 2v26a1 1 0 001 2zM447 51h22a1 1 0 001-2V23a1 1 0 00-1-2h-22a1 1 0 00-1 2v26a1 1 0 001 2z"/><path d="M807 26v36a2 2 0 002 2h30a2 2 0 001-2V26a2 2 0 00-1-2h-30a2 2 0 00-2 2zm0 0a1 1 0 012-2h30a1 1 0 011 2v36a1 1 0 01-1 2h-30a1 1 0 01-2-2zM735 41h9a2 2 0 001-2V28a2 2 0 00-1-2h-9a2 2 0 00-1 2v11a2 2 0 001 2z"/><path d="M734 28v11a2 2 0 001 2h9a2 2 0 001-2V28a2 2 0 00-1-2h-9a2 2 0 00-1 2zm0 0a1 1 0 011-1h9a1 1 0 011 1v11a1 1 0 01-1 1h-9a1 1 0 01-1-1zM762 6h-3a2 2 0 00-1 2v2a2 2 0 001 2h3a2 2 0 001-2V8a2 2 0 00-1-2z"/><path d="M763 10V8a2 2 0 00-1-2h-3a2 2 0 00-1 2v2a2 2 0 001 2h3a2 2 0 001-2zm0 0a1 1 0 01-1 2h-3a1 1 0 01-1-2V8a1 1 0 011-2h3a1 1 0 011 2zM793 21V4a1 1 0 00-1-2h-14a1 1 0 00-1 2v17a1 1 0 001 2h14a1 1 0 001-2zM824 43h6a2 2 0 002-2v-8a2 2 0 00-2-2h-6a2 2 0 00-2 2v8a2 2 0 002 2z"/><path d="M822 33v8a2 2 0 002 2h6a2 2 0 002-2v-8a2 2 0 00-2-2h-6a2 2 0 00-2 2zm0 0a1 1 0 012-2h6a1 1 0 012 2v8a1 1 0 01-2 2h-6a1 1 0 01-2-2zM782 52h10a2 2 0 002-1V38a2 2 0 00-2-2h-10a2 2 0 00-2 2v13a2 2 0 002 1z"/><path d="M780 38v13a2 2 0 002 1h10a2 2 0 002-1V38a2 2 0 00-2-2h-10a2 2 0 00-2 2zm0 0a1 1 0 012-2h10a1 1 0 012 2v13a1 1 0 01-2 1h-10a1 1 0 01-2-1zM823 18v-6a2 2 0 00-2-2h-5a2 2 0 00-1 2v6a2 2 0 001 2h5a2 2 0 002-2z"/><path d="M815 12v6a2 2 0 001 2h5a2 2 0 002-2v-6a2 2 0 00-2-2h-5a2 2 0 00-1 2zm0 0a1 1 0 011-1h5a1 1 0 012 1v6a1 1 0 01-2 2h-5a1 1 0 01-1-2zM738 11V5a2 2 0 00-1-2h-5a2 2 0 00-2 2v6a2 2 0 002 2h5a2 2 0 001-2z"/><path d="M730 5v6a2 2 0 002 2h5a2 2 0 001-2V5a2 2 0 00-1-2h-5a2 2 0 00-2 2zm0 0a1 1 0 012-2h5a1 1 0 011 2v6a1 1 0 01-1 2h-5a1 1 0 01-2-2zM970 60h-2a2 2 0 01-2-2v-3a2 2 0 012-2h2a2 2 0 012 2v3a2 2 0 01-2 2z"/><path d="M970 53h-2a2 2 0 00-2 2v3a2 2 0 002 2h2a2 2 0 002-2v-3a2 2 0 00-2-2zm2 5a2 2 0 01-2 1h-2a2 2 0 01-1-1v-3a2 2 0 011-2h2a2 2 0 012 2zM1113 0h30a2 2 0 012 2v37a2 2 0 01-2 2h-30a2 2 0 01-2-2V2a2 2 0 012-2z"/><path d="M1113 41h30a2 2 0 002-2V2a2 2 0 00-2-2h-30a2 2 0 00-2 2v37a2 2 0 002 2zm-1-39a2 2 0 011-2h30a2 2 0 012 2v37a2 2 0 01-2 2h-30a2 2 0 01-1-2zM1038 24h9a2 2 0 012 2v10a2 2 0 01-2 2h-9a2 2 0 01-1-2V26a2 2 0 011-2z"/><path d="M1038 38h9a2 2 0 002-2V26a2 2 0 00-2-2h-9a2 2 0 00-1 2v10a2 2 0 001 2zm-1-12a2 2 0 011-2h9a2 2 0 011 2v10a2 2 0 01-1 2h-9a2 2 0 01-1-2zM1065 59h-2a2 2 0 01-2-2v-3a2 2 0 012-1h2a2 2 0 012 1v3a2 2 0 01-2 2z"/><path d="M1065 53h-2a2 2 0 00-2 1v3a2 2 0 002 2h2a2 2 0 002-2v-3a2 2 0 00-2-1zm1 4a2 2 0 01-1 2h-2a2 2 0 01-2-2v-3a2 2 0 012-1h2a2 2 0 011 1zM1097 43v18a1 1 0 01-1 2h-15a1 1 0 01-1-2V43a1 1 0 011-1h15a1 1 0 011 1zM1128 21h7a2 2 0 012 2v9a2 2 0 01-2 2h-7a2 2 0 01-1-2v-9a2 2 0 011-2z"/><path d="M1128 34h7a2 2 0 002-2v-9a2 2 0 00-2-2h-7a2 2 0 00-1 2v9a2 2 0 001 2zm-1-11a2 2 0 011-1h7a2 2 0 011 1v9a2 2 0 01-1 1h-7a2 2 0 01-1-1zM1086 12h10a2 2 0 012 2v13a2 2 0 01-2 2h-10a2 2 0 01-2-2V14a2 2 0 012-2z"/><path d="M1086 29h10a2 2 0 002-2V14a2 2 0 00-2-2h-10a2 2 0 00-2 2v13a2 2 0 002 2zm-2-15a2 2 0 012-2h10a2 2 0 012 2v13a2 2 0 01-2 1h-10a2 2 0 01-2-1zM1127 46v7a2 2 0 01-1 2h-5a2 2 0 01-2-2v-7a2 2 0 012-2h5a2 2 0 011 2z"/><path d="M1121 55h5a2 2 0 001-2v-7a2 2 0 00-1-2h-5a2 2 0 00-2 2v7a2 2 0 002 2zm-2-9a2 2 0 012-1h5a2 2 0 011 1v7a2 2 0 01-1 1h-5a2 2 0 01-2-1zM1041 54v6a2 2 0 01-1 2h-5a2 2 0 01-2-2v-6a2 2 0 012-2h5a2 2 0 011 2z"/><path d="M1035 62h5a2 2 0 001-2v-6a2 2 0 00-1-2h-5a2 2 0 00-2 2v6a2 2 0 002 2zm-2-8a2 2 0 012-2h5a2 2 0 011 2v6a2 2 0 01-1 2h-5a2 2 0 01-2-2zM1187 0h-30a2 2 0 00-2 2v37a2 2 0 002 2h30a2 2 0 002-2V2a2 2 0 00-2-2z"/><path d="M1189 39V2a2 2 0 00-2-2h-30a2 2 0 00-2 2v37a2 2 0 002 2h30a2 2 0 002-2zm0 0a2 2 0 01-2 2h-30a2 2 0 01-2-2V2a2 2 0 012-2h30a2 2 0 012 2zM1262 24h-9a2 2 0 00-1 2v10a2 2 0 001 2h9a2 2 0 002-2V26a2 2 0 00-2-2z"/><path d="M1264 36V26a2 2 0 00-2-2h-9a2 2 0 00-1 2v10a2 2 0 001 2h9a2 2 0 002-2zm-1 0a2 2 0 01-1 2h-9a2 2 0 01-1-2V26a2 2 0 011-2h9a2 2 0 011 2zM1235 59h2a2 2 0 002-2v-3a2 2 0 00-2-1h-2a2 2 0 00-2 1v3a2 2 0 002 2z"/><path d="M1233 54v3a2 2 0 002 2h2a2 2 0 002-2v-3a2 2 0 00-2-1h-2a2 2 0 00-2 1zm1 0a2 2 0 011-1h2a2 2 0 012 1v3a2 2 0 01-2 2h-2a2 2 0 01-1-2zM1203 43v18a1 1 0 001 2h15a1 1 0 001-2V43a1 1 0 00-1-1h-15a1 1 0 00-1 1zM1172 21h-7a2 2 0 00-1 2v9a2 2 0 001 2h7a2 2 0 002-2v-9a2 2 0 00-2-2z"/><path d="M1174 32v-9a2 2 0 00-2-2h-7a2 2 0 00-1 2v9a2 2 0 001 2h7a2 2 0 002-2zm-1 0a2 2 0 01-1 1h-7a2 2 0 01-1-1v-9a2 2 0 011-1h7a2 2 0 011 1zM1215 12h-11a2 2 0 00-2 2v13a2 2 0 002 2h11a2 2 0 001-2V14a2 2 0 00-1-2z"/><path d="M1216 27V14a2 2 0 00-1-2h-11a2 2 0 00-2 2v13a2 2 0 002 2h11a2 2 0 001-2zm0 0a2 2 0 01-1 1h-11a2 2 0 01-2-1V14a2 2 0 012-2h11a2 2 0 011 2zM1173 46v7a2 2 0 001 2h5a2 2 0 002-2v-7a2 2 0 00-2-2h-5a2 2 0 00-1 2z"/><path d="M1181 53v-7a2 2 0 00-2-2h-5a2 2 0 00-1 2v7a2 2 0 001 2h5a2 2 0 002-2zm0 0a2 2 0 01-2 1h-5a2 2 0 01-1-1v-7a2 2 0 011-1h5a2 2 0 012 1zM1259 54v6a2 2 0 001 2h6a2 2 0 001-2v-6a2 2 0 00-1-2h-6a2 2 0 00-1 2z"/><path d="M1267 60v-6a2 2 0 00-1-2h-6a2 2 0 00-1 2v6a2 2 0 001 2h6a2 2 0 001-2zm0 0a2 2 0 01-1 2h-6a2 2 0 01-1-2v-6a2 2 0 011-2h6a2 2 0 011 2zM1566 5h2a2 2 0 012 2v3a2 2 0 01-2 2h-2a2 2 0 01-2-2V7a2 2 0 012-2z"/><path d="M1566 12h2a2 2 0 002-2V7a2 2 0 00-2-2h-2a2 2 0 00-2 2v3a2 2 0 002 2zm-1-5a1 1 0 011-1h2a1 1 0 012 1v3a1 1 0 01-2 2h-2a1 1 0 01-1-2zM1426 64h-30a2 2 0 01-2-2V26a2 2 0 012-2h30a2 2 0 011 2v36a2 2 0 01-1 2z"/><path d="M1426 24h-30a2 2 0 00-2 2v36a2 2 0 002 2h30a2 2 0 001-2V26a2 2 0 00-1-2zm1 38a1 1 0 01-1 2h-30a1 1 0 01-1-2V26a1 1 0 011-2h30a1 1 0 011 2zM1499 41h-8a2 2 0 01-2-2V28a2 2 0 012-2h8a2 2 0 012 2v11a2 2 0 01-2 2z"/><path d="M1499 26h-8a2 2 0 00-2 2v11a2 2 0 002 2h8a2 2 0 002-2V28a2 2 0 00-2-2zm2 13a2 2 0 01-2 1h-8a1 1 0 01-2-1V28a1 1 0 012-1h8a1 1 0 012 1zM1473 6h2a2 2 0 012 2v2a2 2 0 01-2 2h-2a2 2 0 01-2-2V8a2 2 0 012-2z"/><path d="M1473 12h2a2 2 0 002-2V8a2 2 0 00-2-2h-2a2 2 0 00-2 2v2a2 2 0 002 2zm-1-4a1 1 0 011-2h2a1 1 0 012 2v2a1 1 0 01-2 2h-2a1 1 0 01-1-2zM1441 21V4a1 1 0 011-2h15a1 1 0 011 2v17a1 1 0 01-1 2h-15a1 1 0 01-1-2zM1411 43h-7a2 2 0 01-1-2v-8a2 2 0 011-2h7a2 2 0 012 2v8a2 2 0 01-2 2z"/><path d="M1411 31h-7a2 2 0 00-1 2v8a2 2 0 001 2h7a2 2 0 002-2v-8a2 2 0 00-2-2zm1 10a1 1 0 01-1 2h-7a1 1 0 01-1-2v-8a1 1 0 011-2h7a1 1 0 011 2zM1453 52h-11a2 2 0 01-1-1V38a2 2 0 011-2h11a2 2 0 011 2v13a2 2 0 01-1 1z"/><path d="M1453 36h-11a2 2 0 00-1 2v13a2 2 0 001 1h11a2 2 0 001-1V38a2 2 0 00-1-2zm1 15a1 1 0 01-1 1h-11a1 1 0 01-1-1V38a1 1 0 011-2h11a1 1 0 011 2zM1412 18v-6a2 2 0 011-2h5a2 2 0 012 2v6a2 2 0 01-2 2h-5a2 2 0 01-1-2z"/><path d="M1418 10h-5a2 2 0 00-1 2v6a2 2 0 001 2h5a2 2 0 002-2v-6a2 2 0 00-2-2zm2 8a1 1 0 01-2 2h-5a1 1 0 01-1-2v-6a1 1 0 011-1h5a1 1 0 012 1zM1496 11V5a2 2 0 012-2h5a2 2 0 011 2v6a2 2 0 01-1 2h-5a2 2 0 01-2-2z"/><path d="M1503 3h-5a2 2 0 00-2 2v6a2 2 0 002 2h5a2 2 0 001-2V5a2 2 0 00-1-2zm1 8a1 1 0 01-1 2h-5a1 1 0 01-1-2V5a1 1 0 011-2h5a1 1 0 011 2zM1353 64h30a2 2 0 001-2V26a2 2 0 00-1-2h-30a2 2 0 00-1 2v36a2 2 0 001 2z"/><path d="M1352 26v36a2 2 0 001 2h30a2 2 0 001-2V26a2 2 0 00-1-2h-30a2 2 0 00-1 2zm0 0a1 1 0 011-2h30a1 1 0 011 2v36a1 1 0 01-1 2h-30a1 1 0 01-1-2zM1280 41h8a2 2 0 002-2V28a2 2 0 00-2-2h-8a2 2 0 00-2 2v11a2 2 0 002 2z"/><path d="M1278 28v11a2 2 0 002 2h8a2 2 0 002-2V28a2 2 0 00-2-2h-8a2 2 0 00-2 2zm0 0a1 1 0 012-1h8a1 1 0 012 1v11a1 1 0 01-2 1h-8a2 2 0 01-2-1zM1306 6h-2a2 2 0 00-2 2v2a2 2 0 002 2h2a2 2 0 002-2V8a2 2 0 00-2-2z"/><path d="M1308 10V8a2 2 0 00-2-2h-2a2 2 0 00-2 2v2a2 2 0 002 2h2a2 2 0 002-2zm-1 0a1 1 0 01-1 2h-2a1 1 0 01-2-2V8a1 1 0 012-2h2a1 1 0 011 2zM1338 21V4a1 1 0 00-1-2h-15a1 1 0 00-1 2v17a1 1 0 001 2h15a1 1 0 001-2zM1368 43h7a2 2 0 001-2v-8a2 2 0 00-1-2h-7a2 2 0 00-2 2v8a2 2 0 002 2z"/><path d="M1366 33v8a2 2 0 002 2h7a2 2 0 001-2v-8a2 2 0 00-1-2h-7a2 2 0 00-2 2zm1 0a1 1 0 011-2h7a1 1 0 011 2v8a1 1 0 01-1 2h-7a1 1 0 01-1-2zM1326 52h11a2 2 0 001-1V38a2 2 0 00-1-2h-11a2 2 0 00-1 2v13a2 2 0 001 1z"/><path d="M1325 38v13a2 2 0 001 1h11a2 2 0 001-1V38a2 2 0 00-1-2h-11a2 2 0 00-1 2zm0 0a1 1 0 011-2h11a1 1 0 011 2v13a1 1 0 01-1 1h-11a1 1 0 01-1-1zM1367 18v-6a2 2 0 00-1-2h-5a2 2 0 00-2 2v6a2 2 0 002 2h5a2 2 0 001-2z"/><path d="M1359 12v6a2 2 0 002 2h5a2 2 0 001-2v-6a2 2 0 00-1-2h-5a2 2 0 00-2 2zm0 0a1 1 0 012-1h5a1 1 0 011 1v6a1 1 0 01-1 2h-5a1 1 0 01-2-2zM1283 11V5a2 2 0 00-2-2h-5a2 2 0 00-1 2v6a2 2 0 001 2h5a2 2 0 002-2z"/><path d="M1275 5v6a2 2 0 001 2h5a2 2 0 002-2V5a2 2 0 00-2-2h-5a2 2 0 00-1 2zm0 0a1 1 0 011-2h5a1 1 0 011 2v6a1 1 0 01-1 2h-5a1 1 0 01-1-2zM1499 60h-2a2 2 0 01-2-2v-3a2 2 0 012-2h2a2 2 0 011 2v3a2 2 0 01-1 2z"/><path d="M1499 53h-2a2 2 0 00-2 2v3a2 2 0 002 2h2a2 2 0 001-2v-3a2 2 0 00-1-2zm1 5a2 2 0 01-1 1h-2a2 2 0 01-2-1v-3a2 2 0 012-2h2a2 2 0 011 2zM1642 0h30a2 2 0 012 2v37a2 2 0 01-2 2h-30a2 2 0 01-2-2V2a2 2 0 012-2z"/><path d="M1642 41h30a2 2 0 002-2V2a2 2 0 00-2-2h-30a2 2 0 00-2 2v37a2 2 0 002 2zm-2-39a2 2 0 012-2h30a2 2 0 011 2v37a2 2 0 01-1 2h-30a2 2 0 01-2-2zM1567 24h9a2 2 0 011 2v10a2 2 0 01-1 2h-9a2 2 0 01-2-2V26a2 2 0 012-2z"/><path d="M1567 38h9a2 2 0 001-2V26a2 2 0 00-1-2h-9a2 2 0 00-2 2v10a2 2 0 002 2zm-2-12a2 2 0 012-2h9a2 2 0 011 2v10a2 2 0 01-1 2h-9a2 2 0 01-2-2zM1594 59h-3a2 2 0 01-1-2v-3a2 2 0 011-1h3a2 2 0 011 1v3a2 2 0 01-1 2z"/><path d="M1594 53h-3a2 2 0 00-1 1v3a2 2 0 001 2h3a2 2 0 001-2v-3a2 2 0 00-1-1zm1 4a2 2 0 01-1 2h-3a2 2 0 01-1-2v-3a2 2 0 011-1h3a2 2 0 011 1zM1626 43v18a1 1 0 01-1 2h-15a1 1 0 01-1-2V43a1 1 0 011-1h15a1 1 0 011 1zM1657 21h7a2 2 0 011 2v9a2 2 0 01-1 2h-7a2 2 0 01-2-2v-9a2 2 0 012-2z"/><path d="M1657 34h7a2 2 0 001-2v-9a2 2 0 00-1-2h-7a2 2 0 00-2 2v9a2 2 0 002 2zm-2-11a2 2 0 012-1h7a2 2 0 011 1v9a2 2 0 01-1 1h-7a2 2 0 01-2-1zM1614 12h11a2 2 0 012 2v13a2 2 0 01-2 2h-11a2 2 0 01-1-2V14a2 2 0 011-2z"/><path d="M1614 29h11a2 2 0 002-2V14a2 2 0 00-2-2h-11a2 2 0 00-1 2v13a2 2 0 001 2zm-1-15a2 2 0 011-2h11a2 2 0 011 2v13a2 2 0 01-1 1h-11a2 2 0 01-1-1zM1656 46v7a2 2 0 01-2 2h-5a2 2 0 01-1-2v-7a2 2 0 011-2h5a2 2 0 012 2z"/><path d="M1649 55h5a2 2 0 002-2v-7a2 2 0 00-2-2h-5a2 2 0 00-1 2v7a2 2 0 001 2zm-1-9a2 2 0 011-1h5a2 2 0 012 1v7a2 2 0 01-2 1h-5a2 2 0 01-1-1zM1570 54v6a2 2 0 01-2 2h-5a2 2 0 01-1-2v-6a2 2 0 011-2h5a2 2 0 012 2z"/><path d="M1563 62h5a2 2 0 002-2v-6a2 2 0 00-2-2h-5a2 2 0 00-1 2v6a2 2 0 001 2zm-1-8a2 2 0 011-2h5a2 2 0 012 2v6a2 2 0 01-2 2h-5a2 2 0 01-1-2zM1716 0h-31a2 2 0 00-1 2v37a2 2 0 001 2h31a2 2 0 001-2V2a2 2 0 00-1-2z"/><path d="M1717 39V2a2 2 0 00-1-2h-31a2 2 0 00-1 2v37a2 2 0 001 2h31a2 2 0 001-2zm0 0a2 2 0 01-1 2h-31a2 2 0 01-1-2V2a2 2 0 011-2h31a2 2 0 011 2zM1791 24h-9a2 2 0 00-2 2v10a2 2 0 002 2h9a2 2 0 001-2V26a2 2 0 00-1-2z"/><path d="M1792 36V26a2 2 0 00-1-2h-9a2 2 0 00-2 2v10a2 2 0 002 2h9a2 2 0 001-2zm0 0a2 2 0 01-1 2h-9a2 2 0 01-2-2V26a2 2 0 012-2h9a2 2 0 011 2zM1764 59h2a2 2 0 002-2v-3a2 2 0 00-2-1h-2a2 2 0 00-2 1v3a2 2 0 002 2z"/><path d="M1762 54v3a2 2 0 002 2h2a2 2 0 002-2v-3a2 2 0 00-2-1h-2a2 2 0 00-2 1zm0 0a2 2 0 012-1h2a2 2 0 011 1v3a2 2 0 01-1 2h-2a2 2 0 01-2-2zM1731 43v18a1 1 0 002 2h14a1 1 0 001-2V43a1 1 0 00-1-1h-14a1 1 0 00-2 1zM1701 21h-7a2 2 0 00-2 2v9a2 2 0 002 2h7a2 2 0 001-2v-9a2 2 0 00-1-2z"/><path d="M1702 32v-9a2 2 0 00-1-2h-7a2 2 0 00-2 2v9a2 2 0 002 2h7a2 2 0 001-2zm0 0a2 2 0 01-1 1h-7a2 2 0 01-2-1v-9a2 2 0 012-1h7a2 2 0 011 1zM1743 12h-11a2 2 0 00-1 2v13a2 2 0 001 2h11a2 2 0 002-2V14a2 2 0 00-2-2z"/><path d="M1745 27V14a2 2 0 00-2-2h-11a2 2 0 00-1 2v13a2 2 0 001 2h11a2 2 0 002-2zm0 0a2 2 0 01-2 1h-11a2 2 0 01-1-1V14a2 2 0 011-2h11a2 2 0 012 2zM1701 46v7a2 2 0 002 2h5a2 2 0 001-2v-7a2 2 0 00-1-2h-5a2 2 0 00-2 2z"/><path d="M1709 53v-7a2 2 0 00-1-2h-5a2 2 0 00-2 2v7a2 2 0 002 2h5a2 2 0 001-2zm0 0a2 2 0 01-1 1h-5a2 2 0 01-2-1v-7a2 2 0 012-1h5a2 2 0 011 1zM1787 54v6a2 2 0 002 2h5a2 2 0 002-2v-6a2 2 0 00-2-2h-5a2 2 0 00-2 2z"/><path d="M1796 60v-6a2 2 0 00-2-2h-5a2 2 0 00-2 2v6a2 2 0 002 2h5a2 2 0 002-2zm-1 0a2 2 0 01-1 2h-5a2 2 0 01-1-2v-6a2 2 0 011-2h5a2 2 0 012 2zM1954 64h-29a2 2 0 01-2-2V26a2 2 0 012-2h29a2 2 0 012 2v36a2 2 0 01-2 2z"/><path d="M1954 24h-29a2 2 0 00-2 2v36a2 2 0 002 2h29a2 2 0 002-2V26a2 2 0 00-2-2zm2 38a1 1 0 01-2 2h-29a1 1 0 01-2-2V26a1 1 0 012-2h29a1 1 0 012 2zM1970 21V4a1 1 0 011-2h14a1 1 0 011 2v17a1 1 0 01-1 2h-14a1 1 0 01-1-2z"/><path d="M1940 43h-7a2 2 0 01-2-2v-8a2 2 0 012-2h7a2 2 0 011 2v8a2 2 0 01-1 2z"/><path d="M1940 31h-7a2 2 0 00-2 2v8a2 2 0 002 2h7a2 2 0 001-2v-8a2 2 0 00-1-2zm1 10a1 1 0 01-1 2h-7a1 1 0 01-2-2v-8a1 1 0 012-2h7a1 1 0 011 2zM1981 52h-10a2 2 0 01-2-1V38a2 2 0 012-2h10a2 2 0 012 2v13a2 2 0 01-2 1z"/><path d="M1981 36h-10a2 2 0 00-2 2v13a2 2 0 002 1h10a2 2 0 002-1V38a2 2 0 00-2-2zm2 15a1 1 0 01-2 1h-10a1 1 0 01-2-1V38a1 1 0 012-2h10a1 1 0 012 2zM1940 18v-6a2 2 0 012-2h5a2 2 0 011 2v6a2 2 0 01-1 2h-5a2 2 0 01-2-2z"/><path d="M1947 10h-5a2 2 0 00-2 2v6a2 2 0 002 2h5a2 2 0 001-2v-6a2 2 0 00-1-2zm1 8a1 1 0 01-1 2h-5a1 1 0 01-2-2v-6a1 1 0 012-1h5a1 1 0 011 1zM1882 64h30a2 2 0 001-2V26a2 2 0 00-2-2h-29a2 2 0 00-2 2v36a2 2 0 002 2z"/><path d="M1880 26v36a2 2 0 002 2h29a2 2 0 002-2V26a2 2 0 00-2-2h-29a2 2 0 00-2 2zm0 0a2 2 0 012-2h29a1 1 0 012 2v36a1 1 0 01-2 2h-29a1 1 0 01-2-2zM1808 41h9a2 2 0 001-2V28a2 2 0 00-1-2h-9a2 2 0 00-1 2v11a2 2 0 001 2z"/><path d="M1807 28v11a2 2 0 001 2h9a2 2 0 001-2V28a2 2 0 00-1-2h-9a2 2 0 00-1 2zm0 0a1 1 0 011-1h9a1 1 0 011 1v11a2 2 0 01-1 1h-9a1 1 0 01-1-1zM1835 6h-3a2 2 0 00-1 2v2a2 2 0 001 2h3a2 2 0 001-2V8a2 2 0 00-1-2z"/><path d="M1836 10V8a2 2 0 00-1-2h-3a2 2 0 00-1 2v2a2 2 0 001 2h3a2 2 0 001-2zm0 0a1 1 0 01-1 2h-3a1 1 0 01-1-2V8a1 1 0 011-2h3a1 1 0 011 2zM1866 21V4a1 1 0 00-1-2h-14a1 1 0 00-1 2v17a1 1 0 001 2h14a1 1 0 001-2zM1896 43h7a2 2 0 002-2v-8a2 2 0 00-2-2h-7a2 2 0 00-1 2v8a2 2 0 001 2z"/><path d="M1895 33v8a2 2 0 001 2h7a2 2 0 002-2v-8a2 2 0 00-2-2h-7a2 2 0 00-1 2zm0 0a1 1 0 011-2h7a1 1 0 012 2v8a1 1 0 01-2 2h-7a1 1 0 01-1-2zM1855 52h10a2 2 0 002-1V38a2 2 0 00-2-2h-10a2 2 0 00-2 2v13a2 2 0 002 1z"/><path d="M1853 38v13a2 2 0 002 1h10a2 2 0 002-1V38a2 2 0 00-2-2h-10a2 2 0 00-2 2zm0 0a1 1 0 012-2h10a1 1 0 012 2v13a1 1 0 01-2 1h-10a1 1 0 01-2-1zM1896 18v-6a2 2 0 00-2-2h-5a2 2 0 00-1 2v6a2 2 0 001 2h5a2 2 0 002-2z"/><path d="M1888 12v6a2 2 0 001 2h5a2 2 0 002-2v-6a2 2 0 00-2-2h-5a2 2 0 00-1 2zm0 0a1 1 0 011-1h5a1 1 0 012 1v6a1 1 0 01-2 2h-5a1 1 0 01-1-2zM1811 11V5a2 2 0 00-1-2h-5a2 2 0 00-2 2v6a2 2 0 002 2h5a2 2 0 001-2z"/><path d="M1803 5v6a2 2 0 002 2h5a2 2 0 001-2V5a2 2 0 00-1-2h-5a2 2 0 00-2 2zm0 0a1 1 0 012-2h5a1 1 0 011 2v6a1 1 0 01-1 2h-5a1 1 0 01-2-2zM1997 64h-3a2 2 0 01-1-2v-3a2 2 0 011-2h3a2 2 0 011 2v3a2 2 0 01-1 2z"/><path d="M1997 57h-3a2 2 0 00-1 2v3a2 2 0 001 2h3a2 2 0 001-2v-3a2 2 0 00-1-2zm1 5a1 1 0 01-1 2h-3a1 1 0 01-1-2v-3a1 1 0 011-1h3a1 1 0 011 1zM62 39h28v29H62zM210 39h28v29h-28z"/></g></svg>