<svg xmlns:xlink="http://www.w3.org/1999/xlink" xmlns="http://www.w3.org/2000/svg" viewBox="0 0 1440 320" preserveAspectRatio="none" width="4000"  height="888.8888888888889" ><path fill="#27222A" d="M0 32l48 32c48 32 144 96 240 106.7 96 10.3 192-31.7 288-21.4 96 10.7 192 74.7 288 69.4 96-5.7 192-79.7 288-106.7s192-5 240 5.3l48 10.7v192H0z"/><path fill="%23aec7d6" opacity=".66" d="M0 64l48 16c48 16 144 48 240 48s192-32 288-26.7C672 107 768 149 864 144s192-59 288-80 192-11 240-5.3l48 5.3v256H0z"/></svg>