<svg xmlns:xlink="http://www.w3.org/1999/xlink" preserveAspectRatio="none" xmlns="http://www.w3.org/2000/svg" viewBox="0 0 2000 54" width="4000"  height="108" ><g fill="#AEC7D6"><path d="M1990 38l-59-34-57 32-2 2-59-34-59 34-5 2-4-2-59-34-59 34-59-34-59 34-2 1-2-1-59-34-59 34-59-34-59 34-4 2-5-2-59-34-58 34h-1l-59-34-59 34-2 1-2-1-58-34-59 34h-1L843 4l-58 34-5 2-4-2-59-34-59 34-59-34-59 34-2 1-2-1-59-34-59 34-59-34-59 34-4 2-5-2-59-34-59 34-59-34-59 34L0 6v48h2000V44l-10-6z"/><path opacity=".2" d="M73 5L60 27h25L73 5 60 27h25L73 5z"/><path opacity=".5" d="M89 0L76 22h26L89 0 76 22h26L89 0z"/><path opacity=".2" d="M38 5l13 22H25L38 5l13 22H25L38 5zM16 1l4 8h-9l5-8 4 8h-9l5-8zm80 0l5 8H91l5-8 5 8H91l5-8zM55 29L38 0h34L55 29 38 0h34L55 29z"/><path opacity=".5" d="M23 0l12 22H10L23 0l12 22H10L23 0z"/><path opacity=".2" d="M55 11l17 29H38l17-29 17 29H38l17-29zm118 0l17 29h-34l17-29 17 29h-34l17-29zm122 0l17 29h-33l16-29 17 29h-33l16-29zm123 0l17 29h-34l17-29 17 29h-34l17-29zm121 0l17 29h-33l16-29 17 29h-33l16-29zm119 0l17 29h-34l17-29 17 29h-34l17-29zm122 0l17 29h-34l17-29 17 29h-34l17-29zm123 0l17 29h-34l17-29 17 29h-34l17-29zm120 0l17 29h-33l16-29 17 29h-33l16-29zm120 0l16 29h-33l17-29 16 29h-33l17-29zm122 0l17 29h-34l17-29 17 29h-34l17-29zm122 0l17 29h-34l17-29 17 29h-34l17-29zm120 0l17 29h-33l16-29 17 29h-33l16-29zm120 0l17 29h-33l16-29 17 29h-33l16-29zm123 0l17 29h-34l17-29 17 29h-34l17-29zm123 0l16 29h-33l17-29 16 29h-33l17-29zm127 0v29h-16l16-29z"/><path opacity=".2" d="M191 5l-13 22h25L191 5l-13 22h25L191 5z"/><path opacity=".5" d="M207 0l-13 22h26L207 0l-13 22h26L207 0z"/><path opacity=".2" d="M156 5l13 22h-26l13-22 13 22h-26l13-22zm-22-4l4 8h-9l5-8 4 8h-9l5-8zm80 0l5 8h-10l5-8 5 8h-10l5-8zm-41 28L156 0h34l-17 29-17-29h34l-17 29z"/><path opacity=".5" d="M141 0l12 22h-25l13-22 12 22h-25l13-22z"/><path opacity=".2" d="M313 5l-13 22h26L313 5l-13 22h26L313 5z"/><path opacity=".5" d="M329 0l-13 22h26L329 0l-13 22h26L329 0z"/><path opacity=".2" d="M278 5l13 22h-26l13-22 13 22h-26l13-22zm-22-4l5 8h-10l5-8 5 8h-10l5-8zm80 0l5 8h-9l4-8 5 8h-9l4-8zm-41 28L279 0h33l-17 29-16-29h33l-17 29z"/><path opacity=".5" d="M263 0l13 22h-26l13-22 13 22h-26l13-22z"/><path opacity=".2" d="M435 5l-13 22h26L435 5l-13 22h26L435 5z"/><path opacity=".5" d="M451 0l-12 22h25L451 0l-12 22h25L451 0z"/><path opacity=".2" d="M400 5l13 22h-25l12-22 13 22h-25l12-22zm-22-4l5 8h-10l5-8 5 8h-10l5-8zm81 0l4 8h-9l5-8 4 8h-9l5-8zm-41 28L401 0h33l-16 29-17-29h33l-16 29z"/><path opacity=".5" d="M385 0l13 22h-26l13-22 13 22h-26l13-22z"/><path opacity=".2" d="M555 5l-12 22h25L555 5l-12 22h25L555 5z"/><path opacity=".5" d="M572 0l-13 22h25L572 0l-13 22h25L572 0z"/><path opacity=".2" d="M521 5l12 22h-25l13-22 12 22h-25l13-22zm-23-4l5 8h-9l4-8 5 8h-9l4-8zm81 0l5 8h-10l5-8 5 8h-10l5-8zm-41 28L521 0h34l-17 29-17-29h34l-17 29z"/><path opacity=".5" d="M505 0l13 22h-25l12-22 13 22h-25l12-22z"/><path opacity=".2" d="M675 5l-13 22h25L675 5l-13 22h25L675 5z"/><path opacity=".5" d="M691 0l-13 22h26L691 0l-13 22h26L691 0z"/><path opacity=".2" d="M640 5l13 22h-26l13-22 13 22h-26l13-22zm-22-4l4 8h-9l5-8 4 8h-9l5-8zm80 0l5 8h-10l5-8 5 8h-10l5-8zm-41 28L640 0h34l-17 29-17-29h34l-17 29z"/><path opacity=".5" d="M625 0l12 22h-25l13-22 12 22h-25l13-22z"/><path opacity=".2" d="M797 5l-13 22h26L797 5l-13 22h26L797 5z"/><path opacity=".5" d="M813 0l-13 22h26L813 0l-13 22h26L813 0z"/><path opacity=".2" d="M762 5l13 22h-26l13-22 13 22h-26l13-22zm-22-4l5 8h-10l5-8 5 8h-10l5-8zm80 0l5 8h-9l4-8 5 8h-9l4-8zm-41 28L763 0h33l-17 29-16-29h33l-17 29z"/><path opacity=".5" d="M747 0l13 22h-26l13-22 13 22h-26l13-22z"/><path opacity=".2" d="M920 5l-13 22h26L920 5l-13 22h26L920 5z"/><path opacity=".5" d="M936 0l-12 22h25L936 0l-12 22h25L936 0z"/><path opacity=".2" d="M885 5l13 22h-25l12-22 13 22h-25l12-22zm-22-4l5 8h-10l5-8 5 8h-10l5-8zm81 0l4 8h-9l5-8 4 8h-9l5-8zm-41 28L886 0h33l-16 29-17-29h33l-16 29z"/><path opacity=".5" d="M870 0l13 22h-26l13-22 13 22h-26l13-22z"/><path opacity=".2" d="M1040 5l-12 22h25l-13-22-12 22h25l-13-22z"/><path opacity=".5" d="M1057 0l-13 22h25l-12-22-13 22h25l-12-22z"/><path opacity=".2" d="M1006 5l12 22h-25l13-22 12 22h-25l13-22zm-23-4l5 8h-9l4-8 5 8h-9l4-8zm81 0l5 8h-10l5-8 5 8h-10l5-8zm-41 28l-17-29h34l-17 29-17-29h34l-17 29z"/><path opacity=".5" d="M990 0l13 22h-25l12-22 13 22h-25l12-22z"/><path opacity=".2" d="M1160 5l-13 22h25l-12-22-13 22h25l-12-22z"/><path opacity=".5" d="M1176 0l-13 22h25l-12-22-13 22h25l-12-22z"/><path opacity=".2" d="M1125 5l12 22h-25l13-22 12 22h-25l13-22zm-22-4l4 8h-9l5-8 4 8h-9l5-8zm80 0l5 8h-10l5-8 5 8h-10l5-8zm-41 28l-17-29h34l-17 29-17-29h34l-17 29z"/><path opacity=".5" d="M1110 0l12 22h-25l13-22 12 22h-25l13-22z"/><path opacity=".2" d="M1282 5l-13 22h25l-12-22-13 22h25l-12-22z"/><path opacity=".5" d="M1298 0l-13 22h26l-13-22-13 22h26l-13-22z"/><path opacity=".2" d="M1247 5l13 22h-26l13-22 13 22h-26l13-22zm-22-4l4 8h-9l5-8 4 8h-9l5-8zm80 0l5 8h-10l5-8 5 8h-10l5-8zm-41 28l-17-29h34l-17 29-17-29h34l-17 29z"/><path opacity=".5" d="M1232 0l12 22h-25l13-22 12 22h-25l13-22z"/><path opacity=".2" d="M1404 5l-13 22h25l-12-22-13 22h25l-12-22z"/><path opacity=".5" d="M1420 0l-13 22h26l-13-22-13 22h26l-13-22z"/><path opacity=".2" d="M1369 5l13 22h-26l13-22 13 22h-26l13-22zm-22-4l5 8h-10l5-8 5 8h-10l5-8zm80 0l5 8h-9l4-8 5 8h-9l4-8zm-41 28l-16-29h33l-17 29-16-29h33l-17 29z"/><path opacity=".5" d="M1354 0l12 22h-25l13-22 12 22h-25l13-22z"/><path opacity=".2" d="M1524 5l-12 22h25l-13-22-12 22h25l-13-22z"/><path opacity=".5" d="M1540 0l-12 22h25l-13-22-12 22h25l-13-22z"/><path opacity=".2" d="M1489 5l13 22h-25l12-22 13 22h-25l12-22zm-22-4l5 8h-9l4-8 5 8h-9l4-8zm81 0l4 8h-9l5-8 4 8h-9l5-8zm-41 28l-17-29h34l-17 29-17-29h34l-17 29z"/><path opacity=".5" d="M1474 0l13 22h-25l12-22 13 22h-25l12-22z"/><path opacity=".2" d="M1644 5l-12 22h25l-13-22-12 22h25l-13-22z"/><path opacity=".5" d="M1660 0l-12 22h25l-13-22-12 22h25l-13-22z"/><path opacity=".2" d="M1609 5l13 22h-25l12-22 13 22h-25l12-22zm-22-4l5 8h-9l4-8 5 8h-9l4-8zm81 0l4 8h-9l5-8 4 8h-9l5-8zm-41 28l-17-29h34l-17 29-17-29h34l-17 29z"/><path opacity=".5" d="M1594 0l13 22h-25l12-22 13 22h-25l12-22z"/><path opacity=".2" d="M1767 5l-13 22h26l-13-22-13 22h26l-13-22z"/><path opacity=".5" d="M1783 0l-13 22h26l-13-22-13 22h26l-13-22z"/><path opacity=".2" d="M1732 5l13 22h-26l13-22 13 22h-26l13-22zm-22-4l5 8h-10l5-8 5 8h-10l5-8zm80 0l5 8h-9l4-8 5 8h-9l4-8zm-41 28l-16-29h33l-17 29-16-29h33l-17 29z"/><path opacity=".5" d="M1717 0l13 22h-26l13-22 13 22h-26l13-22z"/><path opacity=".2" d="M1889 5l-12 22h25l-13-22-12 22h25l-13-22z"/><path opacity=".5" d="M1906 0l-13 22h25l-12-22-13 22h25l-12-22z"/><path opacity=".2" d="M1855 5l12 22h-25l13-22 12 22h-25l13-22zm-22-4l4 8h-9l5-8 4 8h-9l5-8zm80 0l5 8h-10l5-8 5 8h-10l5-8zm-41 28l-17-29h34l-17 29-17-29h34l-17 29z"/><path opacity=".5" d="M1839 0l13 22h-25l12-22 13 22h-25l12-22z"/><path opacity=".2" d="M1983 5l13 22h-26l13-22 13 22h-26l13-22zm-22-4l5 8h-10l5-8 5 8h-10l5-8zm39-1v29l-16-29h16z"/><path opacity=".5" d="M1968 0l12 22h-25l13-22 12 22h-25l13-22z"/></g></svg>