<svg xmlns:xlink="http://www.w3.org/1999/xlink" preserveAspectRatio="xMidYMin slice" xmlns="http://www.w3.org/2000/svg" viewBox="0 0 2000.4 74.7" width="4219"  height="519" ><g fill="AEC7D6"><path d="M1967.2 9.6v65h-19.3v-65a9.7 9.7 0 0119.3 0z" opacity=".5"/><path d="M1986.4 31.8v42.9h-19.3V31.8a9.6 9.6 0 1119.3 0zm14-30.8v73.7h-14v-65a9.7 9.7 0 019.7-9.7 9.4 9.4 0 014.3 1zM1890 9.6v65h-19.3v-65a9.6 9.6 0 1119.3 0zm38.6 0v65h-19.3v-65a9.7 9.7 0 0119.3 0z" opacity=".5"/><path d="M1947.9 31.8v42.9h-19.3V31.8a9.6 9.6 0 0119.3 0z"/><path d="M1350 9.6v65h-19.3v-65a9.6 9.6 0 1119.3 0z" opacity=".5"/><path d="M1369.3 31.8v42.9H1350V31.8a9.7 9.7 0 1119.3 0z"/><path d="M1388.6 9.6v65h-19.3v-65a9.7 9.7 0 0119.3 0zm19.3 22.2v42.9h-19.3V31.8a9.6 9.6 0 0119.3 0zm-135-22.2v65h-19.3v-65a9.6 9.6 0 0119.3 0zm38.5 0v65h-19.3v-65a9.6 9.6 0 1119.3 0z" opacity=".5"/><path d="M1330.7 31.8v42.9h-19.3V31.8a9.7 9.7 0 0119.3 0z"/><path d="M1504.3 9.6v65H1485v-65a9.7 9.7 0 1119.3 0z" opacity=".5"/><path d="M1523.6 31.8v42.9h-19.3V31.8a9.7 9.7 0 0119.3 0z"/><path d="M1542.9 9.6v65h-19.3v-65a9.6 9.6 0 0119.3 0zm19.3 22.2v42.9h-19.3V31.8a9.7 9.7 0 0119.3 0zm-135-22.2v65h-19.3v-65a9.7 9.7 0 0119.3 0zm38.5 0v65h-19.3v-65a9.7 9.7 0 0119.3 0z" opacity=".5"/><path d="M1485 31.8v42.9h-19.3V31.8a9.6 9.6 0 1119.3 0z"/><path d="M1658.6 9.6v65h-19.3v-65a9.7 9.7 0 0119.3 0z" opacity=".5"/><path d="M1677.9 31.8v42.9h-19.3V31.8a9.6 9.6 0 0119.3 0z"/><path d="M1697.2 9.6v65h-19.3v-65a9.7 9.7 0 0119.3 0z" opacity=".5"/><path d="M1716.4 31.8v42.9h-19.3V31.8a9.6 9.6 0 1119.3 0zm-135-22.2v65h-19.3v-65a9.6 9.6 0 1119.3 0zm38.6 0v65h-19.3v-65a9.6 9.6 0 1119.3 0z" opacity=".5"/><path d="M1639.3 31.8v42.9H1620V31.8a9.7 9.7 0 1119.3 0z"/><path d="M1812.9 9.6v65h-19.3v-65a9.6 9.6 0 0119.3 0z" opacity=".5"/><path d="M1832.2 31.8v42.9h-19.3V31.8a9.7 9.7 0 0119.3 0z"/><path d="M1851.4 9.6v65h-19.3v-65a9.6 9.6 0 1119.3 0zm19.3 22.2v42.9h-19.3V31.8a9.7 9.7 0 0119.3 0zm-135-22.2v65h-19.3v-65a9.7 9.7 0 0119.3 0zm38.6 0v65H1755v-65a9.7 9.7 0 1119.3 0z" opacity=".5"/><path d="M1793.6 31.8v42.9h-19.3V31.8a9.7 9.7 0 0119.3 0z"/><path d="M732.9 9.6v65h-19.3v-65a9.6 9.6 0 0119.3 0zm38.5 0v65h-19.3v-65a9.6 9.6 0 1119.3 0z" opacity=".5"/><path d="M790.7 31.8v42.9h-19.3V31.8a9.7 9.7 0 0119.3 0z"/><path d="M655.7 9.6v65h-19.3v-65a9.7 9.7 0 0119.3 0z" opacity=".5"/><path d="M675 31.8v42.9h-19.3V31.8a9.6 9.6 0 1119.3 0z"/><path d="M694.3 9.6v65H675v-65a9.7 9.7 0 1119.3 0z" opacity=".5"/><path d="M713.6 31.8v42.9h-19.3V31.8a9.7 9.7 0 0119.3 0zM887.1 9.6v65H868v-65a9.7 9.7 0 0119.3 0z" opacity=".5"/><path d="M906.4 31.8v42.9h-19.3V31.8a9.6 9.6 0 1119.3 0zm19.3-22.2v65h-19.3v-65a9.7 9.7 0 0119.3 0z" opacity=".5"/><path d="M945 31.8v42.9h-19.3V31.8a9.6 9.6 0 1119.3 0z"/><path d="M810 9.6v65h-19.3v-65a9.6 9.6 0 1119.3 0z" opacity=".5"/><path d="M829.3 31.8v42.9H810V31.8a9.7 9.7 0 1119.3 0z"/><path d="M848.6 9.6v65h-19.3v-65a9.7 9.7 0 0119.3 0zm192.8 0v65h-19.3v-65a9.6 9.6 0 1119.3 0z" opacity=".5"/><path d="M1060.7 31.8v42.9h-19.3V31.8a9.7 9.7 0 0119.3 0z"/><path d="M1080 9.6v65h-19.3v-65a9.6 9.6 0 1119.3 0z" opacity=".5"/><path d="M1099.3 31.8v42.9H1080V31.8a9.7 9.7 0 1119.3 0zm-135-22.2v65H945v-65a9.7 9.7 0 1119.3 0zm38.6 0v65h-19.3v-65a9.6 9.6 0 0119.3 0z" opacity=".5"/><path d="M1022.1 31.8v42.9H1003V31.8a9.7 9.7 0 0119.3 0z"/><path d="M1195.7 9.6v65h-19.3v-65a9.7 9.7 0 0119.3 0z" opacity=".5"/><path d="M1215 31.8v42.9h-19.3V31.8a9.6 9.6 0 1119.3 0z"/><path d="M1234.3 9.6v65H1215v-65a9.7 9.7 0 1119.3 0z" opacity=".5"/><path d="M1253.6 31.8v42.9h-19.3V31.8a9.7 9.7 0 0119.3 0zm-135-22.2v65h-19.3v-65a9.7 9.7 0 0119.3 0zm38.6 0v65h-19.3v-65a9.7 9.7 0 0119.3 0z" opacity=".5"/><path d="M1176.4 31.8v42.9h-19.3V31.8a9.6 9.6 0 1119.3 0z"/><path d="M115.7 9.6v65H96.4v-65a9.7 9.7 0 0119.3 0zM135 31.8v42.9h-19.3V31.8a9.6 9.6 0 1119.3 0z" opacity=".5"/><path d="M154.3 9.6v65H135v-65a9.7 9.7 0 1119.3 0z" opacity=".5"/><path d="M173.6 31.8v42.9h-19.3V31.8a9.7 9.7 0 0119.3 0z"/><path d="M38.6 9.6v65H19.3v-65a9.7 9.7 0 0119.3 0z" opacity=".5"/><path d="M57.9 31.8v42.9H38.6V31.8a9.6 9.6 0 0119.3 0zm-38.6 0v42.9H0V31.8a9.6 9.6 0 0119.3 0z"/><path d="M77.2 9.6v65H57.9v-65a9.7 9.7 0 0119.3 0zm192.8 0v65h-19.3v-65a9.6 9.6 0 1119.3 0z" opacity=".5"/><path d="M289.3 31.8v42.9H270V31.8a9.7 9.7 0 1119.3 0z"/><path d="M308.6 9.6v65h-19.3v-65a9.7 9.7 0 0119.3 0z" opacity=".5"/><path d="M327.9 31.8v42.9h-19.3V31.8a9.6 9.6 0 0119.3 0z"/><path d="M192.9 9.6v65h-19.3v-65a9.6 9.6 0 0119.3 0zm38.5 0v65h-19.3v-65a9.6 9.6 0 1119.3 0z" opacity=".5"/><path d="M250.7 31.8v42.9h-19.3V31.8a9.7 9.7 0 0119.3 0zM424.3 9.6v65H405v-65a9.7 9.7 0 1119.3 0z" opacity=".5"/><path d="M443.6 31.8v42.9h-19.3V31.8a9.7 9.7 0 0119.3 0z"/><path d="M462.9 9.6v65h-19.3v-65a9.6 9.6 0 0119.3 0zm-115.8 0v65H328v-65a9.7 9.7 0 0119.3 0zm38.6 0v65h-19.3v-65a9.7 9.7 0 0119.3 0zM405 31.8v42.9h-19.3V31.8a9.6 9.6 0 1119.3 0zM578.6 9.6v65h-19.3v-65a9.7 9.7 0 0119.3 0z" opacity=".5"/><path d="M597.9 31.8v42.9h-19.3V31.8a9.6 9.6 0 0119.3 0z"/><path d="M617.1 9.6v65H598v-65a9.7 9.7 0 0119.3 0zm-115.7 0v65h-19.3v-65a9.6 9.6 0 1119.3 0z" opacity=".5"/><path d="M520.7 31.8v42.9h-19.3V31.8a9.7 9.7 0 0119.3 0z"/><path d="M540 9.6v65h-19.3v-65a9.6 9.6 0 1119.3 0z" opacity=".5"/><path d="M559.3 31.8v42.9H540V31.8a9.7 9.7 0 1119.3 0z" opacity=".5"/><path d="M96.4 44v30.7H77.1V43.9a9.7 9.7 0 0119.3 0zm19.3 22.1v8.6H96.4V66a9.6 9.6 0 1119.3 0z"/><path d="M135 44v30.7h-19.3V43.9a9.7 9.7 0 1119.3 0z"/><path d="M154.3 66.1v8.6H135V66a9.7 9.7 0 0119.3 0zM19.3 44v30.7H0V43.9a9.7 9.7 0 0119.3 0zm19.3 22.1v8.6H19.3V66a9.6 9.6 0 0119.3 0zM57.9 44v30.7H38.6V43.9a9.7 9.7 0 0119.3 0zm19.2 22.1v8.6H58V66a9.6 9.6 0 1119.2 0zM250.7 44v30.7h-19.3V43.9a9.6 9.6 0 1119.3 0z"/><path d="M270 66.1v8.6h-19.3V66a9.7 9.7 0 1119.3 0z"/><path d="M289.3 44v30.7H270V43.9a9.7 9.7 0 0119.3 0zm19.3 22.1v8.6h-19.3V66a9.6 9.6 0 0119.3 0zM173.6 44v30.7h-19.3V43.9a9.6 9.6 0 0119.3 0zm19.3 22.1v8.6h-19.3V66a9.7 9.7 0 0119.3 0zM212.1 44v30.7H193V43.9a9.6 9.6 0 1119.2 0z"/><path d="M231.4 66.1v8.6h-19.3V66a9.7 9.7 0 0119.3 0zM405 44v30.7h-19.3V43.9a9.7 9.7 0 1119.3 0z"/><path d="M424.3 66.1v8.6H405V66a9.7 9.7 0 0119.3 0zM443.6 44v30.7h-19.3V43.9a9.6 9.6 0 0119.3 0z"/><path d="M462.9 66.1v8.6h-19.3V66a9.7 9.7 0 0119.3 0zM327.9 44v30.7h-19.3V43.9a9.7 9.7 0 0119.3 0zm19.2 22.1v8.6H328V66a9.6 9.6 0 1119.2 0z"/><path d="M366.4 44v30.7h-19.3V43.9a9.7 9.7 0 0119.3 0zm19.3 22.1v8.6h-19.3V66a9.6 9.6 0 1119.3 0zM559.3 44v30.7H540V43.9a9.7 9.7 0 0119.3 0zm19.3 22.1v8.6h-19.3V66a9.6 9.6 0 0119.3 0zM597.9 44v30.7h-19.3V43.9a9.7 9.7 0 0119.3 0zm19.2 22.1v8.6H598V66a9.6 9.6 0 1119.2 0zM482.1 44v30.7H463V43.9a9.6 9.6 0 1119.2 0z"/><path d="M501.4 66.1v8.6h-19.3V66a9.7 9.7 0 0119.3 0zM520.7 44v30.7h-19.3V43.9a9.6 9.6 0 1119.3 0z"/><path d="M540 66.1v8.6h-19.3V66a9.7 9.7 0 1119.3 0zM713.6 44v30.7h-19.3V43.9a9.6 9.6 0 0119.3 0zm19.3 22.1v8.6h-19.3V66a9.7 9.7 0 0119.3 0zM752.1 44v30.7H733V43.9a9.6 9.6 0 1119.2 0z"/><path d="M771.4 66.1v8.6h-19.3V66a9.7 9.7 0 0119.3 0zM636.4 44v30.7h-19.3V43.9a9.7 9.7 0 0119.3 0zm19.3 22.1v8.6h-19.3V66a9.6 9.6 0 1119.3 0z"/><path d="M675 44v30.7h-19.3V43.9a9.7 9.7 0 1119.3 0z"/><path d="M694.3 66.1v8.6H675V66a9.7 9.7 0 0119.3 0zM867.9 44v30.7h-19.3V43.9a9.7 9.7 0 0119.3 0zm19.2 22.1v8.6H868V66a9.6 9.6 0 1119.2 0z"/><path d="M906.4 44v30.7h-19.3V43.9a9.7 9.7 0 0119.3 0zm19.3 22.1v8.6h-19.3V66a9.6 9.6 0 1119.3 0zM790.7 44v30.7h-19.3V43.9a9.6 9.6 0 1119.3 0z"/><path d="M810 66.1v8.6h-19.3V66a9.7 9.7 0 1119.3 0z"/><path d="M829.3 44v30.7H810V43.9a9.7 9.7 0 0119.3 0zm19.3 22.1v8.6h-19.3V66a9.6 9.6 0 0119.3 0zM1022.1 44v30.7H1003V43.9a9.6 9.6 0 1119.2 0z"/><path d="M1041.4 66.1v8.6h-19.3V66a9.7 9.7 0 0119.3 0zm19.3-22.1v30.7h-19.3V43.9a9.6 9.6 0 1119.3 0z"/><path d="M1080 66.1v8.6h-19.3V66a9.7 9.7 0 1119.3 0zM945 44v30.7h-19.3V43.9a9.7 9.7 0 1119.3 0z"/><path d="M964.3 66.1v8.6H945V66a9.7 9.7 0 0119.3 0zM983.6 44v30.7h-19.3V43.9a9.6 9.6 0 0119.3 0zm19.3 22.1v8.6h-19.3V66a9.7 9.7 0 0119.3 0zM1176.4 44v30.7h-19.3V43.9a9.7 9.7 0 0119.3 0zm19.3 22.1v8.6h-19.3V66a9.6 9.6 0 1119.3 0z"/><path d="M1215 44v30.7h-19.3V43.9a9.7 9.7 0 1119.3 0z"/><path d="M1234.3 66.1v8.6H1215V66a9.7 9.7 0 0119.3 0zm-135-22.1v30.7H1080V43.9a9.7 9.7 0 0119.3 0zm19.3 22.1v8.6h-19.3V66a9.6 9.6 0 0119.3 0zm19.3-22.1v30.7h-19.3V43.9a9.7 9.7 0 0119.3 0zm19.2 22.1v8.6H1138V66a9.6 9.6 0 1119.2 0zM1330.7 44v30.7h-19.3V43.9a9.6 9.6 0 1119.3 0z"/><path d="M1350 66.1v8.6h-19.3V66a9.7 9.7 0 1119.3 0z"/><path d="M1369.3 44v30.7H1350V43.9a9.7 9.7 0 0119.3 0zm19.3 22.1v8.6h-19.3V66a9.6 9.6 0 0119.3 0zm-135-22.1v30.7h-19.3V43.9a9.6 9.6 0 0119.3 0zm19.3 22.1v8.6h-19.3V66a9.7 9.7 0 0119.3 0zm19.2-22.1v30.7H1273V43.9a9.6 9.6 0 1119.2 0z"/><path d="M1311.4 66.1v8.6h-19.3V66a9.7 9.7 0 0119.3 0zM1485 44v30.7h-19.3V43.9a9.7 9.7 0 1119.3 0z"/><path d="M1504.3 66.1v8.6H1485V66a9.7 9.7 0 0119.3 0zm19.3-22.1v30.7h-19.3V43.9a9.6 9.6 0 0119.3 0zm19.3 22.1v8.6h-19.3V66a9.7 9.7 0 0119.3 0zm-135-22.1v30.7h-19.3V43.9a9.7 9.7 0 0119.3 0zm19.2 22.1v8.6H1408V66a9.6 9.6 0 1119.2 0z"/><path d="M1446.4 44v30.7h-19.3V43.9a9.7 9.7 0 0119.3 0zm19.3 22.1v8.6h-19.3V66a9.6 9.6 0 1119.3 0zM1639.3 44v30.7H1620V43.9a9.7 9.7 0 0119.3 0zm19.3 22.1v8.6h-19.3V66a9.6 9.6 0 0119.3 0zm19.3-22.1v30.7h-19.3V43.9a9.7 9.7 0 0119.3 0zm19.2 22.1v8.6H1678V66a9.6 9.6 0 1119.2 0zm-135-22.1v30.7H1543V43.9a9.6 9.6 0 1119.2 0z"/><path d="M1581.4 66.1v8.6h-19.3V66a9.7 9.7 0 0119.3 0zm19.3-22.1v30.7h-19.3V43.9a9.6 9.6 0 1119.3 0z"/><path d="M1620 66.1v8.6h-19.3V66a9.7 9.7 0 1119.3 0zM1793.6 44v30.7h-19.3V43.9a9.6 9.6 0 0119.3 0zm19.3 22.1v8.6h-19.3V66a9.7 9.7 0 0119.3 0zm19.2-22.1v30.7H1813V43.9a9.6 9.6 0 1119.2 0z"/><path d="M1851.4 66.1v8.6h-19.3V66a9.7 9.7 0 0119.3 0zm-135-22.1v30.7h-19.3V43.9a9.7 9.7 0 0119.3 0zm19.3 22.1v8.6h-19.3V66a9.6 9.6 0 1119.3 0z"/><path d="M1755 44v30.7h-19.3V43.9a9.7 9.7 0 1119.3 0z"/><path d="M1774.3 66.1v8.6H1755V66a9.7 9.7 0 0119.3 0zM1947.9 44v30.7h-19.3V43.9a9.7 9.7 0 0119.3 0zm19.2 22.1v8.6H1948V66a9.6 9.6 0 1119.2 0z"/><path d="M1986.4 44v30.7h-19.3V43.9a9.7 9.7 0 0119.3 0zm14 13.5v17.2h-14V66a9.7 9.7 0 019.7-9.6 9.5 9.5 0 014.3 1zM1870.7 44v30.7h-19.3V43.9a9.6 9.6 0 1119.3 0z"/><path d="M1890 66.1v8.6h-19.3V66a9.7 9.7 0 1119.3 0z"/><path d="M1909.3 44v30.7H1890V43.9a9.7 9.7 0 0119.3 0zm19.3 22.1v8.6h-19.3V66a9.6 9.6 0 0119.3 0z"/><path d="M9.7 6a5.6 5.6 0 105.6 5.6A5.6 5.6 0 009.6 6zm0 10a4.4 4.4 0 114.3-4.4A4.4 4.4 0 019.7 16z" fill-rule="evenodd" opacity=".5"/><path d="M48.2 6a5.6 5.6 0 105.6 5.6A5.6 5.6 0 0048.2 6zm0 10a4.4 4.4 0 114.4-4.4 4.4 4.4 0 01-4.4 4.4z" fill-rule="evenodd"/><path d="M86.8 18a5.6 5.6 0 105.6 5.6 5.6 5.6 0 00-5.6-5.6zm0 10a4.4 4.4 0 114.4-4.4 4.4 4.4 0 01-4.4 4.4z" fill-rule="evenodd" opacity=".5"/><path d="M125.4 6a5.6 5.6 0 105.6 5.6 5.6 5.6 0 00-5.6-5.6zm0 10a4.4 4.4 0 114.4-4.4 4.4 4.4 0 01-4.4 4.4z" fill-rule="evenodd"/><path d="M164 6a5.6 5.6 0 105.6 5.6A5.6 5.6 0 00164 6zm0 10a4.4 4.4 0 114.4-4.4A4.4 4.4 0 01164 16zm38.5 2a5.6 5.6 0 105.6 5.6 5.6 5.6 0 00-5.6-5.6zm0 10a4.4 4.4 0 114.4-4.4 4.4 4.4 0 01-4.4 4.4zm38.6-22a5.6 5.6 0 105.6 5.6 5.6 5.6 0 00-5.6-5.6zm0 10a4.4 4.4 0 114.4-4.4A4.4 4.4 0 01241 16z" fill-rule="evenodd" opacity=".5"/><path d="M279.7 6a5.6 5.6 0 105.6 5.6 5.6 5.6 0 00-5.6-5.6zm0 10a4.4 4.4 0 114.4-4.4 4.4 4.4 0 01-4.4 4.4z" fill-rule="evenodd"/><path d="M318.3 6a5.6 5.6 0 105.5 5.6 5.6 5.6 0 00-5.6-5.6zm0 10a4.4 4.4 0 114.3-4.4 4.4 4.4 0 01-4.4 4.4zm38.5 2a5.6 5.6 0 105.6 5.6 5.6 5.6 0 00-5.6-5.6zm0 10a4.4 4.4 0 114.4-4.4 4.4 4.4 0 01-4.4 4.4zm38.6-22a5.6 5.6 0 105.6 5.6 5.6 5.6 0 00-5.6-5.6zm0 10a4.4 4.4 0 114.4-4.4 4.4 4.4 0 01-4.4 4.4z" fill-rule="evenodd" opacity=".5"/><path d="M434 6a5.6 5.6 0 105.6 5.6A5.6 5.6 0 00434 6zm0 10a4.4 4.4 0 114.4-4.4A4.4 4.4 0 01434 16z" fill-rule="evenodd"/><path d="M472.6 18a5.6 5.6 0 105.5 5.6 5.6 5.6 0 00-5.6-5.6zm0 10a4.4 4.4 0 114.3-4.4 4.4 4.4 0 01-4.3 4.4z" fill-rule="evenodd" opacity=".5"/><path d="M511.1 6a5.6 5.6 0 105.6 5.6 5.6 5.6 0 00-5.6-5.6zm0 10a4.4 4.4 0 114.4-4.4 4.4 4.4 0 01-4.4 4.4z" fill-rule="evenodd"/><path d="M549.7 6a5.6 5.6 0 105.6 5.6 5.6 5.6 0 00-5.6-5.6zm0 10a4.4 4.4 0 114.4-4.4 4.4 4.4 0 01-4.4 4.4z" fill-rule="evenodd" opacity=".5"/><path d="M588.3 6a5.6 5.6 0 105.6 5.6 5.6 5.6 0 00-5.6-5.6zm0 10a4.4 4.4 0 114.4-4.4 4.4 4.4 0 01-4.4 4.4z" fill-rule="evenodd"/><path d="M626.9 18a5.6 5.6 0 105.6 5.6 5.6 5.6 0 00-5.6-5.6zm0 10a4.4 4.4 0 114.3-4.4 4.4 4.4 0 01-4.4 4.4z" fill-rule="evenodd" opacity=".5"/><path d="M665.4 6a5.6 5.6 0 105.6 5.6 5.6 5.6 0 00-5.6-5.6zm0 10a4.4 4.4 0 114.4-4.4 4.4 4.4 0 01-4.4 4.4z" fill-rule="evenodd"/><path d="M704 6a5.6 5.6 0 105.6 5.6A5.6 5.6 0 00704 6zm0 10a4.4 4.4 0 114.4-4.4A4.4 4.4 0 01704 16zm38.6 2a5.6 5.6 0 105.6 5.6 5.6 5.6 0 00-5.6-5.6zm0 10a4.4 4.4 0 114.4-4.4 4.4 4.4 0 01-4.4 4.4zm38.5-22a5.6 5.6 0 105.6 5.6 5.6 5.6 0 00-5.6-5.6zm0 10a4.4 4.4 0 114.4-4.4 4.4 4.4 0 01-4.4 4.4z" fill-rule="evenodd" opacity=".5"/><path d="M819.7 6a5.6 5.6 0 105.6 5.6 5.6 5.6 0 00-5.6-5.6zm0 10a4.4 4.4 0 114.4-4.4 4.4 4.4 0 01-4.4 4.4z" fill-rule="evenodd"/><path d="M858.3 18a5.6 5.6 0 105.6 5.6 5.6 5.6 0 00-5.6-5.6zm0 10a4.4 4.4 0 114.4-4.4 4.4 4.4 0 01-4.4 4.4z" fill-rule="evenodd" opacity=".5"/><path d="M896.9 6a5.6 5.6 0 105.6 5.6 5.6 5.6 0 00-5.6-5.6zm0 10a4.4 4.4 0 114.4-4.4 4.4 4.4 0 01-4.4 4.4z" fill-rule="evenodd"/><path d="M935.5 6a5.6 5.6 0 105.6 5.6 5.6 5.6 0 00-5.6-5.6zm0 10a4.4 4.4 0 114.3-4.4 4.4 4.4 0 01-4.3 4.4zm38.5 2a5.6 5.6 0 105.6 5.6A5.6 5.6 0 00974 18zm0 10a4.4 4.4 0 114.4-4.4A4.4 4.4 0 01974 28zm38.6-22a5.6 5.6 0 105.6 5.6 5.6 5.6 0 00-5.6-5.6zm0 10a4.4 4.4 0 114.4-4.4 4.4 4.4 0 01-4.4 4.4z" fill-rule="evenodd" opacity=".5"/><path d="M1051.2 6a5.6 5.6 0 105.6 5.6 5.6 5.6 0 00-5.6-5.6zm0 10a4.4 4.4 0 114.4-4.4 4.4 4.4 0 01-4.4 4.4z" fill-rule="evenodd"/><path d="M1089.8 6a5.6 5.6 0 105.6 5.6 5.6 5.6 0 00-5.7-5.6zm0 10a4.4 4.4 0 114.3-4.4 4.4 4.4 0 01-4.3 4.4zm38.5 2a5.6 5.6 0 105.6 5.6 5.6 5.6 0 00-5.6-5.6zm0 10a4.4 4.4 0 114.4-4.4 4.4 4.4 0 01-4.4 4.4zm38.6-22a5.6 5.6 0 105.6 5.6 5.6 5.6 0 00-5.6-5.6zm0 10a4.4 4.4 0 114.4-4.4 4.4 4.4 0 01-4.4 4.4z" fill-rule="evenodd" opacity=".5"/><path d="M1205.5 6a5.6 5.6 0 105.6 5.6 5.6 5.6 0 00-5.6-5.6zm0 10a4.4 4.4 0 114.4-4.4 4.4 4.4 0 01-4.4 4.4z" fill-rule="evenodd"/><path d="M1244 6a5.6 5.6 0 105.6 5.6 5.6 5.6 0 00-5.5-5.6zm0 10a4.4 4.4 0 114.4-4.4 4.4 4.4 0 01-4.4 4.4zm38.6 2a5.6 5.6 0 105.6 5.6 5.6 5.6 0 00-5.6-5.6zm0 10a4.4 4.4 0 114.4-4.4 4.4 4.4 0 01-4.4 4.4zm38.6-22a5.6 5.6 0 105.6 5.6 5.6 5.6 0 00-5.6-5.6zm0 10a4.4 4.4 0 114.4-4.4 4.4 4.4 0 01-4.4 4.4z" fill-rule="evenodd" opacity=".5"/><path d="M1359.8 6a5.6 5.6 0 105.6 5.6 5.6 5.6 0 00-5.6-5.6zm0 10a4.4 4.4 0 114.4-4.4 4.4 4.4 0 01-4.4 4.4z" fill-rule="evenodd"/><path d="M1398.3 6a5.6 5.6 0 105.6 5.6 5.6 5.6 0 00-5.6-5.6zm0 10a4.4 4.4 0 114.4-4.4 4.4 4.4 0 01-4.4 4.4zm38.7 2a5.6 5.6 0 105.5 5.6 5.6 5.6 0 00-5.6-5.6zm0 10a4.4 4.4 0 114.3-4.4 4.4 4.4 0 01-4.4 4.4zm38.5-22a5.6 5.6 0 105.6 5.6 5.6 5.6 0 00-5.6-5.6zm0 10a4.4 4.4 0 114.4-4.4 4.4 4.4 0 01-4.4 4.4z" fill-rule="evenodd" opacity=".5"/><path d="M1514 6a5.6 5.6 0 105.7 5.6A5.6 5.6 0 001514 6zm0 10a4.4 4.4 0 114.4-4.4 4.4 4.4 0 01-4.3 4.4z" fill-rule="evenodd"/><path d="M1552.7 6a5.6 5.6 0 105.6 5.6 5.6 5.6 0 00-5.6-5.6zm0 10a4.4 4.4 0 114.3-4.4 4.4 4.4 0 01-4.3 4.4zm38.5 2a5.6 5.6 0 105.6 5.6 5.6 5.6 0 00-5.6-5.6zm0 10a4.4 4.4 0 114.4-4.4 4.4 4.4 0 01-4.4 4.4zm38.6-22a5.6 5.6 0 105.6 5.6 5.6 5.6 0 00-5.6-5.6zm0 10a4.4 4.4 0 114.4-4.4 4.4 4.4 0 01-4.4 4.4z" fill-rule="evenodd" opacity=".5"/><path d="M1668.4 6a5.6 5.6 0 105.6 5.6 5.6 5.6 0 00-5.6-5.6zm0 10a4.4 4.4 0 114.4-4.4 4.4 4.4 0 01-4.4 4.4z" fill-rule="evenodd"/><path d="M1707 6a5.6 5.6 0 105.6 5.6A5.6 5.6 0 001707 6zm0 10a4.4 4.4 0 114.4-4.4 4.4 4.4 0 01-4.4 4.4zm38.5 2a5.6 5.6 0 105.6 5.6 5.6 5.6 0 00-5.6-5.6zm0 10a4.4 4.4 0 114.4-4.4 4.4 4.4 0 01-4.4 4.4zm38.6-22a5.6 5.6 0 105.6 5.6 5.6 5.6 0 00-5.6-5.6zm0 10a4.4 4.4 0 114.4-4.4 4.4 4.4 0 01-4.4 4.4z" fill-rule="evenodd" opacity=".5"/><path d="M1822.7 6a5.6 5.6 0 105.6 5.6 5.6 5.6 0 00-5.6-5.6zm0 10a4.4 4.4 0 114.4-4.4 4.4 4.4 0 01-4.4 4.4z" fill-rule="evenodd"/><path d="M1861.3 6a5.6 5.6 0 105.6 5.6 5.6 5.6 0 00-5.7-5.6zm0 10a4.4 4.4 0 114.3-4.4 4.4 4.4 0 01-4.3 4.4zm38.5 2a5.6 5.6 0 105.6 5.6 5.6 5.6 0 00-5.6-5.6zm0 10a4.4 4.4 0 114.4-4.4 4.4 4.4 0 01-4.4 4.4zm38.6-22a5.6 5.6 0 105.6 5.6 5.6 5.6 0 00-5.6-5.6zm0 10a4.4 4.4 0 114.4-4.4 4.4 4.4 0 01-4.4 4.4z" fill-rule="evenodd" opacity=".5"/><path d="M1977 6a5.6 5.6 0 105.6 5.6A5.6 5.6 0 001977 6zm0 10a4.4 4.4 0 114.4-4.4 4.4 4.4 0 01-4.4 4.4z" fill-rule="evenodd"/></g></svg>