<svg xmlns:xlink="http://www.w3.org/1999/xlink" preserveAspectRatio="xMidYMax slice" xmlns="http://www.w3.org/2000/svg" viewBox="0 0 2000.4 74.7" width="4219"  height="519" ><g fill="%23#27222A"><path d="M1967.2 65V0h-19.3v65a9.7 9.7 0 0019.3 0z" opacity=".5"/><path d="M1986.4 42.9V0h-19.3v42.9a9.6 9.6 0 1019.3 0zm14 30.8V0h-14v65a9.7 9.7 0 009.7 9.6 9.4 9.4 0 004.3-1zM1890 65V0h-19.3v65a9.6 9.6 0 1019.3 0zm38.6 0V0h-19.3v65a9.7 9.7 0 0019.3 0z" opacity=".5"/><path d="M1947.9 42.9V0h-19.3v42.9a9.6 9.6 0 0019.3 0z"/><path d="M1350 65V0h-19.3v65a9.6 9.6 0 1019.3 0z" opacity=".5"/><path d="M1369.3 42.9V0H1350v42.9a9.7 9.7 0 1019.3 0z"/><path d="M1388.6 65V0h-19.3v65a9.7 9.7 0 0019.3 0zm19.3-22.1V0h-19.3v42.9a9.6 9.6 0 0019.3 0zm-135 22.1V0h-19.3v65a9.6 9.6 0 0019.3 0zm38.5 0V0h-19.3v65a9.6 9.6 0 1019.3 0z" opacity=".5"/><path d="M1330.7 42.9V0h-19.3v42.9a9.7 9.7 0 0019.3 0z"/><path d="M1504.3 65V0H1485v65a9.7 9.7 0 1019.3 0z" opacity=".5"/><path d="M1523.6 42.9V0h-19.3v42.9a9.7 9.7 0 0019.3 0z"/><path d="M1542.9 65V0h-19.3v65a9.6 9.6 0 0019.3 0zm19.3-22.1V0h-19.3v42.9a9.7 9.7 0 0019.3 0zm-135 22.1V0h-19.3v65a9.7 9.7 0 0019.3 0zm38.5 0V0h-19.3v65a9.7 9.7 0 0019.3 0z" opacity=".5"/><path d="M1485 42.9V0h-19.3v42.9a9.6 9.6 0 1019.3 0z"/><path d="M1658.6 65V0h-19.3v65a9.7 9.7 0 0019.3 0z" opacity=".5"/><path d="M1677.9 42.9V0h-19.3v42.9a9.6 9.6 0 0019.3 0z"/><path d="M1697.2 65V0h-19.3v65a9.7 9.7 0 0019.3 0z" opacity=".5"/><path d="M1716.4 42.9V0h-19.3v42.9a9.6 9.6 0 1019.3 0zm-135 22.1V0h-19.3v65a9.6 9.6 0 1019.3 0zm38.6 0V0h-19.3v65a9.6 9.6 0 1019.3 0z" opacity=".5"/><path d="M1639.3 42.9V0H1620v42.9a9.7 9.7 0 1019.3 0z"/><path d="M1812.9 65V0h-19.3v65a9.6 9.6 0 0019.3 0z" opacity=".5"/><path d="M1832.2 42.9V0h-19.3v42.9a9.7 9.7 0 0019.3 0z"/><path d="M1851.4 65V0h-19.3v65a9.6 9.6 0 1019.3 0zm19.3-22.1V0h-19.3v42.9a9.7 9.7 0 0019.3 0zm-135 22.1V0h-19.3v65a9.7 9.7 0 0019.3 0zm38.6 0V0H1755v65a9.7 9.7 0 1019.3 0z" opacity=".5"/><path d="M1793.6 42.9V0h-19.3v42.9a9.7 9.7 0 0019.3 0z"/><path d="M732.9 65V0h-19.3v65a9.6 9.6 0 0019.3 0zm38.5 0V0h-19.3v65a9.6 9.6 0 1019.3 0z" opacity=".5"/><path d="M790.7 42.9V0h-19.3v42.9a9.7 9.7 0 0019.3 0z"/><path d="M655.7 65V0h-19.3v65a9.7 9.7 0 0019.3 0z" opacity=".5"/><path d="M675 42.9V0h-19.3v42.9a9.6 9.6 0 1019.3 0z"/><path d="M694.3 65V0H675v65a9.7 9.7 0 1019.3 0z" opacity=".5"/><path d="M713.6 42.9V0h-19.3v42.9a9.7 9.7 0 0019.3 0zM887.1 65V0H868v65a9.7 9.7 0 0019.3 0z" opacity=".5"/><path d="M906.4 42.9V0h-19.3v42.9a9.6 9.6 0 1019.3 0zM925.7 65V0h-19.3v65a9.7 9.7 0 0019.3 0z" opacity=".5"/><path d="M945 42.9V0h-19.3v42.9a9.6 9.6 0 1019.3 0z"/><path d="M810 65V0h-19.3v65a9.6 9.6 0 1019.3 0z" opacity=".5"/><path d="M829.3 42.9V0H810v42.9a9.7 9.7 0 1019.3 0z"/><path d="M848.6 65V0h-19.3v65a9.7 9.7 0 0019.3 0zm192.8 0V0h-19.3v65a9.6 9.6 0 1019.3 0z" opacity=".5"/><path d="M1060.7 42.9V0h-19.3v42.9a9.7 9.7 0 0019.3 0z"/><path d="M1080 65V0h-19.3v65a9.6 9.6 0 1019.3 0z" opacity=".5"/><path d="M1099.3 42.9V0H1080v42.9a9.7 9.7 0 1019.3 0zM964.3 65V0H945v65a9.7 9.7 0 1019.3 0zm38.6 0V0h-19.3v65a9.6 9.6 0 0019.3 0z" opacity=".5"/><path d="M1022.1 42.9V0H1003v42.9a9.7 9.7 0 0019.3 0z"/><path d="M1195.7 65V0h-19.3v65a9.7 9.7 0 0019.3 0z" opacity=".5"/><path d="M1215 42.9V0h-19.3v42.9a9.6 9.6 0 1019.3 0z"/><path d="M1234.3 65V0H1215v65a9.7 9.7 0 1019.3 0z" opacity=".5"/><path d="M1253.6 42.9V0h-19.3v42.9a9.7 9.7 0 0019.3 0zm-135 22.1V0h-19.3v65a9.7 9.7 0 0019.3 0zm38.6 0V0h-19.3v65a9.7 9.7 0 0019.3 0z" opacity=".5"/><path d="M1176.4 42.9V0h-19.3v42.9a9.6 9.6 0 1019.3 0z"/><path d="M115.7 65V0H96.4v65a9.7 9.7 0 0019.3 0zM135 42.9V0h-19.3v42.9a9.6 9.6 0 1019.3 0z" opacity=".5"/><path d="M154.3 65V0H135v65a9.7 9.7 0 1019.3 0z" opacity=".5"/><path d="M173.6 42.9V0h-19.3v42.9a9.7 9.7 0 0019.3 0z"/><path d="M38.6 65V0H19.3v65a9.7 9.7 0 0019.3 0z" opacity=".5"/><path d="M57.9 42.9V0H38.6v42.9a9.6 9.6 0 0019.3 0zm-38.6 0V0H0v42.9a9.6 9.6 0 0019.3 0z"/><path d="M77.2 65V0H57.9v65a9.7 9.7 0 0019.3 0zM270 65V0h-19.3v65a9.6 9.6 0 1019.3 0z" opacity=".5"/><path d="M289.3 42.9V0H270v42.9a9.7 9.7 0 1019.3 0z"/><path d="M308.6 65V0h-19.3v65a9.7 9.7 0 0019.3 0z" opacity=".5"/><path d="M327.9 42.9V0h-19.3v42.9a9.6 9.6 0 0019.3 0z"/><path d="M192.9 65V0h-19.3v65a9.6 9.6 0 0019.3 0zm38.5 0V0h-19.3v65a9.6 9.6 0 1019.3 0z" opacity=".5"/><path d="M250.7 42.9V0h-19.3v42.9a9.7 9.7 0 0019.3 0zM424.3 65V0H405v65a9.7 9.7 0 1019.3 0z" opacity=".5"/><path d="M443.6 42.9V0h-19.3v42.9a9.7 9.7 0 0019.3 0z"/><path d="M462.9 65V0h-19.3v65a9.6 9.6 0 0019.3 0zm-115.8 0V0H328v65a9.7 9.7 0 0019.3 0zm38.6 0V0h-19.3v65a9.7 9.7 0 0019.3 0zM405 42.9V0h-19.3v42.9a9.6 9.6 0 1019.3 0zM578.6 65V0h-19.3v65a9.7 9.7 0 0019.3 0z" opacity=".5"/><path d="M597.9 42.9V0h-19.3v42.9a9.6 9.6 0 0019.3 0z"/><path d="M617.1 65V0H598v65a9.7 9.7 0 0019.3 0zm-115.7 0V0h-19.3v65a9.6 9.6 0 1019.3 0z" opacity=".5"/><path d="M520.7 42.9V0h-19.3v42.9a9.7 9.7 0 0019.3 0z"/><path d="M540 65V0h-19.3v65a9.6 9.6 0 1019.3 0z" opacity=".5"/><path d="M559.3 42.9V0H540v42.9a9.7 9.7 0 1019.3 0z" opacity=".5"/><path d="M96.4 30.7V0H77.1v30.7a9.7 9.7 0 0019.3 0zm19.3-22.1V0H96.4v8.6a9.6 9.6 0 1019.3 0z"/><path d="M135 30.7V0h-19.3v30.7a9.7 9.7 0 1019.3 0z"/><path d="M154.3 8.6V0H135v8.6a9.7 9.7 0 0019.3 0zm-135 22.1V0H0v30.7a9.7 9.7 0 0019.3 0zM38.6 8.6V0H19.3v8.6a9.6 9.6 0 0019.3 0zm19.3 22.1V0H38.6v30.7a9.7 9.7 0 0019.3 0zM77.1 8.6V0H58v8.6a9.6 9.6 0 1019.2 0zm173.6 22.1V0h-19.3v30.7a9.6 9.6 0 1019.3 0z"/><path d="M270 8.6V0h-19.3v8.6a9.7 9.7 0 1019.3 0z"/><path d="M289.3 30.7V0H270v30.7a9.7 9.7 0 0019.3 0zm19.3-22.1V0h-19.3v8.6a9.6 9.6 0 0019.3 0zm-135 22.1V0h-19.3v30.7a9.6 9.6 0 0019.3 0zm19.3-22.1V0h-19.3v8.6a9.7 9.7 0 0019.3 0zm19.2 22.1V0H193v30.7a9.6 9.6 0 1019.2 0z"/><path d="M231.4 8.6V0h-19.3v8.6a9.7 9.7 0 0019.3 0zM405 30.7V0h-19.3v30.7a9.7 9.7 0 1019.3 0z"/><path d="M424.3 8.6V0H405v8.6a9.7 9.7 0 0019.3 0zm19.3 22.1V0h-19.3v30.7a9.6 9.6 0 0019.3 0z"/><path d="M462.9 8.6V0h-19.3v8.6a9.7 9.7 0 0019.3 0zm-135 22.1V0h-19.3v30.7a9.7 9.7 0 0019.3 0zm19.2-22.1V0H328v8.6a9.6 9.6 0 1019.2 0z"/><path d="M366.4 30.7V0h-19.3v30.7a9.7 9.7 0 0019.3 0zm19.3-22.1V0h-19.3v8.6a9.6 9.6 0 1019.3 0zm173.6 22.1V0H540v30.7a9.7 9.7 0 0019.3 0zm19.3-22.1V0h-19.3v8.6a9.6 9.6 0 0019.3 0zm19.3 22.1V0h-19.3v30.7a9.7 9.7 0 0019.3 0zm19.2-22.1V0H598v8.6a9.6 9.6 0 1019.2 0zm-135 22.1V0H463v30.7a9.6 9.6 0 1019.2 0z"/><path d="M501.4 8.6V0h-19.3v8.6a9.7 9.7 0 0019.3 0zm19.3 22.1V0h-19.3v30.7a9.6 9.6 0 1019.3 0z"/><path d="M540 8.6V0h-19.3v8.6a9.7 9.7 0 1019.3 0zm173.6 22.1V0h-19.3v30.7a9.6 9.6 0 0019.3 0zm19.3-22.1V0h-19.3v8.6a9.7 9.7 0 0019.3 0zm19.2 22.1V0H733v30.7a9.6 9.6 0 1019.2 0z"/><path d="M771.4 8.6V0h-19.3v8.6a9.7 9.7 0 0019.3 0zm-135 22.1V0h-19.3v30.7a9.7 9.7 0 0019.3 0zm19.3-22.1V0h-19.3v8.6a9.6 9.6 0 1019.3 0z"/><path d="M675 30.7V0h-19.3v30.7a9.7 9.7 0 1019.3 0z"/><path d="M694.3 8.6V0H675v8.6a9.7 9.7 0 0019.3 0zm173.6 22.1V0h-19.3v30.7a9.7 9.7 0 0019.3 0zm19.2-22.1V0H868v8.6a9.6 9.6 0 1019.2 0z"/><path d="M906.4 30.7V0h-19.3v30.7a9.7 9.7 0 0019.3 0zm19.3-22.1V0h-19.3v8.6a9.6 9.6 0 1019.3 0zm-135 22.1V0h-19.3v30.7a9.6 9.6 0 1019.3 0z"/><path d="M810 8.6V0h-19.3v8.6a9.7 9.7 0 1019.3 0z"/><path d="M829.3 30.7V0H810v30.7a9.7 9.7 0 0019.3 0zm19.3-22.1V0h-19.3v8.6a9.6 9.6 0 0019.3 0zm173.5 22.1V0H1003v30.7a9.6 9.6 0 1019.2 0z"/><path d="M1041.4 8.6V0h-19.3v8.6a9.7 9.7 0 0019.3 0zm19.3 22.1V0h-19.3v30.7a9.6 9.6 0 1019.3 0z"/><path d="M1080 8.6V0h-19.3v8.6a9.7 9.7 0 1019.3 0zM945 30.7V0h-19.3v30.7a9.7 9.7 0 1019.3 0z"/><path d="M964.3 8.6V0H945v8.6a9.7 9.7 0 0019.3 0zm19.3 22.1V0h-19.3v30.7a9.6 9.6 0 0019.3 0zm19.3-22.1V0h-19.3v8.6a9.7 9.7 0 0019.3 0zm173.5 22.1V0h-19.3v30.7a9.7 9.7 0 0019.3 0zm19.3-22.1V0h-19.3v8.6a9.6 9.6 0 1019.3 0z"/><path d="M1215 30.7V0h-19.3v30.7a9.7 9.7 0 1019.3 0z"/><path d="M1234.3 8.6V0H1215v8.6a9.7 9.7 0 0019.3 0zm-135 22.1V0H1080v30.7a9.7 9.7 0 0019.3 0zm19.3-22.1V0h-19.3v8.6a9.6 9.6 0 0019.3 0zm19.3 22.1V0h-19.3v30.7a9.7 9.7 0 0019.3 0zm19.2-22.1V0H1138v8.6a9.6 9.6 0 1019.2 0zm173.6 22.1V0h-19.3v30.7a9.6 9.6 0 1019.3 0z"/><path d="M1350 8.6V0h-19.3v8.6a9.7 9.7 0 1019.3 0z"/><path d="M1369.3 30.7V0H1350v30.7a9.7 9.7 0 0019.3 0zm19.3-22.1V0h-19.3v8.6a9.6 9.6 0 0019.3 0zm-135 22.1V0h-19.3v30.7a9.6 9.6 0 0019.3 0zm19.3-22.1V0h-19.3v8.6a9.7 9.7 0 0019.3 0zm19.2 22.1V0H1273v30.7a9.6 9.6 0 1019.2 0z"/><path d="M1311.4 8.6V0h-19.3v8.6a9.7 9.7 0 0019.3 0zM1485 30.7V0h-19.3v30.7a9.7 9.7 0 1019.3 0z"/><path d="M1504.3 8.6V0H1485v8.6a9.7 9.7 0 0019.3 0zm19.3 22.1V0h-19.3v30.7a9.6 9.6 0 0019.3 0zm19.3-22.1V0h-19.3v8.6a9.7 9.7 0 0019.3 0zm-135 22.1V0h-19.3v30.7a9.7 9.7 0 0019.3 0zm19.2-22.1V0H1408v8.6a9.6 9.6 0 1019.2 0z"/><path d="M1446.4 30.7V0h-19.3v30.7a9.7 9.7 0 0019.3 0zm19.3-22.1V0h-19.3v8.6a9.6 9.6 0 1019.3 0zm173.6 22.1V0H1620v30.7a9.7 9.7 0 0019.3 0zm19.3-22.1V0h-19.3v8.6a9.6 9.6 0 0019.3 0zm19.3 22.1V0h-19.3v30.7a9.7 9.7 0 0019.3 0zm19.2-22.1V0H1678v8.6a9.6 9.6 0 1019.2 0zm-135 22.1V0H1543v30.7a9.6 9.6 0 1019.2 0z"/><path d="M1581.4 8.6V0h-19.3v8.6a9.7 9.7 0 0019.3 0zm19.3 22.1V0h-19.3v30.7a9.6 9.6 0 1019.3 0z"/><path d="M1620 8.6V0h-19.3v8.6a9.7 9.7 0 1019.3 0zm173.6 22.1V0h-19.3v30.7a9.6 9.6 0 0019.3 0zm19.3-22.1V0h-19.3v8.6a9.7 9.7 0 0019.3 0zm19.2 22.1V0H1813v30.7a9.6 9.6 0 1019.2 0z"/><path d="M1851.4 8.6V0h-19.3v8.6a9.7 9.7 0 0019.3 0zm-135 22.1V0h-19.3v30.7a9.7 9.7 0 0019.3 0zm19.3-22.1V0h-19.3v8.6a9.6 9.6 0 1019.3 0z"/><path d="M1755 30.7V0h-19.3v30.7a9.7 9.7 0 1019.3 0z"/><path d="M1774.3 8.6V0H1755v8.6a9.7 9.7 0 0019.3 0zm173.6 22.1V0h-19.3v30.7a9.7 9.7 0 0019.3 0zm19.2-22.1V0H1948v8.6a9.6 9.6 0 1019.2 0z"/><path d="M1986.4 30.7V0h-19.3v30.7a9.7 9.7 0 0019.3 0zm14-13.5V0h-14v8.6a9.7 9.7 0 009.7 9.6 9.5 9.5 0 004.3-1zm-129.7 13.5V0h-19.3v30.7a9.6 9.6 0 1019.3 0z"/><path d="M1890 8.6V0h-19.3v8.6a9.7 9.7 0 1019.3 0z"/><path d="M1909.3 30.7V0H1890v30.7a9.7 9.7 0 0019.3 0zm19.3-22.1V0h-19.3v8.6a9.6 9.6 0 0019.3 0z"/><path d="M15.3 63a5.6 5.6 0 10-5.7 5.6 5.6 5.6 0 005.7-5.6zM14 63a4.4 4.4 0 11-4.4-4.4A4.4 4.4 0 0114 63z" fill-rule="evenodd" opacity=".5"/><path d="M53.8 63a5.6 5.6 0 10-5.6 5.6 5.6 5.6 0 005.6-5.6zm-1.2 0a4.4 4.4 0 11-4.4-4.4 4.4 4.4 0 014.4 4.5z" fill-rule="evenodd"/><path d="M92.4 51a5.6 5.6 0 10-5.6 5.6 5.6 5.6 0 005.6-5.6zm-1.2 0a4.4 4.4 0 11-4.4-4.4 4.4 4.4 0 014.4 4.5z" fill-rule="evenodd" opacity=".5"/><path d="M131 63a5.6 5.6 0 10-5.6 5.6A5.6 5.6 0 00131 63zm-1.2 0a4.4 4.4 0 11-4.4-4.4 4.4 4.4 0 014.4 4.5z" fill-rule="evenodd"/><path d="M169.6 63a5.6 5.6 0 10-5.6 5.6 5.6 5.6 0 005.6-5.6zm-1.3 0a4.4 4.4 0 11-4.3-4.3 4.4 4.4 0 014.3 4.4zm39.8-12a5.6 5.6 0 10-5.6 5.6 5.6 5.6 0 005.6-5.6zm-1.2 0a4.4 4.4 0 11-4.4-4.4A4.4 4.4 0 01207 51zm39.8 12a5.6 5.6 0 10-5.6 5.6 5.6 5.6 0 005.6-5.6zm-1.2 0a4.4 4.4 0 11-4.4-4.4 4.4 4.4 0 014.4 4.5z" fill-rule="evenodd" opacity=".5"/><path d="M285.3 63a5.6 5.6 0 10-5.6 5.6 5.6 5.6 0 005.6-5.6zm-1.2 0a4.4 4.4 0 11-4.4-4.4A4.4 4.4 0 01284 63z" fill-rule="evenodd"/><path d="M323.9 63a5.6 5.6 0 10-5.6 5.6 5.6 5.6 0 005.6-5.6zm-1.3 0a4.4 4.4 0 11-4.4-4.4 4.4 4.4 0 014.4 4.5zm39.8-12a5.6 5.6 0 10-5.6 5.6 5.6 5.6 0 005.6-5.6zm-1.2 0a4.4 4.4 0 11-4.4-4.4 4.4 4.4 0 014.4 4.5zM401 63a5.6 5.6 0 10-5.6 5.6A5.6 5.6 0 00401 63zm-1.2 0a4.4 4.4 0 11-4.4-4.4 4.4 4.4 0 014.4 4.5z" fill-rule="evenodd" opacity=".5"/><path d="M439.6 63a5.6 5.6 0 10-5.6 5.6 5.6 5.6 0 005.6-5.6zm-1.2 0a4.4 4.4 0 11-4.4-4.3 4.4 4.4 0 014.4 4.4z" fill-rule="evenodd"/><path d="M478.1 51a5.6 5.6 0 10-5.6 5.6 5.6 5.6 0 005.6-5.6zm-1.2 0a4.4 4.4 0 11-4.4-4.4A4.4 4.4 0 01477 51z" fill-rule="evenodd" opacity=".5"/><path d="M516.7 63a5.6 5.6 0 10-5.6 5.6 5.6 5.6 0 005.6-5.6zm-1.2 0a4.4 4.4 0 11-4.4-4.4 4.4 4.4 0 014.4 4.5z" fill-rule="evenodd"/><path d="M555.3 63a5.6 5.6 0 10-5.6 5.6 5.6 5.6 0 005.6-5.6zm-1.2 0a4.4 4.4 0 11-4.4-4.4 4.4 4.4 0 014.4 4.5z" fill-rule="evenodd" opacity=".5"/><path d="M593.9 63a5.6 5.6 0 10-5.6 5.6 5.6 5.6 0 005.6-5.6zm-1.2 0a4.4 4.4 0 11-4.4-4.4 4.4 4.4 0 014.4 4.5z" fill-rule="evenodd"/><path d="M632.5 51a5.6 5.6 0 10-5.6 5.6 5.6 5.6 0 005.6-5.6zm-1.3 0a4.4 4.4 0 11-4.4-4.4 4.4 4.4 0 014.4 4.5z" fill-rule="evenodd" opacity=".5"/><path d="M671 63a5.6 5.6 0 10-5.6 5.6A5.6 5.6 0 00671 63zm-1.2 0a4.4 4.4 0 11-4.4-4.4 4.4 4.4 0 014.4 4.5z" fill-rule="evenodd"/><path d="M709.6 63a5.6 5.6 0 10-5.6 5.6 5.6 5.6 0 005.6-5.6zm-1.2 0a4.4 4.4 0 11-4.4-4.3 4.4 4.4 0 014.4 4.4zm39.8-12a5.6 5.6 0 10-5.6 5.6 5.6 5.6 0 005.6-5.6zm-1.2 0a4.4 4.4 0 11-4.4-4.4A4.4 4.4 0 01747 51zm39.8 12a5.6 5.6 0 10-5.6 5.6 5.6 5.6 0 005.5-5.6zm-1.3 0a4.4 4.4 0 11-4.4-4.4 4.4 4.4 0 014.4 4.5z" fill-rule="evenodd" opacity=".5"/><path d="M825.3 63a5.6 5.6 0 10-5.6 5.6 5.6 5.6 0 005.6-5.6zm-1.2 0a4.4 4.4 0 11-4.4-4.4 4.4 4.4 0 014.4 4.5z" fill-rule="evenodd"/><path d="M863.9 51a5.6 5.6 0 10-5.6 5.6 5.6 5.6 0 005.6-5.6zm-1.2 0a4.4 4.4 0 11-4.4-4.4 4.4 4.4 0 014.4 4.5z" fill-rule="evenodd" opacity=".5"/><path d="M902.5 63a5.6 5.6 0 10-5.6 5.6 5.6 5.6 0 005.6-5.6zm-1.2 0a4.4 4.4 0 11-4.4-4.4 4.4 4.4 0 014.4 4.5z" fill-rule="evenodd"/><path d="M941 63a5.6 5.6 0 10-5.6 5.6A5.6 5.6 0 00941 63zm-1.2 0a4.4 4.4 0 11-4.4-4.4 4.4 4.4 0 014.4 4.5zm39.8-12a5.6 5.6 0 10-5.6 5.6 5.6 5.6 0 005.6-5.6zm-1.2 0a4.4 4.4 0 11-4.4-4.3 4.4 4.4 0 014.4 4.4zm39.8 12a5.6 5.6 0 10-5.6 5.6 5.6 5.6 0 005.6-5.6zm-1.2 0a4.4 4.4 0 11-4.4-4.4 4.4 4.4 0 014.4 4.5z" fill-rule="evenodd" opacity=".5"/><path d="M1056.8 63a5.6 5.6 0 10-5.6 5.6 5.6 5.6 0 005.6-5.6zm-1.2 0a4.4 4.4 0 11-4.4-4.4 4.4 4.4 0 014.3 4.5z" fill-rule="evenodd"/><path d="M1095.3 63a5.6 5.6 0 10-5.6 5.6 5.6 5.6 0 005.6-5.6zm-1.2 0a4.4 4.4 0 11-4.4-4.4 4.4 4.4 0 014.4 4.5zm39.9-12a5.6 5.6 0 10-5.7 5.6 5.6 5.6 0 005.6-5.6zm-1.3 0a4.4 4.4 0 11-4.4-4.4 4.4 4.4 0 014.4 4.5zm39.8 12a5.6 5.6 0 10-5.6 5.6 5.6 5.6 0 005.6-5.6zm-1.2 0a4.4 4.4 0 11-4.4-4.4 4.4 4.4 0 014.4 4.5z" fill-rule="evenodd" opacity=".5"/><path d="M1211 63a5.6 5.6 0 10-5.5 5.6 5.6 5.6 0 005.6-5.6zm-1.2 0a4.4 4.4 0 11-4.3-4.4 4.4 4.4 0 014.3 4.5z" fill-rule="evenodd"/><path d="M1249.7 63a5.6 5.6 0 10-5.6 5.6 5.6 5.6 0 005.6-5.6zm-1.3 0a4.4 4.4 0 11-4.4-4.4 4.4 4.4 0 014.4 4.5zm39.8-12a5.6 5.6 0 10-5.6 5.6 5.6 5.6 0 005.6-5.6zm-1.2 0a4.4 4.4 0 11-4.4-4.4 4.4 4.4 0 014.4 4.5zm39.8 12a5.6 5.6 0 10-5.6 5.6 5.6 5.6 0 005.6-5.6zm-1.2 0a4.4 4.4 0 11-4.4-4.4 4.4 4.4 0 014.4 4.5z" fill-rule="evenodd" opacity=".5"/><path d="M1365.4 63a5.6 5.6 0 10-5.6 5.6 5.6 5.6 0 005.6-5.6zm-1.2 0a4.4 4.4 0 11-4.4-4.4 4.4 4.4 0 014.4 4.5z" fill-rule="evenodd"/><path d="M1404 63a5.6 5.6 0 10-5.6 5.6 5.6 5.6 0 005.6-5.6zm-1.2 0a4.4 4.4 0 11-4.4-4.4 4.4 4.4 0 014.3 4.5zm39.7-12a5.6 5.6 0 10-5.6 5.6 5.6 5.6 0 005.6-5.6zm-1.2 0a4.4 4.4 0 11-4.4-4.4 4.4 4.4 0 014.4 4.5zm39.8 12a5.6 5.6 0 10-5.6 5.6 5.6 5.6 0 005.6-5.6zm-1.2 0a4.4 4.4 0 11-4.4-4.4 4.4 4.4 0 014.4 4.5z" fill-rule="evenodd" opacity=".5"/><path d="M1519.7 63a5.6 5.6 0 10-5.6 5.6 5.6 5.6 0 005.6-5.6zm-1.2 0a4.4 4.4 0 11-4.4-4.4 4.4 4.4 0 014.4 4.5z" fill-rule="evenodd"/><path d="M1558.3 63a5.6 5.6 0 10-5.6 5.6 5.6 5.6 0 005.5-5.6zm-1.3 0a4.4 4.4 0 11-4.4-4.4 4.4 4.4 0 014.4 4.5zm39.8-12a5.6 5.6 0 10-5.6 5.6 5.6 5.6 0 005.6-5.6zm-1.2 0a4.4 4.4 0 11-4.4-4.4 4.4 4.4 0 014.4 4.5zm39.8 12a5.6 5.6 0 10-5.6 5.6 5.6 5.6 0 005.6-5.6zm-1.2 0a4.4 4.4 0 11-4.4-4.4 4.4 4.4 0 014.4 4.5z" fill-rule="evenodd" opacity=".5"/><path d="M1674 63a5.6 5.6 0 10-5.6 5.6 5.6 5.6 0 005.6-5.6zm-1.2 0a4.4 4.4 0 11-4.4-4.4 4.4 4.4 0 014.3 4.5z" fill-rule="evenodd"/><path d="M1712.5 63a5.6 5.6 0 10-5.6 5.6 5.6 5.6 0 005.6-5.6zm-1.2 0a4.4 4.4 0 11-4.4-4.4 4.4 4.4 0 014.4 4.5zm39.8-12a5.6 5.6 0 10-5.6 5.6 5.6 5.6 0 005.6-5.6zm-1.2 0a4.4 4.4 0 11-4.4-4.4 4.4 4.4 0 014.4 4.5zm39.8 12a5.6 5.6 0 10-5.6 5.6 5.6 5.6 0 005.6-5.6zm-1.2 0a4.4 4.4 0 11-4.4-4.4 4.4 4.4 0 014.4 4.5z" fill-rule="evenodd" opacity=".5"/><path d="M1828.3 63a5.6 5.6 0 10-5.6 5.6 5.6 5.6 0 005.6-5.6zm-1.2 0a4.4 4.4 0 11-4.4-4.4 4.4 4.4 0 014.3 4.5z" fill-rule="evenodd"/><path d="M1866.8 63a5.6 5.6 0 10-5.6 5.6 5.6 5.6 0 005.6-5.6zm-1.2 0a4.4 4.4 0 11-4.4-4.4 4.4 4.4 0 014.4 4.5zm39.8-12a5.6 5.6 0 10-5.6 5.6 5.6 5.6 0 005.6-5.6zm-1.2 0a4.4 4.4 0 11-4.4-4.4 4.4 4.4 0 014.4 4.5zm39.8 12a5.6 5.6 0 10-5.6 5.6 5.6 5.6 0 005.6-5.6zm-1.2 0a4.4 4.4 0 11-4.4-4.4 4.4 4.4 0 014.4 4.5z" fill-rule="evenodd" opacity=".5"/><path d="M1982.6 63a5.6 5.6 0 10-5.6 5.6 5.6 5.6 0 005.6-5.6zm-1.2 0a4.4 4.4 0 11-4.4-4.4 4.4 4.4 0 014.3 4.5z" fill-rule="evenodd"/></g></svg>