<svg xmlns:xlink="http://www.w3.org/1999/xlink" preserveAspectRatio="none" xmlns="http://www.w3.org/2000/svg" viewBox="0 0 2000 54" width="4000"  height="108" ><g fill="#AEC7D6"><path d="M1990 17l-59 34-57-33-2-1-59 34-59-34-5-3-4 3-59 34-59-34-59 34-59-34-2-1-2 1-59 34-59-34-59 34-59-34-4-3-5 3-59 34-58-34h-1l-59 34-59-34-2-1-2 1-58 34-59-34h-1l-59 34-58-34-5-3-4 3-59 34-59-34-59 34-59-34-2-1-2 1-59 34-59-34-59 34-59-34-4-3-5 3-59 34-59-34-59 34-59-34L0 49V0h2000v11l-10 6z"/><path opacity=".2" d="M73 50L60 28h25L73 50 60 28h25L73 50z"/><path opacity=".5" d="M89 54L76 33h26L89 54 76 33h26L89 54z"/><path opacity=".2" d="M38 50l13-22H25l13 22 13-22H25l13 22zm-22 3l4-8h-9l5 8 4-8h-9l5 8zm80 0l5-8H91l5 8 5-8H91l5 8zM55 25L38 54h34L55 25 38 54h34L55 25z"/><path opacity=".5" d="M23 54l12-21H10l13 21 12-21H10l13 21z"/><path opacity=".2" d="M55 43l17-29H38l17 29 17-29H38l17 29zm118 0l17-29h-34l17 29 17-29h-34l17 29zm122 0l17-29h-33l16 29 17-29h-33l16 29zm123 0l17-29h-34l17 29 17-29h-34l17 29zm121 0l17-29h-33l16 29 17-29h-33l16 29zm119 0l17-29h-34l17 29 17-29h-34l17 29zm122 0l17-29h-34l17 29 17-29h-34l17 29zm123 0l17-29h-34l17 29 17-29h-34l17 29zm120 0l17-29h-33l16 29 17-29h-33l16 29zm120 0l16-29h-33l17 29 16-29h-33l17 29zm122 0l17-29h-34l17 29 17-29h-34l17 29zm122 0l17-29h-34l17 29 17-29h-34l17 29zm120 0l17-29h-33l16 29 17-29h-33l16 29zm120 0l17-29h-33l16 29 17-29h-33l16 29zm123 0l17-29h-34l17 29 17-29h-34l17 29zm123 0l16-29h-33l17 29 16-29h-33l17 29zm127 0V14h-16l16 29z"/><path opacity=".2" d="M191 50l-13-22h25l-12 22-13-22h25l-12 22z"/><path opacity=".5" d="M207 54l-13-21h26l-13 21-13-21h26l-13 21z"/><path opacity=".2" d="M156 50l13-22h-26l13 22 13-22h-26l13 22zm-22 3l4-8h-9l5 8 4-8h-9l5 8zm80 0l5-8h-10l5 8 5-8h-10l5 8zm-41-28l-17 29h34l-17-29-17 29h34l-17-29z"/><path opacity=".5" d="M141 54l12-21h-25l13 21 12-21h-25l13 21z"/><path opacity=".2" d="M313 50l-13-22h26l-13 22-13-22h26l-13 22z"/><path opacity=".5" d="M329 54l-13-21h26l-13 21-13-21h26l-13 21z"/><path opacity=".2" d="M278 50l13-22h-26l13 22 13-22h-26l13 22zm-22 3l5-8h-10l5 8 5-8h-10l5 8zm80 0l5-8h-9l4 8 5-8h-9l4 8zm-41-28l-16 29h33l-17-29-16 29h33l-17-29z"/><path opacity=".5" d="M263 54l13-21h-26l13 21 13-21h-26l13 21z"/><path opacity=".2" d="M435 50l-13-22h26l-13 22-13-22h26l-13 22z"/><path opacity=".5" d="M451 54l-12-21h25l-13 21-12-21h25l-13 21z"/><path opacity=".2" d="M400 50l13-22h-25l12 22 13-22h-25l12 22zm-22 3l5-8h-10l5 8 5-8h-10l5 8zm81 0l4-8h-9l5 8 4-8h-9l5 8zm-41-28l-17 29h33l-16-29-17 29h33l-16-29z"/><path opacity=".5" d="M385 54l13-21h-26l13 21 13-21h-26l13 21z"/><path opacity=".2" d="M555 50l-12-22h25l-13 22-12-22h25l-13 22z"/><path opacity=".5" d="M572 54l-13-21h25l-12 21-13-21h25l-12 21z"/><path opacity=".2" d="M521 50l12-22h-25l13 22 12-22h-25l13 22zm-23 3l5-8h-9l4 8 5-8h-9l4 8zm81 0l5-8h-10l5 8 5-8h-10l5 8zm-41-28l-17 29h34l-17-29-17 29h34l-17-29z"/><path opacity=".5" d="M505 54l13-21h-25l12 21 13-21h-25l12 21z"/><path opacity=".2" d="M675 50l-13-22h25l-12 22-13-22h25l-12 22z"/><path opacity=".5" d="M691 54l-13-21h26l-13 21-13-21h26l-13 21z"/><path opacity=".2" d="M640 50l13-22h-26l13 22 13-22h-26l13 22zm-22 3l4-8h-9l5 8 4-8h-9l5 8zm80 0l5-8h-10l5 8 5-8h-10l5 8zm-41-28l-17 29h34l-17-29-17 29h34l-17-29z"/><path opacity=".5" d="M625 54l12-21h-25l13 21 12-21h-25l13 21z"/><path opacity=".2" d="M797 50l-13-22h26l-13 22-13-22h26l-13 22z"/><path opacity=".5" d="M813 54l-13-21h26l-13 21-13-21h26l-13 21z"/><path opacity=".2" d="M762 50l13-22h-26l13 22 13-22h-26l13 22zm-22 3l5-8h-10l5 8 5-8h-10l5 8zm80 0l5-8h-9l4 8 5-8h-9l4 8zm-41-28l-16 29h33l-17-29-16 29h33l-17-29z"/><path opacity=".5" d="M747 54l13-21h-26l13 21 13-21h-26l13 21z"/><path opacity=".2" d="M920 50l-13-22h26l-13 22-13-22h26l-13 22z"/><path opacity=".5" d="M936 54l-12-21h25l-13 21-12-21h25l-13 21z"/><path opacity=".2" d="M885 50l13-22h-25l12 22 13-22h-25l12 22zm-22 3l5-8h-10l5 8 5-8h-10l5 8zm81 0l4-8h-9l5 8 4-8h-9l5 8zm-41-28l-17 29h33l-16-29-17 29h33l-16-29z"/><path opacity=".5" d="M870 54l13-21h-26l13 21 13-21h-26l13 21z"/><path opacity=".2" d="M1040 50l-12-22h25l-13 22-12-22h25l-13 22z"/><path opacity=".5" d="M1057 54l-13-21h25l-12 21-13-21h25l-12 21z"/><path opacity=".2" d="M1006 50l12-22h-25l13 22 12-22h-25l13 22zm-23 3l5-8h-9l4 8 5-8h-9l4 8zm81 0l5-8h-10l5 8 5-8h-10l5 8zm-41-28l-17 29h34l-17-29-17 29h34l-17-29z"/><path opacity=".5" d="M990 54l13-21h-25l12 21 13-21h-25l12 21z"/><path opacity=".2" d="M1160 50l-13-22h25l-12 22-13-22h25l-12 22z"/><path opacity=".5" d="M1176 54l-13-21h25l-12 21-13-21h25l-12 21z"/><path opacity=".2" d="M1125 50l12-22h-25l13 22 12-22h-25l13 22zm-22 3l4-8h-9l5 8 4-8h-9l5 8zm80 0l5-8h-10l5 8 5-8h-10l5 8zm-41-28l-17 29h34l-17-29-17 29h34l-17-29z"/><path opacity=".5" d="M1110 54l12-21h-25l13 21 12-21h-25l13 21z"/><path opacity=".2" d="M1282 50l-13-22h25l-12 22-13-22h25l-12 22z"/><path opacity=".5" d="M1298 54l-13-21h26l-13 21-13-21h26l-13 21z"/><path opacity=".2" d="M1247 50l13-22h-26l13 22 13-22h-26l13 22zm-22 3l4-8h-9l5 8 4-8h-9l5 8zm80 0l5-8h-10l5 8 5-8h-10l5 8zm-41-28l-17 29h34l-17-29-17 29h34l-17-29z"/><path opacity=".5" d="M1232 54l12-21h-25l13 21 12-21h-25l13 21z"/><path opacity=".2" d="M1404 50l-13-22h25l-12 22-13-22h25l-12 22z"/><path opacity=".5" d="M1420 54l-13-21h26l-13 21-13-21h26l-13 21z"/><path opacity=".2" d="M1369 50l13-22h-26l13 22 13-22h-26l13 22zm-22 3l5-8h-10l5 8 5-8h-10l5 8zm80 0l5-8h-9l4 8 5-8h-9l4 8zm-41-28l-16 29h33l-17-29-16 29h33l-17-29z"/><path opacity=".5" d="M1354 54l12-21h-25l13 21 12-21h-25l13 21z"/><path opacity=".2" d="M1524 50l-12-22h25l-13 22-12-22h25l-13 22z"/><path opacity=".5" d="M1540 54l-12-21h25l-13 21-12-21h25l-13 21z"/><path opacity=".2" d="M1489 50l13-22h-25l12 22 13-22h-25l12 22zm-22 3l5-8h-9l4 8 5-8h-9l4 8zm81 0l4-8h-9l5 8 4-8h-9l5 8zm-41-28l-17 29h34l-17-29-17 29h34l-17-29z"/><path opacity=".5" d="M1474 54l13-21h-25l12 21 13-21h-25l12 21z"/><path opacity=".2" d="M1644 50l-12-22h25l-13 22-12-22h25l-13 22z"/><path opacity=".5" d="M1660 54l-12-21h25l-13 21-12-21h25l-13 21z"/><path opacity=".2" d="M1609 50l13-22h-25l12 22 13-22h-25l12 22zm-22 3l5-8h-9l4 8 5-8h-9l4 8zm81 0l4-8h-9l5 8 4-8h-9l5 8zm-41-28l-17 29h34l-17-29-17 29h34l-17-29z"/><path opacity=".5" d="M1594 54l13-21h-25l12 21 13-21h-25l12 21z"/><path opacity=".2" d="M1767 50l-13-22h26l-13 22-13-22h26l-13 22z"/><path opacity=".5" d="M1783 54l-13-21h26l-13 21-13-21h26l-13 21z"/><path opacity=".2" d="M1732 50l13-22h-26l13 22 13-22h-26l13 22zm-22 3l5-8h-10l5 8 5-8h-10l5 8zm80 0l5-8h-9l4 8 5-8h-9l4 8zm-41-28l-16 29h33l-17-29-16 29h33l-17-29z"/><path opacity=".5" d="M1717 54l13-21h-26l13 21 13-21h-26l13 21z"/><path opacity=".2" d="M1889 50l-12-22h25l-13 22-12-22h25l-13 22z"/><path opacity=".5" d="M1906 54l-13-21h25l-12 21-13-21h25l-12 21z"/><path opacity=".2" d="M1855 50l12-22h-25l13 22 12-22h-25l13 22zm-22 3l4-8h-9l5 8 4-8h-9l5 8zm80 0l5-8h-10l5 8 5-8h-10l5 8zm-41-28l-17 29h34l-17-29-17 29h34l-17-29z"/><path opacity=".5" d="M1839 54l13-21h-25l12 21 13-21h-25l12 21z"/><path opacity=".2" d="M1983 50l13-22h-26l13 22 13-22h-26l13 22zm-22 3l5-8h-10l5 8 5-8h-10l5 8zm39 1V25l-16 29h16z"/><path opacity=".5" d="M1968 54l12-21h-25l13 21 12-21h-25l13 21z"/></g></svg>