<svg preserveAspectRatio="xMidYMax slice" xmlns="http://www.w3.org/2000/svg" viewBox="0 0 2000 100"><g fill="%23fbd8c2"><path d="M1008 57.6a10 10 0 00.5-3 10.1 10.1 0 00-20.3 0 9.7 9.7 0 00.5 3h-38.9a9.7 9.7 0 00.5-3 10.1 10.1 0 00-20.2 0 10 10 0 00.5 3h-38.9a9.7 9.7 0 00.5-3 10.1 10.1 0 00-20.2 0 10 10 0 00.5 3h-38.9a10 10 0 00.5-3 10.1 10.1 0 00-20.3 0 9.7 9.7 0 00.5 3h-38.8a9.7 9.7 0 00.5-3 10.1 10.1 0 00-20.3 0 10 10 0 00.5 3h-38.9a9.7 9.7 0 00.5-3 10.1 10.1 0 00-20.2 0 10 10 0 00.5 3h-38.9a10 10 0 00.5-3 10.1 10.1 0 00-20.2 0 9.7 9.7 0 00.5 3h-39a10 10 0 00.6-3 10.1 10.1 0 00-20.3 0 10 10 0 00.5 3H543a10 10 0 00.5-3 10.1 10.1 0 00-20.3 0 10 10 0 00.5 3h-38.8a9.7 9.7 0 00.5-3 10.1 10.1 0 00-20.3 0 10 10 0 00.5 3h-38.9a10 10 0 00.5-3 10.1 10.1 0 00-20.2 0 9.7 9.7 0 00.5 3h-38.9a10 10 0 00.5-3 10.1 10.1 0 00-20.2 0 10 10 0 00.4 3h-38.8a9.7 9.7 0 00.5-3 10.1 10.1 0 00-20.3 0 10 10 0 00.5 3h-38.8a10 10 0 00.4-3 10.1 10.1 0 00-20.2 0 9.7 9.7 0 00.5 3h-38.9a10 10 0 00.5-3 10.1 10.1 0 00-20.2 0 9.7 9.7 0 00.5 3H136a9.7 9.7 0 00.5-3 10.1 10.1 0 00-20.3 0 10 10 0 00.5 3H78a10 10 0 00.5-3 10.1 10.1 0 00-20.3 0 10 10 0 00.5 3H19.8a10 10 0 00.4-3 10 10 0 00-10-10A10 10 0 000 54.5V34.8h27.9a10.1 10.1 0 0020.2 0H86a10.1 10.1 0 0020.3 0H144a10.1 10.1 0 0020.3 0h37.9a10.1 10.1 0 0020.2 0h37.9a10.1 10.1 0 0020.3 0h37.8a10.1 10.1 0 0020.3 0h37.9a10.1 10.1 0 0020.2 0h37.9a10.1 10.1 0 0020.2 0h38a10.1 10.1 0 0020.2 0H551a10.1 10.1 0 0020.3 0h37.8a10.1 10.1 0 0020.3 0h37.9a10.1 10.1 0 0020.2 0h37.9a10.1 10.1 0 0020.2 0h38a10.1 10.1 0 0020.2 0h37.8a10.1 10.1 0 0020.3 0h37.9a10.1 10.1 0 0020.2 0H958a10.1 10.1 0 0020.3 0h33.5v22.7zM0 57.6v-3a9.7 9.7 0 00.5 3z" opacity=".3"/><path d="M968.1 24.9a10 10 0 00-10.1 10H920a10.1 10.1 0 00-20.2 0H862a10.1 10.1 0 00-20.2 0h-38a10.1 10.1 0 00-20.2 0h-37.9a10.1 10.1 0 00-20.2 0h-37.9a10.1 10.1 0 00-20.2 0h-38a10.1 10.1 0 00-20.2 0h-37.9a10.1 10.1 0 00-20.2 0h-38a10.1 10.1 0 00-20.2 0H455a10.1 10.1 0 00-20.3 0H397a10.1 10.1 0 00-20.2 0h-38a10.1 10.1 0 00-20.2 0h-37.9a10.1 10.1 0 00-20.2 0h-37.9a10.1 10.1 0 00-20.2 0h-37.9a10.1 10.1 0 00-20.3 0h-37.8a10.1 10.1 0 00-20.3 0H48.1a10.1 10.1 0 00-20.2 0H0V14a10 10 0 0010.1 10 10 10 0 0010.2-10H58a10.1 10.1 0 0020.3 0h37.9a10.1 10.1 0 0020.2 0h37.9a10.1 10.1 0 0020.2 0h38a10.1 10.1 0 0020.1 0h38a10.1 10.1 0 0020.2 0h37.9a10.1 10.1 0 0020.2 0H407a10.1 10.1 0 0020.2 0H465a10.1 10.1 0 0020.2 0h38a10.1 10.1 0 0020.2 0h38a10.1 10.1 0 0020.2 0h37.8a10.1 10.1 0 0020.3 0h37.9a10.1 10.1 0 0020.2 0h37.9a10.1 10.1 0 0020.2 0h38a10.1 10.1 0 0020.2 0H872a10.1 10.1 0 0020.2 0h38a10.1 10.1 0 0020.2 0h37.9a10.1 10.1 0 0020.2 0h3.3v20.8h-33.6a10 10 0 00-10-10z" opacity=".5"/><path d="M968.1 24.9a10 10 0 00-10.1 10H920a10.1 10.1 0 00-20.2 0H862a10.1 10.1 0 00-20.2 0h-38a10.1 10.1 0 00-20.2 0h-37.9a10.1 10.1 0 00-20.2 0h-37.9a10.1 10.1 0 00-20.2 0h-38a10.1 10.1 0 00-20.2 0h-37.9a10.1 10.1 0 00-20.2 0h-38a10.1 10.1 0 00-20.2 0H455a10.1 10.1 0 00-20.3 0H397a10.1 10.1 0 00-20.2 0h-38a10.1 10.1 0 00-20.2 0h-37.9a10.1 10.1 0 00-20.2 0h-37.9a10.1 10.1 0 00-20.2 0h-37.9a10.1 10.1 0 00-20.3 0h-37.8a10.1 10.1 0 00-20.3 0H48.1a10.1 10.1 0 00-20.2 0H0V14a10 10 0 0010.1 10 10 10 0 0010.2-10H58a10.1 10.1 0 0020.3 0h37.9a10.1 10.1 0 0020.2 0h37.9a10.1 10.1 0 0020.2 0h38a10.1 10.1 0 0020.1 0h38a10.1 10.1 0 0020.2 0h37.9a10.1 10.1 0 0020.2 0H407a10.1 10.1 0 0020.2 0H465a10.1 10.1 0 0020.2 0h38a10.1 10.1 0 0020.2 0h38a10.1 10.1 0 0020.2 0h37.8a10.1 10.1 0 0020.3 0h37.9a10.1 10.1 0 0020.2 0h37.9a10.1 10.1 0 0020.2 0h38a10.1 10.1 0 0020.2 0H872a10.1 10.1 0 0020.2 0h38a10.1 10.1 0 0020.2 0h37.9a10.1 10.1 0 0020.2 0h3.3v20.8h-33.6a10 10 0 00-10-10zM533.3 64.5a10.1 10.1 0 01-9.7-6.9H543a10.1 10.1 0 01-9.6 7zM533.3 44.6a10 10 0 0110 10 10 10 0 01-.4 3h-19.3a10 10 0 01-.5-3 10 10 0 0110.2-10z" opacity=".3"/><path d="M533.3 44.6a10 10 0 0110 10 10 10 0 01-.4 3h-19.3a10 10 0 01-.5-3 10 10 0 0110.2-10zM503 44.9a10 10 0 01-10.1-10H513a10 10 0 01-10.1 10z" opacity=".3"/><path d="M503 44.9a10 10 0 01-10.1-10H513a10 10 0 01-10.1 10zM503 24.9a10 10 0 0110.1 10H493a10 10 0 0110.1-10z" opacity=".5"/><path d="M503 24.9a10 10 0 0110.1 10H493a10 10 0 0110.1-10z" opacity=".3"/><path d="M503 24.9a10 10 0 0110.1 10H493a10 10 0 0110.1-10z" opacity=".5"/><path d="M475.1 64.5a10.1 10.1 0 01-9.6-6.9h19.3a10.1 10.1 0 01-9.7 7zM475.1 44.6a10 10 0 0110.2 10 9.7 9.7 0 01-.5 3h-19.3a10 10 0 01-.5-3 10 10 0 0110.1-10z" opacity=".3"/><path d="M475.1 44.6a10 10 0 0110.2 10 9.7 9.7 0 01-.5 3h-19.3a10 10 0 01-.5-3 10 10 0 0110.1-10zM445 44.9a10 10 0 01-10.2-10H455a10 10 0 01-10 10z" opacity=".3"/><path d="M445 44.9a10 10 0 01-10.2-10H455a10 10 0 01-10 10zM445 24.9a10 10 0 0110 10h-20.2a10 10 0 0110.1-10z" opacity=".5"/><path d="M445 24.9a10 10 0 0110 10h-20.2a10 10 0 0110.1-10z" opacity=".3"/><path d="M445 24.9a10 10 0 0110 10h-20.2a10 10 0 0110.1-10z" opacity=".5"/><path d="M417 64.5a10.1 10.1 0 01-9.6-6.9h19.2a10.1 10.1 0 01-9.6 7zM417 44.6a10 10 0 0110.1 10 10 10 0 01-.5 3h-19.2a9.7 9.7 0 01-.5-3 10 10 0 0110.1-10z" opacity=".3"/><path d="M417 44.6a10 10 0 0110.1 10 10 10 0 01-.5 3h-19.2a9.7 9.7 0 01-.5-3 10 10 0 0110.1-10zM386.8 44.9a10 10 0 01-10.1-10h20.2a10 10 0 01-10.1 10z" opacity=".3"/><path d="M386.8 44.9a10 10 0 01-10.1-10h20.2a10 10 0 01-10.1 10zM386.8 24.9a10 10 0 0110.1 10h-20.2a10 10 0 0110-10z" opacity=".5"/><path d="M386.8 24.9a10 10 0 0110.1 10h-20.2a10 10 0 0110-10z" opacity=".3"/><path d="M386.8 24.9a10 10 0 0110.1 10h-20.2a10 10 0 0110-10z" opacity=".5"/><path d="M358.9 64.5a10.1 10.1 0 01-9.6-6.9h19.2a10.1 10.1 0 01-9.6 7zM358.9 44.6a10 10 0 0110.1 10 10 10 0 01-.5 3h-19.3a10 10 0 01-.4-3 10 10 0 0110-10z" opacity=".3"/><path d="M358.9 44.6a10 10 0 0110.1 10 10 10 0 01-.5 3h-19.3a10 10 0 01-.4-3 10 10 0 0110-10zM328.6 44.9a10 10 0 01-10-10h20.2a10 10 0 01-10.2 10z" opacity=".3"/><path d="M328.6 44.9a10 10 0 01-10-10h20.2a10 10 0 01-10.2 10zM328.6 24.9a10 10 0 0110.2 10h-20.3a10 10 0 0110.1-10z" opacity=".5"/><path d="M328.6 24.9a10 10 0 0110.2 10h-20.3a10 10 0 0110.1-10z" opacity=".3"/><path d="M328.6 24.9a10 10 0 0110.2 10h-20.3a10 10 0 0110.1-10z" opacity=".5"/><path d="M300.8 64.5a10.1 10.1 0 01-9.7-6.9h19.3a10.1 10.1 0 01-9.6 7zM300.8 44.6a10 10 0 0110 10 9.7 9.7 0 01-.4 3H291a10 10 0 01-.5-3 10 10 0 0110.2-10z" opacity=".3"/><path d="M300.8 44.6a10 10 0 0110 10 9.7 9.7 0 01-.4 3H291a10 10 0 01-.5-3 10 10 0 0110.2-10zM270.5 44.9a10 10 0 01-10.1-10h20.3a10 10 0 01-10.2 10z" opacity=".3"/><path d="M270.5 44.9a10 10 0 01-10.1-10h20.3a10 10 0 01-10.2 10zM270.5 24.9a10 10 0 0110.1 10h-20.2a10 10 0 0110.1-10z" opacity=".5"/><path d="M270.5 24.9a10 10 0 0110.1 10h-20.2a10 10 0 0110.1-10z" opacity=".3"/><path d="M270.5 24.9a10 10 0 0110.1 10h-20.2a10 10 0 0110.1-10z" opacity=".5"/><path d="M242.6 64.5a10.1 10.1 0 01-9.6-6.9h19.3a10.1 10.1 0 01-9.7 7zM242.6 44.6a10 10 0 0110.2 10 10 10 0 01-.5 3H233a9.7 9.7 0 01-.5-3 10 10 0 0110.1-10z" opacity=".3"/><path d="M242.6 44.6a10 10 0 0110.2 10 10 10 0 01-.5 3H233a9.7 9.7 0 01-.5-3 10 10 0 0110.1-10zM212.4 44.9a10 10 0 01-10.1-10h20.2a10 10 0 01-10.1 10z" opacity=".3"/><path d="M212.4 44.9a10 10 0 01-10.1-10h20.2a10 10 0 01-10.1 10zM212.4 24.9a10 10 0 0110.1 10h-20.2a10 10 0 0110.1-10z" opacity=".5"/><path d="M212.4 24.9a10 10 0 0110.1 10h-20.2a10 10 0 0110.1-10z" opacity=".3"/><path d="M212.4 24.9a10 10 0 0110.1 10h-20.2a10 10 0 0110.1-10z" opacity=".5"/><path d="M184.5 64.5a10.1 10.1 0 01-9.6-6.9H194a10.1 10.1 0 01-9.6 7zM184.5 44.6a10 10 0 0110.1 10 10 10 0 01-.5 3H175a9.7 9.7 0 01-.5-3 10 10 0 0110.1-10z" opacity=".3"/><path d="M184.5 44.6a10 10 0 0110.1 10 10 10 0 01-.5 3H175a9.7 9.7 0 01-.5-3 10 10 0 0110.1-10zM154.3 44.9a10 10 0 01-10.2-10h20.3a10 10 0 01-10.1 10z" opacity=".3"/><path d="M154.3 44.9a10 10 0 01-10.2-10h20.3a10 10 0 01-10.1 10zM154.3 24.9a10 10 0 0110.1 10h-20.3a10 10 0 0110.2-10z" opacity=".5"/><path d="M154.3 24.9a10 10 0 0110.1 10h-20.3a10 10 0 0110.2-10z" opacity=".3"/><path d="M154.3 24.9a10 10 0 0110.1 10h-20.3a10 10 0 0110.2-10z" opacity=".5"/><path d="M126.4 64.5a10.1 10.1 0 01-9.7-6.9H136a10.1 10.1 0 01-9.6 7zM126.4 44.6a10 10 0 0110.1 10 9.7 9.7 0 01-.5 3h-19.3a10 10 0 01-.5-3 10 10 0 0110.2-10z" opacity=".3"/><path d="M126.4 44.6a10 10 0 0110.1 10 9.7 9.7 0 01-.5 3h-19.3a10 10 0 01-.5-3 10 10 0 0110.2-10zM96.2 44.9a10 10 0 01-10.2-10h20.3a10 10 0 01-10.1 10z" opacity=".3"/><path d="M96.2 44.9a10 10 0 01-10.2-10h20.3a10 10 0 01-10.1 10zM96.2 24.9a10 10 0 0110 10H86a10 10 0 0110.2-10z" opacity=".5"/><path d="M96.2 24.9a10 10 0 0110 10H86a10 10 0 0110.2-10z" opacity=".3"/><path d="M96.2 24.9a10 10 0 0110 10H86a10 10 0 0110.2-10z" opacity=".5"/><path d="M68.3 64.5a10.1 10.1 0 01-9.7-6.9H78a10.1 10.1 0 01-9.7 7zM68.3 44.6a10 10 0 0110 10 10 10 0 01-.4 3H58.6a10 10 0 01-.5-3 10 10 0 0110.1-10z" opacity=".3"/><path d="M68.3 44.6a10 10 0 0110 10 10 10 0 01-.4 3H58.6a10 10 0 01-.5-3 10 10 0 0110.1-10zM38 44.9a10 10 0 01-10.1-10H48a10 10 0 01-10.1 10z" opacity=".3"/><path d="M38 44.9a10 10 0 01-10.1-10H48a10 10 0 01-10.1 10zM38 24.9a10 10 0 0110.1 10H28a10 10 0 0110.1-10z" opacity=".5"/><path d="M38 24.9a10 10 0 0110.1 10H28a10 10 0 0110.1-10z" opacity=".3"/><path d="M38 24.9a10 10 0 0110.1 10H28a10 10 0 0110.1-10z" opacity=".5"/><path d="M10.1 64.5a10.1 10.1 0 01-9.6-6.9h19.3a10.1 10.1 0 01-9.7 7zM10.1 44.6a10 10 0 0110.2 10 10 10 0 01-.5 3H.5a9.7 9.7 0 01-.5-3 10 10 0 0110.1-10z" opacity=".3"/><path d="M10.1 44.6a10 10 0 0110.2 10 10 10 0 01-.5 3H.5a9.7 9.7 0 01-.5-3 10 10 0 0110.1-10zM998.3 64.5a10.1 10.1 0 01-9.6-6.9h19.3a10.1 10.1 0 01-9.7 7zM998.3 44.6a10 10 0 0110.2 10 10 10 0 01-.5 3h-19.3a9.7 9.7 0 01-.5-3 10 10 0 0110.1-10z" opacity=".3"/><path d="M998.3 44.6a10 10 0 0110.2 10 10 10 0 01-.5 3h-19.3a9.7 9.7 0 01-.5-3 10 10 0 0110.1-10z" opacity=".3"/><path d="M998.3 24a10 10 0 01-10-10h-38a10.1 10.1 0 01-20.2 0h-37.9a10.1 10.1 0 01-20.2 0h-38a10.1 10.1 0 01-20.2 0H776a10.1 10.1 0 01-20.3 0h-37.9a10.1 10.1 0 01-20.2 0h-37.9a10.1 10.1 0 01-20.2 0h-38a10.1 10.1 0 01-20.2 0h-38a10.1 10.1 0 01-20.2 0h-37.8a10.1 10.1 0 01-20.3 0h-37.9a10.1 10.1 0 01-20.2 0H369a10.1 10.1 0 01-20.3 0H311a10.1 10.1 0 01-20.3 0h-37.9a10.1 10.1 0 01-20.2 0h-37.9a10.1 10.1 0 01-20.2 0h-37.9a10.1 10.1 0 01-20.3 0H78.5A10.1 10.1 0 0158 14H20.2a10 10 0 01-10 10A10 10 0 010 14V0h1011.8v14h-3.3a10 10 0 01-10.2 10z"/><path d="M968.1 44.9a10 10 0 01-10.1-10h20.2a10 10 0 01-10 10z" opacity=".3"/><path d="M968.1 44.9a10 10 0 01-10.1-10h20.2a10 10 0 01-10 10zM968.1 24.9a10 10 0 0110.1 10H958a10 10 0 0110.1-10z" opacity=".5"/><path d="M968.1 24.9a10 10 0 0110.1 10H958a10 10 0 0110.1-10z" opacity=".3"/><path d="M968.1 24.9a10 10 0 0110.1 10H958a10 10 0 0110.1-10z" opacity=".5"/><path d="M940.2 64.5a10.1 10.1 0 01-9.6-6.9h19.3a10.1 10.1 0 01-9.7 7zM940.2 44.6a10 10 0 0110.1 10 9.7 9.7 0 01-.4 3h-19.3a10 10 0 01-.5-3 10 10 0 0110.1-10z" opacity=".3"/><path d="M940.2 44.6a10 10 0 0110.1 10 9.7 9.7 0 01-.4 3h-19.3a10 10 0 01-.5-3 10 10 0 0110.1-10zM910 44.9a10 10 0 01-10.1-10H920a10 10 0 01-10.1 10z" opacity=".3"/><path d="M910 44.9a10 10 0 01-10.1-10H920a10 10 0 01-10.1 10zM910 24.9a10 10 0 0110.1 10H900a10 10 0 0110.1-10z" opacity=".5"/><path d="M910 24.9a10 10 0 0110.1 10H900a10 10 0 0110.1-10z" opacity=".3"/><path d="M910 24.9a10 10 0 0110.1 10H900a10 10 0 0110.1-10z" opacity=".5"/><path d="M882 64.5a10.1 10.1 0 01-9.5-6.9h19.2a10 10 0 01-9.6 7zM882 44.6a10 10 0 0110.2 10 9.7 9.7 0 01-.5 3h-19.3a10 10 0 01-.4-3 10 10 0 0110-10z" opacity=".3"/><path d="M882 44.6a10 10 0 0110.2 10 9.7 9.7 0 01-.5 3h-19.3a10 10 0 01-.4-3 10 10 0 0110-10zM851.9 44.9a10 10 0 01-10.2-10H862a10 10 0 01-10.1 10z" opacity=".3"/><path d="M851.9 44.9a10 10 0 01-10.2-10H862a10 10 0 01-10.1 10zM851.9 24.9a10 10 0 0110 10h-20.2a10 10 0 0110.2-10z" opacity=".5"/><path d="M851.9 24.9a10 10 0 0110 10h-20.2a10 10 0 0110.2-10z" opacity=".3"/><path d="M851.9 24.9a10 10 0 0110 10h-20.2a10 10 0 0110.2-10z" opacity=".5"/><path d="M824 64.5a10.1 10.1 0 01-9.6-6.9h19.2a10.1 10.1 0 01-9.6 7zM824 44.6a10 10 0 0110.1 10 10 10 0 01-.5 3h-19.3a9.7 9.7 0 01-.5-3 10 10 0 0110.2-10z" opacity=".3"/><path d="M824 44.6a10 10 0 0110.1 10 10 10 0 01-.5 3h-19.3a9.7 9.7 0 01-.5-3 10 10 0 0110.2-10zM793.7 44.9a10 10 0 01-10-10h20.2a10 10 0 01-10.2 10z" opacity=".3"/><path d="M793.7 44.9a10 10 0 01-10-10h20.2a10 10 0 01-10.2 10zM793.7 24.9a10 10 0 0110.2 10h-20.3a10 10 0 0110.1-10z" opacity=".5"/><path d="M793.7 24.9a10 10 0 0110.2 10h-20.3a10 10 0 0110.1-10z" opacity=".3"/><path d="M793.7 24.9a10 10 0 0110.2 10h-20.3a10 10 0 0110.1-10z" opacity=".5"/><path d="M765.8 64.5a10.1 10.1 0 01-9.6-6.9h19.3a10.1 10.1 0 01-9.7 7zM765.8 44.6a10 10 0 0110.2 10 9.7 9.7 0 01-.5 3h-19.3a10 10 0 01-.5-3 10 10 0 0110.1-10z" opacity=".3"/><path d="M765.8 44.6a10 10 0 0110.2 10 9.7 9.7 0 01-.5 3h-19.3a10 10 0 01-.5-3 10 10 0 0110.1-10zM735.6 44.9a10 10 0 01-10.1-10h20.2a10 10 0 01-10 10z" opacity=".3"/><path d="M735.6 44.9a10 10 0 01-10.1-10h20.2a10 10 0 01-10 10zM735.6 24.9a10 10 0 0110.1 10h-20.2a10 10 0 0110.1-10z" opacity=".5"/><path d="M735.6 24.9a10 10 0 0110.1 10h-20.2a10 10 0 0110.1-10z" opacity=".3"/><path d="M735.6 24.9a10 10 0 0110.1 10h-20.2a10 10 0 0110.1-10z" opacity=".5"/><path d="M707.7 64.5a10.1 10.1 0 01-9.6-6.9h19.2a10.1 10.1 0 01-9.6 7zM707.7 44.6a10 10 0 0110.1 10 9.7 9.7 0 01-.5 3h-19.2a10 10 0 01-.5-3 10 10 0 0110.1-10z" opacity=".3"/><path d="M707.7 44.6a10 10 0 0110.1 10 9.7 9.7 0 01-.5 3h-19.2a10 10 0 01-.5-3 10 10 0 0110.1-10zM677.5 44.9a10 10 0 01-10.1-10h20.2a10 10 0 01-10.1 10z" opacity=".3"/><path d="M677.5 44.9a10 10 0 01-10.1-10h20.2a10 10 0 01-10.1 10zM677.5 24.9a10 10 0 0110.1 10h-20.2a10 10 0 0110-10z" opacity=".5"/><path d="M677.5 24.9a10 10 0 0110.1 10h-20.2a10 10 0 0110-10z" opacity=".3"/><path d="M677.5 24.9a10 10 0 0110.1 10h-20.2a10 10 0 0110-10z" opacity=".5"/><path d="M649.6 64.5a10.1 10.1 0 01-9.6-6.9h19.3a10.1 10.1 0 01-9.7 7zM649.6 44.6a10 10 0 0110.1 10 10 10 0 01-.5 3H640a9.7 9.7 0 01-.5-3 10 10 0 0110-10z" opacity=".3"/><path d="M649.6 44.6a10 10 0 0110.1 10 10 10 0 01-.5 3H640a9.7 9.7 0 01-.5-3 10 10 0 0110-10zM619.4 44.9a10 10 0 01-10.2-10h20.3a10 10 0 01-10.1 10z" opacity=".3"/><path d="M619.4 44.9a10 10 0 01-10.2-10h20.3a10 10 0 01-10.1 10zM619.4 24.9a10 10 0 0110 10h-20.2a10 10 0 0110.1-10z" opacity=".5"/><path d="M619.4 24.9a10 10 0 0110 10h-20.2a10 10 0 0110.1-10z" opacity=".3"/><path d="M619.4 24.9a10 10 0 0110 10h-20.2a10 10 0 0110.1-10z" opacity=".5"/><path d="M591.5 64.5a10.1 10.1 0 01-9.7-6.9h19.3a10.1 10.1 0 01-9.6 7zM591.5 44.6a10 10 0 0110 10 10 10 0 01-.4 3h-19.3a10 10 0 01-.5-3 10 10 0 0110.2-10z" opacity=".3"/><path d="M591.5 44.6a10 10 0 0110 10 10 10 0 01-.4 3h-19.3a10 10 0 01-.5-3 10 10 0 0110.2-10zM561.2 44.9a10 10 0 01-10.1-10h20.3a10 10 0 01-10.2 10z" opacity=".3"/><path d="M561.2 44.9a10 10 0 01-10.1-10h20.3a10 10 0 01-10.2 10zM561.2 24.9a10 10 0 0110.1 10h-20.2a10 10 0 0110.1-10z" opacity=".5"/><path d="M561.2 24.9a10 10 0 0110.1 10h-20.2a10 10 0 0110.1-10z" opacity=".3"/><path d="M561.2 24.9a10 10 0 0110.1 10h-20.2a10 10 0 0110.1-10z" opacity=".5"/><path d="M2000 34.8v22.8h-3.8a10.1 10.1 0 10-19.3 0h-38.8a10.1 10.1 0 10-19.3 0h-38.9a9.7 9.7 0 00.5-3 10.1 10.1 0 00-20.2 0 9.7 9.7 0 00.5 3h-38.9a10.1 10.1 0 10-19.3 0h-38.8a10.1 10.1 0 10-19.3 0h-38.8a9.7 9.7 0 00.5-3 10.1 10.1 0 00-20.3 0 9.7 9.7 0 00.5 3h-38.9a10.1 10.1 0 10-19.2 0h-38.9a10.1 10.1 0 10-19.3 0h-38.9a10.1 10.1 0 10-19.7-3 9.7 9.7 0 00.5 3H1473a9.4 9.4 0 00.5-3 10.1 10.1 0 10-19.8 3H1415a9.7 9.7 0 00.5-3 10.1 10.1 0 10-19.8 3h-38.8a9.7 9.7 0 00.5-3 10.1 10.1 0 00-20.3 0 9.7 9.7 0 00.5 3h-38.9a9.7 9.7 0 00.5-3 10.1 10.1 0 10-19.8 3h-38.8a10.1 10.1 0 10-19.3 0h-38.9a10.1 10.1 0 10-19.7-3 9.7 9.7 0 00.5 3h-38.9a9.7 9.7 0 00.5-3 10.1 10.1 0 10-19.7 3h-38.9a10.1 10.1 0 10-19.3 0h-35V34.8h4.3a10.1 10.1 0 0020.3 0h37.8a10.1 10.1 0 0020.3 0h37.9a10.1 10.1 0 0020.2 0h37.9a10.1 10.1 0 0020.2 0h38a10.1 10.1 0 0020.2 0h37.9a10.1 10.1 0 0020.2 0h37.9a10.1 10.1 0 0020.2 0h37.9a10.1 10.1 0 0020.3 0h37.8a10.1 10.1 0 0020.3 0h38a10.1 10.1 0 0020.2 0h37.9a10.1 10.1 0 0020.2 0h38a10.1 10.1 0 0020.2 0h37.9a10.1 10.1 0 0020.2 0h37.9a10.1 10.1 0 0020.2 0h37.9a10.1 10.1 0 0020.3 0h37.8a10.1 10.1 0 0020.3 0h37.9a10.1 10.1 0 0020.2 0zM988.7 57.6h-.5v-3a9.7 9.7 0 00.5 3z" opacity=".3"/><path d="M2000 14v20.8h-33.5a10.1 10.1 0 00-20.3 0h-37.9a10.1 10.1 0 00-20.2 0h-37.9a10.1 10.1 0 00-20.3 0h-37.8a10.1 10.1 0 00-20.3 0H1734a10.1 10.1 0 00-20.2 0h-37.9a10.1 10.1 0 00-20.2 0h-38a10.1 10.1 0 00-20.2 0h-37.8a10.1 10.1 0 00-20.3 0h-38a10.1 10.1 0 00-20.2 0h-37.9a10.1 10.1 0 00-20.3 0h-37.8a10.1 10.1 0 00-20.3 0H1327a10.1 10.1 0 00-20.2 0h-38a10.1 10.1 0 00-20.2 0h-37.9a10.1 10.1 0 00-20.2 0h-37.9a10.1 10.1 0 00-20.2 0h-37.9a10.1 10.1 0 00-20.3 0h-37.8a10.1 10.1 0 00-20.3 0h-4.3V14h34.6a10.1 10.1 0 0020.2 0h37.9a10.1 10.1 0 0020.2 0h38a10.1 10.1 0 0020.2 0h37.8a10.1 10.1 0 0020.3 0h37.9a10.1 10.1 0 0020.2 0h37.9a10.1 10.1 0 0020.3 0h37.8a10.1 10.1 0 0020.3 0h37.9a10.1 10.1 0 0020.2 0h37.9a10.1 10.1 0 0020.2 0h38a10.1 10.1 0 0020.2 0h37.9a10.1 10.1 0 0020.2 0h38a10.1 10.1 0 0020.2 0h37.9a10.1 10.1 0 0020.2 0h37.9a10.1 10.1 0 0020.2 0h37.9a10.1 10.1 0 0020.3 0h37.8a10.1 10.1 0 0020.3 0h37.9a10.1 10.1 0 0020.2 0z" opacity=".5"/><path d="M2000 14v20.8h-33.5a10.1 10.1 0 00-20.3 0h-37.9a10.1 10.1 0 00-20.2 0h-37.9a10.1 10.1 0 00-20.3 0h-37.8a10.1 10.1 0 00-20.3 0H1734a10.1 10.1 0 00-20.2 0h-37.9a10.1 10.1 0 00-20.2 0h-38a10.1 10.1 0 00-20.2 0h-37.8a10.1 10.1 0 00-20.3 0h-38a10.1 10.1 0 00-20.2 0h-37.9a10.1 10.1 0 00-20.3 0h-37.8a10.1 10.1 0 00-20.3 0H1327a10.1 10.1 0 00-20.2 0h-38a10.1 10.1 0 00-20.2 0h-37.9a10.1 10.1 0 00-20.2 0h-37.9a10.1 10.1 0 00-20.2 0h-37.9a10.1 10.1 0 00-20.3 0h-37.8a10.1 10.1 0 00-20.3 0h-4.3V14h34.6a10.1 10.1 0 0020.2 0h37.9a10.1 10.1 0 0020.2 0h38a10.1 10.1 0 0020.2 0h37.8a10.1 10.1 0 0020.3 0h37.9a10.1 10.1 0 0020.2 0h37.9a10.1 10.1 0 0020.3 0h37.8a10.1 10.1 0 0020.3 0h37.9a10.1 10.1 0 0020.2 0h37.9a10.1 10.1 0 0020.2 0h38a10.1 10.1 0 0020.2 0h37.9a10.1 10.1 0 0020.2 0h38a10.1 10.1 0 0020.2 0h37.9a10.1 10.1 0 0020.2 0h37.9a10.1 10.1 0 0020.2 0h37.9a10.1 10.1 0 0020.3 0h37.8a10.1 10.1 0 0020.3 0h37.9a10.1 10.1 0 0020.2 0zM1521.5 64.5a10.1 10.1 0 01-9.6-7h19.2a10.1 10.1 0 01-9.6 7zM1521.5 44.5a10 10 0 0110.1 10 10 10 0 01-.5 3h-19.3a9.7 9.7 0 01-.4-3 10 10 0 0110-10z" opacity=".3"/><path d="M1521.5 44.5a10 10 0 0110.1 10 10 10 0 01-.5 3h-19.3a9.7 9.7 0 01-.4-3 10 10 0 0110-10zM1491.3 44.8a10 10 0 01-10.2-10h20.3a10 10 0 01-10.2 10z" opacity=".3"/><path d="M1491.3 44.8a10 10 0 01-10.2-10h20.3a10 10 0 01-10.2 10zM1491.3 24.8a10 10 0 0110 10h-20.2a10 10 0 0110.2-10z" opacity=".5"/><path d="M1491.3 24.8a10 10 0 0110 10h-20.2a10 10 0 0110.2-10z" opacity=".3"/><path d="M1491.3 24.8a10 10 0 0110 10h-20.2a10 10 0 0110.2-10z" opacity=".5"/><path d="M1463.3 64.5a10.1 10.1 0 01-9.6-7h19.3a10.1 10.1 0 01-9.7 7zM1463.3 44.5a10 10 0 0110.2 10 10 10 0 01-.5 3h-19.3a9.7 9.7 0 01-.5-3 10 10 0 0110.1-10z" opacity=".3"/><path d="M1463.3 44.5a10 10 0 0110.2 10 10 10 0 01-.5 3h-19.3a9.7 9.7 0 01-.5-3 10 10 0 0110.1-10zM1433.1 44.8a10 10 0 01-10.1-10h20.3a10 10 0 01-10.2 10z" opacity=".3"/><path d="M1433.1 44.8a10 10 0 01-10.1-10h20.3a10 10 0 01-10.2 10zM1433.1 24.8a10 10 0 0110.1 10H1423a10 10 0 0110.1-10z" opacity=".5"/><path d="M1433.1 24.8a10 10 0 0110.1 10H1423a10 10 0 0110.1-10z" opacity=".3"/><path d="M1433.1 24.8a10 10 0 0110.1 10H1423a10 10 0 0110.1-10z" opacity=".5"/><path d="M1405.2 64.5a10.1 10.1 0 01-9.6-7h19.3a10.1 10.1 0 01-9.7 7zM1405.2 44.5a10 10 0 0110.1 10 9.7 9.7 0 01-.4 3h-19.3a10 10 0 01-.5-3 10 10 0 0110.1-10z" opacity=".3"/><path d="M1405.2 44.5a10 10 0 0110.1 10 9.7 9.7 0 01-.4 3h-19.3a10 10 0 01-.5-3 10 10 0 0110.1-10zM1375 44.8a10 10 0 01-10.1-10h20.2a10 10 0 01-10.1 10z" opacity=".3"/><path d="M1375 44.8a10 10 0 01-10.1-10h20.2a10 10 0 01-10.1 10zM1375 24.8a10 10 0 0110.1 10H1365a10 10 0 0110.1-10z" opacity=".5"/><path d="M1375 24.8a10 10 0 0110.1 10H1365a10 10 0 0110.1-10z" opacity=".3"/><path d="M1375 24.8a10 10 0 0110.1 10H1365a10 10 0 0110.1-10z" opacity=".5"/><path d="M1347.1 64.5a10.1 10.1 0 01-9.6-7h19.2a10.1 10.1 0 01-9.6 7zM1347.1 44.5a10 10 0 0110.1 10 10 10 0 01-.5 3h-19.2a10 10 0 01-.5-3 10 10 0 0110.1-10z" opacity=".3"/><path d="M1347.1 44.5a10 10 0 0110.1 10 10 10 0 01-.5 3h-19.2a10 10 0 01-.5-3 10 10 0 0110.1-10zM1316.9 44.8a10 10 0 01-10.2-10h20.3a10 10 0 01-10.1 10z" opacity=".3"/><path d="M1316.9 44.8a10 10 0 01-10.2-10h20.3a10 10 0 01-10.1 10zM1316.9 24.8a10 10 0 0110 10h-20.2a10 10 0 0110.2-10z" opacity=".5"/><path d="M1316.9 24.8a10 10 0 0110 10h-20.2a10 10 0 0110.2-10z" opacity=".3"/><path d="M1316.9 24.8a10 10 0 0110 10h-20.2a10 10 0 0110.2-10z" opacity=".5"/><path d="M1289 64.5a10.1 10.1 0 01-9.6-7h19.2a10.1 10.1 0 01-9.6 7zM1289 44.5a10 10 0 0110.1 10 10 10 0 01-.5 3h-19.2a9.7 9.7 0 01-.5-3 10 10 0 0110.1-10z" opacity=".3"/><path d="M1289 44.5a10 10 0 0110.1 10 10 10 0 01-.5 3h-19.2a9.7 9.7 0 01-.5-3 10 10 0 0110.1-10zM1258.7 44.8a10 10 0 01-10-10h20.2a10 10 0 01-10.2 10z" opacity=".3"/><path d="M1258.7 44.8a10 10 0 01-10-10h20.2a10 10 0 01-10.2 10zM1258.7 24.8a10 10 0 0110.2 10h-20.3a10 10 0 0110.1-10z" opacity=".5"/><path d="M1258.7 24.8a10 10 0 0110.2 10h-20.3a10 10 0 0110.1-10z" opacity=".3"/><path d="M1258.7 24.8a10 10 0 0110.2 10h-20.3a10 10 0 0110.1-10z" opacity=".5"/><path d="M1230.8 64.5a10.1 10.1 0 01-9.6-7h19.3a10.1 10.1 0 01-9.7 7zM1230.8 44.5a10 10 0 0110.2 10 9.7 9.7 0 01-.5 3h-19.3a10 10 0 01-.5-3 10 10 0 0110.1-10z" opacity=".3"/><path d="M1230.8 44.5a10 10 0 0110.2 10 9.7 9.7 0 01-.5 3h-19.3a10 10 0 01-.5-3 10 10 0 0110.1-10zM1200.6 44.8a10 10 0 01-10.1-10h20.2a10 10 0 01-10 10z" opacity=".3"/><path d="M1200.6 44.8a10 10 0 01-10.1-10h20.2a10 10 0 01-10 10zM1200.6 24.8a10 10 0 0110.1 10h-20.2a10 10 0 0110.1-10z" opacity=".5"/><path d="M1200.6 24.8a10 10 0 0110.1 10h-20.2a10 10 0 0110.1-10z" opacity=".3"/><path d="M1200.6 24.8a10 10 0 0110.1 10h-20.2a10 10 0 0110.1-10z" opacity=".5"/><path d="M1172.7 64.5a10.1 10.1 0 01-9.6-7h19.3a10.1 10.1 0 01-9.7 7zM1172.7 44.5a10 10 0 0110.1 10 9.7 9.7 0 01-.5 3h-19.2a10 10 0 01-.5-3 10 10 0 0110.1-10z" opacity=".3"/><path d="M1172.7 44.5a10 10 0 0110.1 10 9.7 9.7 0 01-.5 3h-19.2a10 10 0 01-.5-3 10 10 0 0110.1-10zM1142.5 44.8a10 10 0 01-10.1-10h20.2a10 10 0 01-10.1 10z" opacity=".3"/><path d="M1142.5 44.8a10 10 0 01-10.1-10h20.2a10 10 0 01-10.1 10zM1142.5 24.8a10 10 0 0110.1 10h-20.2a10 10 0 0110-10z" opacity=".5"/><path d="M1142.5 24.8a10 10 0 0110.1 10h-20.2a10 10 0 0110-10z" opacity=".3"/><path d="M1142.5 24.8a10 10 0 0110.1 10h-20.2a10 10 0 0110-10z" opacity=".5"/><path d="M1114.6 64.5a10.1 10.1 0 01-9.6-7h19.2a10.1 10.1 0 01-9.6 7zM1114.6 44.5a10 10 0 0110.1 10 10 10 0 01-.5 3H1105a9.7 9.7 0 01-.5-3 10 10 0 0110-10z" opacity=".3"/><path d="M1114.6 44.5a10 10 0 0110.1 10 10 10 0 01-.5 3H1105a9.7 9.7 0 01-.5-3 10 10 0 0110-10zM1084.4 44.8a10 10 0 01-10.2-10h20.3a10 10 0 01-10.1 10z" opacity=".3"/><path d="M1084.4 44.8a10 10 0 01-10.2-10h20.3a10 10 0 01-10.1 10zM1084.4 24.8a10 10 0 0110 10h-20.2a10 10 0 0110.2-10z" opacity=".5"/><path d="M1084.4 24.8a10 10 0 0110 10h-20.2a10 10 0 0110.2-10z" opacity=".3"/><path d="M1084.4 24.8a10 10 0 0110 10h-20.2a10 10 0 0110.2-10z" opacity=".5"/><path d="M1056.5 64.5a10.1 10.1 0 01-9.7-7h19.3a10.1 10.1 0 01-9.6 7zM1056.5 44.5a10 10 0 0110 10 9.7 9.7 0 01-.4 3h-19.3a10 10 0 01-.5-3 10 10 0 0110.2-10z" opacity=".3"/><path d="M1056.5 44.5a10 10 0 0110 10 9.7 9.7 0 01-.4 3h-19.3a10 10 0 01-.5-3 10 10 0 0110.2-10zM1026.2 44.8a10 10 0 01-10-10h20.2a10 10 0 01-10.2 10z" opacity=".3"/><path d="M1026.2 44.8a10 10 0 01-10-10h20.2a10 10 0 01-10.2 10zM1026.2 24.8a10 10 0 0110.2 10H1016a10 10 0 0110.1-10z" opacity=".5"/><path d="M1026.2 24.8a10 10 0 0110.2 10H1016a10 10 0 0110.1-10z" opacity=".3"/><path d="M1026.2 24.8a10 10 0 0110.2 10H1016a10 10 0 0110.1-10z" opacity=".5"/><path d="M1986.6 64.5a10.1 10.1 0 01-9.7-7h19.3a10.1 10.1 0 01-9.6 7zM1986.6 44.5a10 10 0 0110 10 9.7 9.7 0 01-.4 3h-19.3a10 10 0 01-.5-3 10 10 0 0110.2-10z" opacity=".3"/><path d="M1986.6 44.5a10 10 0 0110 10 9.7 9.7 0 01-.4 3h-19.3a10 10 0 01-.5-3 10 10 0 0110.2-10z" opacity=".3"/><path d="M2000 0v14h-3.3a10.1 10.1 0 01-20.3 0h-37.9a10.1 10.1 0 01-20.2 0h-37.9a10.1 10.1 0 01-20.2 0h-37.9a10.1 10.1 0 01-20.2 0h-38a10.1 10.1 0 01-20.2 0H1706a10.1 10.1 0 01-20.2 0h-37.9a10.1 10.1 0 01-20.2 0h-38a10.1 10.1 0 01-20.2 0h-37.9a10.1 10.1 0 01-20.2 0h-38a10.1 10.1 0 01-20.2 0h-37.9a10.1 10.1 0 01-20.2 0h-37.9a10.1 10.1 0 01-20.2 0h-37.9a10.1 10.1 0 01-20.3 0H1241a10.1 10.1 0 01-20.2 0h-38a10.1 10.1 0 01-20.2 0h-37.9a10.1 10.1 0 01-20.2 0h-37.9a10.1 10.1 0 01-20.2 0h-34.6V0z"/><path d="M1956.3 44.8a10 10 0 01-10-10h20.2a10 10 0 01-10.2 10z" opacity=".3"/><path d="M1956.3 44.8a10 10 0 01-10-10h20.2a10 10 0 01-10.2 10zM1956.3 24.8a10 10 0 0110.1 10h-20.2a10 10 0 0110.1-10z" opacity=".5"/><path d="M1956.3 24.8a10 10 0 0110.1 10h-20.2a10 10 0 0110.1-10z" opacity=".3"/><path d="M1956.3 24.8a10 10 0 0110.1 10h-20.2a10 10 0 0110.1-10z" opacity=".5"/><path d="M1928.4 64.5a10.1 10.1 0 01-9.6-7h19.3a10.1 10.1 0 01-9.7 7zM1928.4 44.5a10 10 0 0110.2 10 10 10 0 01-.5 3h-19.3a9.7 9.7 0 01-.5-3 10 10 0 0110.1-10z" opacity=".3"/><path d="M1928.4 44.5a10 10 0 0110.2 10 10 10 0 01-.5 3h-19.3a9.7 9.7 0 01-.5-3 10 10 0 0110.1-10zM1898.2 44.8a10 10 0 01-10.1-10h20.2a10 10 0 01-10.1 10z" opacity=".3"/><path d="M1898.2 44.8a10 10 0 01-10.1-10h20.2a10 10 0 01-10.1 10zM1898.2 24.8a10 10 0 0110.1 10h-20.2a10 10 0 0110.1-10z" opacity=".5"/><path d="M1898.2 24.8a10 10 0 0110.1 10h-20.2a10 10 0 0110.1-10z" opacity=".3"/><path d="M1898.2 24.8a10 10 0 0110.1 10h-20.2a10 10 0 0110.1-10z" opacity=".5"/><path d="M1870.3 64.5a10.1 10.1 0 01-9.6-7h19.2a10.1 10.1 0 01-9.6 7zM1870.3 44.5a10 10 0 019.6 13h-19.2a10 10 0 01-.5-3 10 10 0 0110.1-10z" opacity=".3"/><path d="M1870.3 44.5a10 10 0 019.6 13h-19.2a10 10 0 01-.5-3 10 10 0 0110.1-10zM1840 44.8a10 10 0 01-10-10h20.2a10 10 0 01-10.1 10z" opacity=".3"/><path d="M1840 44.8a10 10 0 01-10-10h20.2a10 10 0 01-10.1 10zM1840 24.8a10 10 0 0110.2 10H1830a10 10 0 0110-10z" opacity=".5"/><path d="M1840 24.8a10 10 0 0110.2 10H1830a10 10 0 0110-10z" opacity=".3"/><path d="M1840 24.8a10 10 0 0110.2 10H1830a10 10 0 0110-10z" opacity=".5"/><path d="M1812.2 64.5a10.1 10.1 0 01-9.7-7h19.3a10.1 10.1 0 01-9.6 7zM1812.2 44.5a10 10 0 0110.1 10 9.7 9.7 0 01-.5 3h-19.3a10 10 0 01-.4-3 10 10 0 0110-10z" opacity=".3"/><path d="M1812.2 44.5a10 10 0 0110.1 10 9.7 9.7 0 01-.5 3h-19.3a10 10 0 01-.4-3 10 10 0 0110-10zM1782 44.8a10 10 0 01-10.1-10h20.2a10 10 0 01-10.1 10z" opacity=".3"/><path d="M1782 44.8a10 10 0 01-10.1-10h20.2a10 10 0 01-10.1 10zM1782 24.8a10 10 0 0110.1 10H1772a10 10 0 0110.1-10z" opacity=".5"/><path d="M1782 24.8a10 10 0 0110.1 10H1772a10 10 0 0110.1-10z" opacity=".3"/><path d="M1782 24.8a10 10 0 0110.1 10H1772a10 10 0 0110.1-10z" opacity=".5"/><path d="M1754 64.5a10.1 10.1 0 01-9.6-7h19.3a10.1 10.1 0 01-9.7 7zM1754 44.5a10 10 0 0110.2 10 10 10 0 01-.5 3h-19.3a9.7 9.7 0 01-.5-3 10 10 0 0110.1-10z" opacity=".3"/><path d="M1754 44.5a10 10 0 0110.2 10 10 10 0 01-.5 3h-19.3a9.7 9.7 0 01-.5-3 10 10 0 0110.1-10zM1723.8 44.8a10 10 0 01-10.1-10h20.2a10 10 0 01-10 10z" opacity=".3"/><path d="M1723.8 44.8a10 10 0 01-10.1-10h20.2a10 10 0 01-10 10zM1723.8 24.8a10 10 0 0110.1 10h-20.2a10 10 0 0110.1-10z" opacity=".5"/><path d="M1723.8 24.8a10 10 0 0110.1 10h-20.2a10 10 0 0110.1-10z" opacity=".3"/><path d="M1723.8 24.8a10 10 0 0110.1 10h-20.2a10 10 0 0110.1-10z" opacity=".5"/><path d="M1696 64.5a10.1 10.1 0 01-9.7-7h19.3a10.1 10.1 0 01-9.7 7zM1696 44.5a10 10 0 0110 10 10 10 0 01-.4 3h-19.3a9.7 9.7 0 01-.5-3 10 10 0 0110.1-10z" opacity=".3"/><path d="M1696 44.5a10 10 0 0110 10 10 10 0 01-.4 3h-19.3a9.7 9.7 0 01-.5-3 10 10 0 0110.1-10zM1665.7 44.8a10 10 0 01-10.1-10h20.2a10 10 0 01-10.1 10z" opacity=".3"/><path d="M1665.7 44.8a10 10 0 01-10.1-10h20.2a10 10 0 01-10.1 10zM1665.7 24.8a10 10 0 0110.1 10h-20.2a10 10 0 0110-10z" opacity=".5"/><path d="M1665.7 24.8a10 10 0 0110.1 10h-20.2a10 10 0 0110-10z" opacity=".3"/><path d="M1665.7 24.8a10 10 0 0110.1 10h-20.2a10 10 0 0110-10z" opacity=".5"/><path d="M1637.8 64.5a10.1 10.1 0 01-9.6-7h19.2a10.1 10.1 0 01-9.6 7zM1637.8 44.5a10 10 0 0110.1 10 9.7 9.7 0 01-.5 3h-19.2a10 10 0 01-.5-3 10 10 0 0110.1-10z" opacity=".3"/><path d="M1637.8 44.5a10 10 0 0110.1 10 9.7 9.7 0 01-.5 3h-19.2a10 10 0 01-.5-3 10 10 0 0110.1-10zM1607.6 44.8a10 10 0 01-10.2-10h20.3a10 10 0 01-10.1 10z" opacity=".3"/><path d="M1607.6 44.8a10 10 0 01-10.2-10h20.3a10 10 0 01-10.1 10zM1607.6 24.8a10 10 0 0110 10h-20.2a10 10 0 0110.2-10z" opacity=".5"/><path d="M1607.6 24.8a10 10 0 0110 10h-20.2a10 10 0 0110.2-10z" opacity=".3"/><path d="M1607.6 24.8a10 10 0 0110 10h-20.2a10 10 0 0110.2-10z" opacity=".5"/><path d="M1579.7 64.5a10.1 10.1 0 01-9.7-7h19.3a10.1 10.1 0 01-9.6 7zM1579.7 44.5a10 10 0 0110 10 10 10 0 01-.4 3H1570a9.7 9.7 0 01-.5-3 10 10 0 0110.2-10z" opacity=".3"/><path d="M1579.7 44.5a10 10 0 0110 10 10 10 0 01-.4 3H1570a9.7 9.7 0 01-.5-3 10 10 0 0110.2-10zM1549.4 44.8a10 10 0 01-10-10h20.2a10 10 0 01-10.2 10z" opacity=".3"/><path d="M1549.4 44.8a10 10 0 01-10-10h20.2a10 10 0 01-10.2 10zM1549.4 24.8a10 10 0 0110.2 10h-20.3a10 10 0 0110.1-10z" opacity=".5"/><path d="M1549.4 24.8a10 10 0 0110.2 10h-20.3a10 10 0 0110.1-10z" opacity=".3"/><path d="M1549.4 24.8a10 10 0 0110.2 10h-20.3a10 10 0 0110.1-10z" opacity=".5"/></g></svg>