<svg xmlns="http://www.w3.org/2000/svg" version="1.1" xmlns:xlink="http://www.w3.org/1999/xlink" xmlns:svgjs="http://svgjs.dev/svgjs" viewBox="0 0 1422 800"><g stroke-width="6" stroke="hsl(190, 100%, 70%)" fill="none" stroke-linecap="butt"><line x1="0" y1="0" x2="222" y2="222"></line><line x1="444" y1="0" x2="222" y2="222"></line><line x1="444" y1="0" x2="666" y2="222"></line><line x1="666" y1="0" x2="888" y2="222"></line><line x1="1110" y1="0" x2="888" y2="222"></line><line x1="1110" y1="0" x2="1332" y2="222"></line><line x1="1332" y1="0" x2="1554" y2="222"></line><line x1="222" y1="222" x2="0" y2="444"></line><line x1="222" y1="222" x2="444" y2="444"></line><line x1="444" y1="222" x2="666" y2="444"></line><line x1="666" y1="222" x2="888" y2="444"></line><line x1="888" y1="222" x2="1110" y2="444"></line><line x1="1332" y1="222" x2="1110" y2="444"></line><line x1="1332" y1="222" x2="1554" y2="444"></line><line x1="0" y1="444" x2="222" y2="666"></line><line x1="222" y1="444" x2="444" y2="666"></line><line x1="666" y1="444" x2="444" y2="666"></line><line x1="666" y1="444" x2="888" y2="666"></line><line x1="888" y1="444" x2="1110" y2="666"></line><line x1="1332" y1="444" x2="1110" y2="666"></line><line x1="1332" y1="444" x2="1554" y2="666"></line><line x1="0" y1="666" x2="222" y2="888"></line><line x1="222" y1="666" x2="444" y2="888"></line><line x1="666" y1="666" x2="444" y2="888"></line><line x1="666" y1="666" x2="888" y2="888"></line><line x1="888" y1="666" x2="1110" y2="888"></line><line x1="1110" y1="666" x2="1332" y2="888"></line><line x1="1332" y1="666" x2="1554" y2="888"></line></g></svg>