<svg xmlns="http://www.w3.org/2000/svg" version="1.1" xmlns:xlink="http://www.w3.org/1999/xlink" xmlns:svgjs="http://svgjs.dev/svgjs" viewBox="0 0 800 800" opacity="1" width="800" height="800"><g stroke-width="1" stroke="#50279cff" fill="none"><rect width="200" height="2.263157894736842" x="-100" y="-1.131578947368421" stroke="none" fill="#de2aaeff" rx="1.131578947368421" transform="rotate(45, 0, 0)"></rect><rect width="2.263157894736842" height="200" x="-1.131578947368421" y="-100" stroke="none" fill="#de2aaeff" rx="1.131578947368421" transform="rotate(45, 0, 0)"></rect><rect width="200" height="2.263157894736842" x="300" y="-1.131578947368421" stroke="none" fill="#50279cff" rx="1.131578947368421" transform="rotate(45, 400, 0)"></rect><rect width="2.263157894736842" height="200" x="398.86842105263156" y="-100" stroke="none" fill="#50279cff" rx="1.131578947368421" transform="rotate(45, 400, 0)"></rect><rect width="200" height="2.263157894736842" x="700" y="-1.131578947368421" stroke="none" fill="#de2aaeff" rx="1.131578947368421" transform="rotate(45, 800, 0)"></rect><rect width="2.263157894736842" height="200" x="798.8684210526316" y="-100" stroke="none" fill="#de2aaeff" rx="1.131578947368421" transform="rotate(45, 800, 0)"></rect><rect width="200" height="2.263157894736842" x="-100" y="398.86842105263156" stroke="none" fill="#50279cff" rx="1.131578947368421" transform="rotate(45, 0, 400)"></rect><rect width="2.263157894736842" height="200" x="-1.131578947368421" y="300" stroke="none" fill="#50279cff" rx="1.131578947368421" transform="rotate(45, 0, 400)"></rect><rect width="200" height="2.263157894736842" x="300" y="398.86842105263156" stroke="none" fill="#de2aaeff" rx="1.131578947368421" transform="rotate(45, 400, 400)"></rect><rect width="2.263157894736842" height="200" x="398.86842105263156" y="300" stroke="none" fill="#de2aaeff" rx="1.131578947368421" transform="rotate(45, 400, 400)"></rect><rect width="200" height="2.263157894736842" x="700" y="398.86842105263156" stroke="none" fill="#50279cff" rx="1.131578947368421" transform="rotate(45, 800, 400)"></rect><rect width="2.263157894736842" height="200" x="798.8684210526316" y="300" stroke="none" fill="#50279cff" rx="1.131578947368421" transform="rotate(45, 800, 400)"></rect><rect width="200" height="2.263157894736842" x="-100" y="798.8684210526316" stroke="none" fill="#de2aaeff" rx="1.131578947368421" transform="rotate(45, 0, 800)"></rect><rect width="2.263157894736842" height="200" x="-1.131578947368421" y="700" stroke="none" fill="#de2aaeff" rx="1.131578947368421" transform="rotate(45, 0, 800)"></rect><rect width="200" height="2.263157894736842" x="300" y="798.8684210526316" stroke="none" fill="#50279cff" rx="1.131578947368421" transform="rotate(45, 400, 800)"></rect><rect width="2.263157894736842" height="200" x="398.86842105263156" y="700" stroke="none" fill="#50279cff" rx="1.131578947368421" transform="rotate(45, 400, 800)"></rect><rect width="200" height="2.263157894736842" x="700" y="798.8684210526316" stroke="none" fill="#de2aaeff" rx="1.131578947368421" transform="rotate(45, 800, 800)"></rect><rect width="2.263157894736842" height="200" x="798.8684210526316" y="700" stroke="none" fill="#de2aaeff" rx="1.131578947368421" transform="rotate(45, 800, 800)"></rect></g></svg>