<svg xmlns="http://www.w3.org/2000/svg" version="1.1" xmlns:xlink="http://www.w3.org/1999/xlink" xmlns:svgjs="http://svgjs.dev/svgjs" viewBox="0 0 800 800" preserveAspectRatio="xMidYMid slice"><defs><pattern id="pppixelate-pattern" width="20" height="20" patternUnits="userSpaceOnUse" patternTransform="translate(1 0) scale(40) rotate(0)" shape-rendering="crispEdges">
    <rect width="1" height="1" x="0" y="0" fill="hsl(0, 0%, 0%)"></rect><rect width="1" height="1" x="1" y="0" fill="hsl(0, 0%, 0%)"></rect><rect width="1" height="1" x="2" y="0" fill="hsl(0, 0%, 0%)"></rect><rect width="1" height="1" x="3" y="0" fill="hsl(0, 0%, 0%)"></rect><rect width="1" height="1" x="16" y="0" fill="hsl(0, 0%, 0%)"></rect><rect width="1" height="1" x="17" y="0" fill="hsl(0, 0%, 0%)"></rect><rect width="1" height="1" x="18" y="0" fill="hsl(0, 0%, 0%)"></rect><rect width="1" height="1" x="19" y="0" fill="hsl(0, 0%, 0%)"></rect><rect width="1" height="1" x="0" y="1" fill="hsl(0, 0%, 0%)"></rect><rect width="1" height="1" x="19" y="1" fill="hsl(0, 0%, 0%)"></rect><rect width="1" height="1" x="0" y="2" fill="hsl(0, 0%, 0%)"></rect><rect width="1" height="1" x="19" y="2" fill="hsl(0, 0%, 0%)"></rect><rect width="1" height="1" x="0" y="17" fill="hsl(0, 0%, 0%)"></rect><rect width="1" height="1" x="19" y="17" fill="hsl(0, 0%, 0%)"></rect><rect width="1" height="1" x="0" y="18" fill="hsl(0, 0%, 0%)"></rect><rect width="1" height="1" x="19" y="18" fill="hsl(0, 0%, 0%)"></rect><rect width="1" height="1" x="0" y="19" fill="hsl(0, 0%, 0%)"></rect><rect width="1" height="1" x="1" y="19" fill="hsl(0, 0%, 0%)"></rect><rect width="1" height="1" x="2" y="19" fill="hsl(0, 0%, 0%)"></rect><rect width="1" height="1" x="3" y="19" fill="hsl(0, 0%, 0%)"></rect><rect width="1" height="1" x="16" y="19" fill="hsl(0, 0%, 0%)"></rect><rect width="1" height="1" x="17" y="19" fill="hsl(0, 0%, 0%)"></rect><rect width="1" height="1" x="18" y="19" fill="hsl(0, 0%, 0%)"></rect><rect width="1" height="1" x="19" y="19" fill="hsl(0, 0%, 0%)"></rect>
  </pattern></defs><rect width="100%" height="100%" fill="url(#pppixelate-pattern)"></rect></svg>