<svg xmlns="http://www.w3.org/2000/svg" xmlns:xlink="http://www.w3.org/1999/xlink" style="margin: auto; background: rgb(255, 255, 255); display: block; z-index: 1; position: relative; shape-rendering: auto;" width="500" height="350" preserveAspectRatio="xMidYMid" viewBox="0 0 500 350">
<g transform="translate(250,175) scale(1,1) translate(-250,-175)"><defs>
<linearGradient id="lg-0.17064652333029828" x1="0" x2="0" y1="0" y2="1">
  <stop stop-color="#890c46" offset="0.3"/>
  <stop stop-color="#3c0226" offset="0.6499999999999999"/>
  <stop stop-color="#3c0226" offset="1"/>
</linearGradient>
<linearGradient id="fg-lg-0.17064652333029828" x1="0" x2="0" y1="0" y2="1">
  <stop stop-color="#890c46" stop-opacity="1" offset="0.3"/>
  <stop stop-color="#3c0226" stop-opacity="0.66" offset="0.6499999999999999"/>
  <stop stop-color="#3c0226" stop-opacity="0" offset="1"/>
</linearGradient>
<style type="text/css">
  path { fill: none; stroke: #00ffff; stroke-width: 1px }
</style>
</defs>
<rect x="0" y="0" width="500" height="350" fill="url(#lg-0.17064652333029828)"/><path d="M0 105 L-4425.000000000001 350"/><path d="M3.8461538461538463 105 L-4353.076923076924 350"/><path d="M7.6923076923076925 105 L-4281.153846153847 350"/><path d="M11.538461538461538 105 L-4209.23076923077 350"/><path d="M15.384615384615385 105 L-4137.307692307693 350"/><path d="M19.23076923076923 105 L-4065.384615384616 350"/><path d="M23.076923076923077 105 L-3993.461538461539 350"/><path d="M26.923076923076923 105 L-3921.5384615384623 350"/><path d="M30.76923076923077 105 L-3849.6153846153857 350"/><path d="M34.61538461538461 105 L-3777.6923076923085 350"/><path d="M38.46153846153846 105 L-3705.7692307692314 350"/><path d="M42.30769230769231 105 L-3633.8461538461547 350"/><path d="M46.15384615384615 105 L-3561.9230769230776 350"/><path d="M50 105 L-3490.000000000001 350"/><path d="M53.84615384615385 105 L-3418.076923076924 350"/><path d="M57.69230769230769 105 L-3346.1538461538466 350"/><path d="M61.53846153846154 105 L-3274.23076923077 350"/><path d="M65.38461538461539 105 L-3202.3076923076933 350"/><path d="M69.23076923076923 105 L-3130.384615384616 350"/><path d="M73.07692307692308 105 L-3058.461538461539 350"/><path d="M76.92307692307692 105 L-2986.538461538462 350"/><path d="M80.76923076923077 105 L-2914.615384615385 350"/><path d="M84.61538461538461 105 L-2842.6923076923085 350"/><path d="M88.46153846153847 105 L-2770.7692307692314 350"/><path d="M92.3076923076923 105 L-2698.8461538461543 350"/><path d="M96.15384615384616 105 L-2626.923076923077 350"/><path d="M100 105 L-2555.0000000000005 350"/><path d="M103.84615384615384 105 L-2483.076923076924 350"/><path d="M107.6923076923077 105 L-2411.1538461538466 350"/><path d="M111.53846153846153 105 L-2339.2307692307695 350"/><path d="M115.38461538461539 105 L-2267.307692307693 350"/><path d="M119.23076923076923 105 L-2195.3846153846157 350"/><path d="M123.07692307692308 105 L-2123.461538461539 350"/><path d="M126.92307692307692 105 L-2051.538461538462 350"/><path d="M130.76923076923077 105 L-1979.6153846153852 350"/><path d="M134.6153846153846 105 L-1907.692307692308 350"/><path d="M138.46153846153845 105 L-1835.7692307692314 350"/><path d="M142.30769230769232 105 L-1763.8461538461543 350"/><path d="M146.15384615384616 105 L-1691.9230769230776 350"/><path d="M150 105 L-1620.0000000000005 350"/><path d="M153.84615384615384 105 L-1548.0769230769233 350"/><path d="M157.69230769230768 105 L-1476.1538461538466 350"/><path d="M161.53846153846155 105 L-1404.2307692307695 350"/><path d="M165.3846153846154 105 L-1332.3076923076928 350"/><path d="M169.23076923076923 105 L-1260.3846153846157 350"/><path d="M173.07692307692307 105 L-1188.461538461539 350"/><path d="M176.92307692307693 105 L-1116.538461538462 350"/><path d="M180.76923076923077 105 L-1044.6153846153852 350"/><path d="M184.6153846153846 105 L-972.6923076923076 350"/><path d="M188.46153846153845 105 L-900.769230769231 350"/><path d="M192.30769230769232 105 L-828.8461538461538 350"/><path d="M196.15384615384616 105 L-756.9230769230771 350"/><path d="M200 105 L-685 350"/><path d="M203.84615384615384 105 L-613.0769230769229 350"/><path d="M207.69230769230768 105 L-541.1538461538462 350"/><path d="M211.53846153846155 105 L-469.23076923076906 350"/><path d="M215.3846153846154 105 L-397.3076923076924 350"/><path d="M219.23076923076923 105 L-325.38461538461524 350"/><path d="M223.07692307692307 105 L-253.4615384615381 350"/><path d="M226.92307692307693 105 L-181.5384615384619 350"/><path d="M230.76923076923077 105 L-109.61538461538476 350"/><path d="M234.6153846153846 105 L-37.69230769230762 350"/><path d="M238.46153846153845 105 L34.23076923076951 350"/><path d="M242.30769230769232 105 L106.15384615384573 350"/><path d="M246.15384615384616 105 L178.07692307692287 350"/><path d="M250 105 L250 350"/><path d="M253.84615384615384 105 L321.92307692307713 350"/><path d="M257.6923076923077 105 L393.84615384615427 350"/><path d="M261.53846153846155 105 L465.7692307692305 350"/><path d="M265.38461538461536 105 L537.6923076923076 350"/><path d="M269.2307692307692 105 L609.6153846153848 350"/><path d="M273.0769230769231 105 L681.5384615384619 350"/><path d="M276.9230769230769 105 L753.4615384615381 350"/><path d="M280.7692307692308 105 L825.3846153846152 350"/><path d="M284.61538461538464 105 L897.3076923076924 350"/><path d="M288.46153846153845 105 L969.2307692307695 350"/><path d="M292.3076923076923 105 L1041.1538461538457 350"/><path d="M296.15384615384613 105 L1113.0769230769229 350"/><path d="M300 105 L1185 350"/><path d="M303.84615384615387 105 L1256.9230769230771 350"/><path d="M307.6923076923077 105 L1328.8461538461543 350"/><path d="M311.53846153846155 105 L1400.7692307692305 350"/><path d="M315.38461538461536 105 L1472.6923076923076 350"/><path d="M319.2307692307692 105 L1544.6153846153848 350"/><path d="M323.0769230769231 105 L1616.538461538462 350"/><path d="M326.9230769230769 105 L1688.461538461538 350"/><path d="M330.7692307692308 105 L1760.3846153846152 350"/><path d="M334.61538461538464 105 L1832.3076923076924 350"/><path d="M338.46153846153845 105 L1904.2307692307695 350"/><path d="M342.3076923076923 105 L1976.1538461538457 350"/><path d="M346.15384615384613 105 L2048.076923076923 350"/><path d="M350 105 L2120 350"/><path d="M353.84615384615387 105 L2191.923076923077 350"/><path d="M357.6923076923077 105 L2263.8461538461543 350"/><path d="M361.53846153846155 105 L2335.7692307692305 350"/><path d="M365.38461538461536 105 L2407.6923076923076 350"/><path d="M369.2307692307692 105 L2479.6153846153857 350"/><path d="M373.0769230769231 105 L2551.538461538463 350"/><path d="M376.9230769230769 105 L2623.461538461539 350"/><path d="M380.7692307692308 105 L2695.384615384616 350"/><path d="M384.61538461538464 105 L2767.3076923076933 350"/><path d="M388.46153846153845 105 L2839.2307692307704 350"/><path d="M392.3076923076923 105 L2911.1538461538466 350"/><path d="M396.15384615384613 105 L2983.076923076924 350"/><path d="M400 105 L3055.000000000001 350"/><path d="M403.84615384615387 105 L3126.923076923078 350"/><path d="M407.6923076923077 105 L3198.846153846155 350"/><path d="M411.53846153846155 105 L3270.7692307692314 350"/><path d="M415.38461538461536 105 L3342.6923076923085 350"/><path d="M419.2307692307692 105 L3414.6153846153857 350"/><path d="M423.0769230769231 105 L3486.538461538463 350"/><path d="M426.9230769230769 105 L3558.461538461539 350"/><path d="M430.7692307692308 105 L3630.384615384616 350"/><path d="M434.61538461538464 105 L3702.3076923076933 350"/><path d="M438.46153846153845 105 L3774.2307692307704 350"/><path d="M442.3076923076923 105 L3846.1538461538466 350"/><path d="M446.15384615384613 105 L3918.0769230769247 350"/><path d="M450 105 L3990.000000000001 350"/><path d="M453.84615384615387 105 L4061.923076923077 350"/><path d="M457.6923076923077 105 L4133.846153846155 350"/><path d="M461.53846153846155 105 L4205.769230769231 350"/><path d="M465.38461538461536 105 L4277.692307692309 350"/><path d="M469.2307692307692 105 L4349.615384615386 350"/><path d="M473.0769230769231 105 L4421.538461538462 350"/><path d="M476.9230769230769 105 L4493.46153846154 350"/><path d="M480.7692307692308 105 L4565.384615384616 350"/><path d="M484.61538461538464 105 L4637.307692307692 350"/><path d="M488.46153846153845 105 L4709.23076923077 350"/><path d="M492.3076923076923 105 L4781.153846153847 350"/><path d="M496.15384615384613 105 L4853.076923076925 350"/><path d="M500 105 L4925.000000000001 350"/><g>
<path d="M0 105 L500 105"/>
<animateTransform attributeName="transform" type="translate" repeatCount="indefinite" calcMode="linear" keyTimes="0;1" values="0 0;0 1.8556213017751477" begin="0s" dur="0.8333333333333334s"/>

</g><g>
<path d="M0 106.85562130177514 L500 106.85562130177514"/>
<animateTransform attributeName="transform" type="translate" repeatCount="indefinite" calcMode="linear" keyTimes="0;1" values="0 0;0 3.711242603550295" begin="0s" dur="0.8333333333333334s"/>

</g><g>
<path d="M0 110.56686390532543 L500 110.56686390532543"/>
<animateTransform attributeName="transform" type="translate" repeatCount="indefinite" calcMode="linear" keyTimes="0;1" values="0 0;0 5.566863905325443" begin="0s" dur="0.8333333333333334s"/>

</g><g>
<path d="M0 116.13372781065088 L500 116.13372781065088"/>
<animateTransform attributeName="transform" type="translate" repeatCount="indefinite" calcMode="linear" keyTimes="0;1" values="0 0;0 7.422485207100591" begin="0s" dur="0.8333333333333334s"/>

</g><g>
<path d="M0 123.55621301775147 L500 123.55621301775147"/>
<animateTransform attributeName="transform" type="translate" repeatCount="indefinite" calcMode="linear" keyTimes="0;1" values="0 0;0 9.278106508875739" begin="0s" dur="0.8333333333333334s"/>

</g><g>
<path d="M0 132.8343195266272 L500 132.8343195266272"/>
<animateTransform attributeName="transform" type="translate" repeatCount="indefinite" calcMode="linear" keyTimes="0;1" values="0 0;0 11.133727810650887" begin="0s" dur="0.8333333333333334s"/>

</g><g>
<path d="M0 143.9680473372781 L500 143.9680473372781"/>
<animateTransform attributeName="transform" type="translate" repeatCount="indefinite" calcMode="linear" keyTimes="0;1" values="0 0;0 12.989349112426035" begin="0s" dur="0.8333333333333334s"/>

</g><g>
<path d="M0 156.95739644970413 L500 156.95739644970413"/>
<animateTransform attributeName="transform" type="translate" repeatCount="indefinite" calcMode="linear" keyTimes="0;1" values="0 0;0 14.844970414201182" begin="0s" dur="0.8333333333333334s"/>

</g><g>
<path d="M0 171.80236686390532 L500 171.80236686390532"/>
<animateTransform attributeName="transform" type="translate" repeatCount="indefinite" calcMode="linear" keyTimes="0;1" values="0 0;0 16.70059171597633" begin="0s" dur="0.8333333333333334s"/>

</g><g>
<path d="M0 188.50295857988164 L500 188.50295857988164"/>
<animateTransform attributeName="transform" type="translate" repeatCount="indefinite" calcMode="linear" keyTimes="0;1" values="0 0;0 18.556213017751478" begin="0s" dur="0.8333333333333334s"/>

</g><g>
<path d="M0 207.0591715976331 L500 207.0591715976331"/>
<animateTransform attributeName="transform" type="translate" repeatCount="indefinite" calcMode="linear" keyTimes="0;1" values="0 0;0 20.411834319526626" begin="0s" dur="0.8333333333333334s"/>

</g><g>
<path d="M0 227.47100591715974 L500 227.47100591715974"/>
<animateTransform attributeName="transform" type="translate" repeatCount="indefinite" calcMode="linear" keyTimes="0;1" values="0 0;0 22.267455621301774" begin="0s" dur="0.8333333333333334s"/>

</g><g>
<path d="M0 249.7384615384615 L500 249.7384615384615"/>
<animateTransform attributeName="transform" type="translate" repeatCount="indefinite" calcMode="linear" keyTimes="0;1" values="0 0;0 24.123076923076923" begin="0s" dur="0.8333333333333334s"/>

</g><g>
<path d="M0 273.86153846153843 L500 273.86153846153843"/>
<animateTransform attributeName="transform" type="translate" repeatCount="indefinite" calcMode="linear" keyTimes="0;1" values="0 0;0 25.97869822485207" begin="0s" dur="0.8333333333333334s"/>

</g><g>
<path d="M0 299.8402366863905 L500 299.8402366863905"/>
<animateTransform attributeName="transform" type="translate" repeatCount="indefinite" calcMode="linear" keyTimes="0;1" values="0 0;0 27.83431952662722" begin="0s" dur="0.8333333333333334s"/>

</g><g>
<path d="M0 327.6745562130177 L500 327.6745562130177"/>
<animateTransform attributeName="transform" type="translate" repeatCount="indefinite" calcMode="linear" keyTimes="0;1" values="0 0;0 29.689940828402367" begin="0s" dur="0.8333333333333334s"/>

</g><g>
<path d="M0 357.36449704142007 L500 357.36449704142007"/>
<animateTransform attributeName="transform" type="translate" repeatCount="indefinite" calcMode="linear" keyTimes="0;1" values="0 0;0 31.54556213017751" begin="0s" dur="0.8333333333333334s"/>

</g><rect x="0" y="0" width="500" height="350" fill="url(#fg-lg-0.17064652333029828)"/></g>
</svg>